{
.appVersion = "1356";
DisplayStrings = (
"É",
"/Cacute",
"o/ohorn/ohorndotbelow",
"Suy/space cho/space cùng,/space/dcroat ó/space là/space không/space m/ocircumflexdotbelow t/space ông/space b/ocircumflexacute/space bà/space m/dotbelowcomb/edotbelow/space nào",
"/dotaccent",
"/dblgravecomb/adblgrave",

glyphs = (
{
glyphname = A;
lastChange = "2021-08-11 05:19:26 +0000";
layers = (
{
anchors = (
{
name = bottom;
position = "{1383, 0}";
},
{
name = ogonek;
position = "{2532, 43}";
},
{
name = top;
position = "{1509, 2681}";
}
);
layerId = "274E8830-0A80-4149-8BE8-CF3C4CCD3F6F";
paths = (
{
closed = 1;
nodes = (
"1004 74 LINE",
"783 74 OFFCURVE",
"672 111 OFFCURVE",
"672 186 CURVE SMOOTH",
"672 192 OFFCURVE",
"673 198 OFFCURVE",
"674 204 CURVE SMOOTH",
"692 287 OFFCURVE",
"774 507 OFFCURVE",
"920 864 CURVE SMOOTH",
"929 885 OFFCURVE",
"941 896 OFFCURVE",
"957 896 CURVE SMOOTH",
"1876 896 LINE SMOOTH",
"1897 896 OFFCURVE",
"1909 885 OFFCURVE",
"1913 864 CURVE",
"2046 436 OFFCURVE",
"2113 216 OFFCURVE",
"2113 204 CURVE SMOOTH",
"2120 115 OFFCURVE",
"2022 70 OFFCURVE",
"1821 70 CURVE",
"1789 -10 LINE",
"1806 -10 OFFCURVE",
"1893 -7 OFFCURVE",
"2049 0 CURVE SMOOTH",
"2205 6 OFFCURVE",
"2304 9 OFFCURVE",
"2345 9 CURVE SMOOTH",
"2384 9 OFFCURVE",
"2556 3 OFFCURVE",
"2859 -10 CURVE",
"2901 74 LINE",
"2833 81 OFFCURVE",
"2765 87 OFFCURVE",
"2697 93 CURVE",
"2594 114 OFFCURVE",
"2521 164 OFFCURVE",
"2479 241 CURVE SMOOTH",
"2404 380 OFFCURVE",
"2285 676 OFFCURVE",
"2122 1131 CURVE SMOOTH",
"1969 1558 LINE SMOOTH",
"1862 1857 OFFCURVE",
"1736 2244 OFFCURVE",
"1584 2716 CURVE",
"1509 2664 OFFCURVE",
"1430 2602 OFFCURVE",
"1349 2531 CURVE SMOOTH",
"1330 2515 OFFCURVE",
"1322 2497 OFFCURVE",
"1322 2480 CURVE SMOOTH",
"1322 2473 OFFCURVE",
"1323 2464 OFFCURVE",
"1326 2455 CURVE SMOOTH",
"1333 2429 OFFCURVE",
"1334 2421 OFFCURVE",
"1334 2412 CURVE SMOOTH",
"1334 2347 OFFCURVE",
"1315 2261 OFFCURVE",
"1273 2153 CURVE SMOOTH",
"575 375 LINE SMOOTH",
"529 258 OFFCURVE",
"474 180 OFFCURVE",
"411 141 CURVE SMOOTH",
"364 113 OFFCURVE",
"273 90 OFFCURVE",
"137 72 CURVE",
"99 -10 LINE",
"214 3 OFFCURVE",
"357 9 OFFCURVE",
"530 9 CURVE SMOOTH",
"713 9 OFFCURVE",
"857 2 OFFCURVE",
"962 -12 CURVE"
);
},
{
closed = 1;
nodes = (
"998 1028 OFFCURVE",
"990 1034 OFFCURVE",
"990 1045 CURVE SMOOTH",
"990 1049 OFFCURVE",
"991 1055 OFFCURVE",
"994 1061 CURVE SMOOTH",
"1421 2149 LINE SMOOTH",
"1425 2160 OFFCURVE",
"1430 2165 OFFCURVE",
"1434 2165 CURVE SMOOTH",
"1439 2165 OFFCURVE",
"1444 2158 OFFCURVE",
"1449 2144 CURVE SMOOTH",
"1839 1061 LINE SMOOTH",
"1842 1054 OFFCURVE",
"1844 1048 OFFCURVE",
"1844 1044 CURVE SMOOTH",
"1844 1033 OFFCURVE",
"1836 1028 OFFCURVE",
"1820 1028 CURVE SMOOTH",
"1013 1028 LINE SMOOTH"
);
}
);
width = 2980;
}
);
leftKerningGroup = A;
note = A;
rightKerningGroup = A;
unicode = 0041;
},
{
glyphname = AE;
lastChange = "2021-08-11 05:19:26 +0000";
layers = (
{
anchors = (
{
name = bottom;
position = "{1805, 0}";
},
{
name = top;
position = "{2217, 2643}";
}
);
layerId = "274E8830-0A80-4149-8BE8-CF3C4CCD3F6F";
paths = (
{
closed = 1;
nodes = (
"3350 -26 OFFCURVE",
"3397 -11 OFFCURVE",
"3426 18 CURVE SMOOTH",
"3451 44 OFFCURVE",
"3469 94 OFFCURVE",
"3480 170 CURVE SMOOTH",
"3501 309 OFFCURVE",
"3535 437 OFFCURVE",
"3586 552 CURVE",
"3531 570 LINE",
"3524 526 OFFCURVE",
"3496 461 OFFCURVE",
"3448 379 CURVE SMOOTH",
"3395 293 OFFCURVE",
"3347 235 OFFCURVE",
"3303 204 CURVE SMOOTH",
"3214 141 OFFCURVE",
"3036 108 OFFCURVE",
"2768 108 CURVE SMOOTH",
"2699 108 OFFCURVE",
"2634 112 OFFCURVE",
"2573 119 CURVE SMOOTH",
"2436 137 OFFCURVE",
"2352 151 OFFCURVE",
"2321 163 CURVE SMOOTH",
"2280 180 OFFCURVE",
"2255 213 OFFCURVE",
"2245 264 CURVE SMOOTH",
"2218 406 OFFCURVE",
"2202 761 OFFCURVE",
"2200 1333 CURVE",
"2242 1335 OFFCURVE",
"2293 1337 OFFCURVE",
"2351 1337 CURVE SMOOTH",
"2457 1337 OFFCURVE",
"2589 1333 OFFCURVE",
"2749 1325 CURVE SMOOTH",
"2914 1318 OFFCURVE",
"2994 1257 OFFCURVE",
"2993 1146 CURVE",
"2983 1100 OFFCURVE",
"2976 1071 OFFCURVE",
"2972 1059 CURVE",
"3052 1078 LINE",
"3049 1132 OFFCURVE",
"3048 1165 OFFCURVE",
"3048 1175 CURVE SMOOTH",
"3048 1204 OFFCURVE",
"3055 1246 OFFCURVE",
"3067 1302 CURVE SMOOTH",
"3081 1361 OFFCURVE",
"3088 1397 OFFCURVE",
"3088 1415 CURVE SMOOTH",
"3088 1445 OFFCURVE",
"3076 1464 OFFCURVE",
"3048 1464 CURVE SMOOTH",
"2200 1455 LINE",
"2200 2000 OFFCURVE",
"2220 2347 OFFCURVE",
"2259 2493 CURVE",
"2324 2502 OFFCURVE",
"2429 2508 OFFCURVE",
"2576 2509 CURVE SMOOTH",
"2637 2509 LINE SMOOTH",
"2749 2509 OFFCURVE",
"2834 2505 OFFCURVE",
"2889 2498 CURVE SMOOTH",
"3047 2479 OFFCURVE",
"3126 2426 OFFCURVE",
"3126 2343 CURVE SMOOTH",
"3126 2313 OFFCURVE",
"3105 2237 OFFCURVE",
"3063 2118 CURVE",
"3141 2100 LINE",
"3184 2335 LINE SMOOTH",
"3187 2351 OFFCURVE",
"3198 2396 OFFCURVE",
"3217 2468 CURVE SMOOTH",
"3232 2526 OFFCURVE",
"3240 2569 OFFCURVE",
"3240 2595 CURVE SMOOTH",
"3240 2634 OFFCURVE",
"3227 2653 OFFCURVE",
"3199 2656 CURVE",
"2800 2653 OFFCURVE",
"2421 2649 OFFCURVE",
"2060 2645 CURVE SMOOTH",
"1836 2648 OFFCURVE",
"1656 2660 OFFCURVE",
"1521 2681 CURVE",
"1484 2602 LINE",
"1504 2604 OFFCURVE",
"1523 2605 OFFCURVE",
"1542 2605 CURVE SMOOTH",
"1678 2605 OFFCURVE",
"1787 2560 OFFCURVE",
"1842 2504 CURVE SMOOTH",
"1852 2493 OFFCURVE",
"1830 2591 OFFCURVE",
"1839 2563 CURVE",
"1792 2496 OFFCURVE",
"1702 2356 OFFCURVE",
"565 413 CURVE SMOOTH",
"501 304 OFFCURVE",
"405 180 OFFCURVE",
"342 141 CURVE SMOOTH",
"295 113 OFFCURVE",
"204 90 OFFCURVE",
"68 72 CURVE",
"30 -10 LINE",
"145 3 OFFCURVE",
"362 9 OFFCURVE",
"535 9 CURVE SMOOTH",
"718 9 OFFCURVE",
"862 2 OFFCURVE",
"967 -12 CURVE",
"1009 74 LINE",
"788 74 OFFCURVE",
"677 111 OFFCURVE",
"677 186 CURVE SMOOTH",
"677 192 OFFCURVE",
"678 198 OFFCURVE",
"679 204 CURVE SMOOTH",
"697 287 OFFCURVE",
"829 553 OFFCURVE",
"1052 910 CURVE SMOOTH",
"1066 931 OFFCURVE",
"1080 942 OFFCURVE",
"1096 942 CURVE SMOOTH",
"1908 942 LINE",
"1904 609 OFFCURVE",
"1893 353 OFFCURVE",
"1872 264 CURVE SMOOTH",
"1854 195 OFFCURVE",
"1802 144 OFFCURVE",
"1712 108 CURVE SMOOTH",
"1643 79 OFFCURVE",
"1569 65 OFFCURVE",
"1487 65 CURVE SMOOTH",
"1462 65 OFFCURVE",
"1441 68 OFFCURVE",
"1425 71 CURVE",
"1391 -10 LINE",
"1725 14 OFFCURVE",
"1923 29 OFFCURVE",
"1988 32 CURVE SMOOTH",
"2054 36 OFFCURVE",
"2130 39 OFFCURVE",
"2213 39 CURVE SMOOTH",
"2290 39 OFFCURVE",
"2627 18 OFFCURVE",
"3227 -25 CURVE SMOOTH",
"3247 -26 OFFCURVE",
"3265 -26 OFFCURVE",
"3281 -26 CURVE SMOOTH"
);
},
{
closed = 1;
nodes = (
"1181 1091 OFFCURVE",
"1175 1095 OFFCURVE",
"1175 1103 CURVE SMOOTH",
"1175 1109 OFFCURVE",
"1177 1116 OFFCURVE",
"1182 1124 CURVE SMOOTH",
"1881 2365 LINE",
"1907 2225 OFFCURVE",
"1904 2013 OFFCURVE",
"1908 1848 CURVE SMOOTH",
"1909 1801 OFFCURVE",
"1909 1616 OFFCURVE",
"1909 1166 CURVE SMOOTH",
"1909 1095 LINE",
"1904 1092 OFFCURVE",
"1898 1091 OFFCURVE",
"1890 1091 CURVE SMOOTH",
"1194 1091 LINE SMOOTH"
);
}
);
width = 3609;
}
);
note = AE;
unicode = 00C6;
},
{
glyphname = B;
lastChange = "2021-08-11 05:19:26 +0000";
layers = (
{
layerId = "274E8830-0A80-4149-8BE8-CF3C4CCD3F6F";
paths = (
{
closed = 1;
nodes = (
"338 7 OFFCURVE",
"517 17 OFFCURVE",
"630 18 CURVE SMOOTH",
"740 19 OFFCURVE",
"825 19 OFFCURVE",
"885 19 CURVE SMOOTH",
"945 19 OFFCURVE",
"981 19 OFFCURVE",
"991 18 CURVE SMOOTH",
"1153 6 OFFCURVE",
"1284 0 OFFCURVE",
"1383 0 CURVE SMOOTH",
"1403 0 OFFCURVE",
"1422 0 OFFCURVE",
"1440 1 CURVE SMOOTH",
"1719 9 OFFCURVE",
"1942 78 OFFCURVE",
"2111 207 CURVE SMOOTH",
"2304 354 OFFCURVE",
"2400 563 OFFCURVE",
"2400 836 CURVE SMOOTH",
"2400 1025 OFFCURVE",
"2360 1171 OFFCURVE",
"2280 1272 CURVE SMOOTH",
"2155 1431 OFFCURVE",
"1938 1519 OFFCURVE",
"1631 1538 CURVE",
"1760 1593 OFFCURVE",
"1862 1672 OFFCURVE",
"1936 1774 CURVE SMOOTH",
"2013 1880 OFFCURVE",
"2051 2001 OFFCURVE",
"2051 2136 CURVE SMOOTH",
"2051 2307 OFFCURVE",
"1989 2436 OFFCURVE",
"1864 2521 CURVE SMOOTH",
"1729 2613 OFFCURVE",
"1528 2659 OFFCURVE",
"1261 2659 CURVE SMOOTH",
"1195 2659 OFFCURVE",
"1125 2656 OFFCURVE",
"1050 2650 CURVE SMOOTH",
"934 2642 OFFCURVE",
"819 2637 OFFCURVE",
"703 2637 CURVE SMOOTH",
"530 2637 OFFCURVE",
"358 2647 OFFCURVE",
"185 2666 CURVE",
"148 2587 LINE",
"199 2598 OFFCURVE",
"245 2604 OFFCURVE",
"288 2604 CURVE SMOOTH",
"369 2604 OFFCURVE",
"435 2583 OFFCURVE",
"486 2540 CURVE",
"543 2475 OFFCURVE",
"572 2005 OFFCURVE",
"572 1130 CURVE SMOOTH",
"572 652 OFFCURVE",
"556 359 OFFCURVE",
"524 251 CURVE SMOOTH",
"487 129 OFFCURVE",
"357 70 OFFCURVE",
"132 73 CURVE",
"92 -10 LINE"
);
},
{
closed = 1;
nodes = (
"1200 84 OFFCURVE",
"1096 88 OFFCURVE",
"1055 97 CURVE SMOOTH",
"956 118 OFFCURVE",
"902 171 OFFCURVE",
"892 256 CURVE SMOOTH",
"871 440 OFFCURVE",
"860 700 OFFCURVE",
"860 1036 CURVE SMOOTH",
"860 1612 LINE SMOOTH",
"860 1969 OFFCURVE",
"869 2235 OFFCURVE",
"888 2411 CURVE SMOOTH",
"894 2468 OFFCURVE",
"936 2505 OFFCURVE",
"1014 2521 CURVE SMOOTH",
"1053 2528 OFFCURVE",
"1136 2532 OFFCURVE",
"1263 2532 CURVE SMOOTH",
"1426 2532 OFFCURVE",
"1557 2484 OFFCURVE",
"1658 2387 CURVE SMOOTH",
"1753 2296 OFFCURVE",
"1800 2186 OFFCURVE",
"1800 2055 CURVE SMOOTH",
"1800 1960 OFFCURVE",
"1773 1870 OFFCURVE",
"1719 1785 CURVE SMOOTH",
"1680 1722 OFFCURVE",
"1615 1667 OFFCURVE",
"1524 1619 CURVE SMOOTH",
"1429 1569 OFFCURVE",
"1335 1544 OFFCURVE",
"1244 1544 CURVE SMOOTH",
"1172 1544 LINE",
"1116 1456 LINE",
"1448 1456 LINE SMOOTH",
"1638 1456 OFFCURVE",
"1791 1402 OFFCURVE",
"1908 1293 CURVE SMOOTH",
"2035 1177 OFFCURVE",
"2096 1014 OFFCURVE",
"2096 807 CURVE SMOOTH",
"2096 587 OFFCURVE",
"2029 411 OFFCURVE",
"1894 280 CURVE SMOOTH",
"1761 149 OFFCURVE",
"1585 84 OFFCURVE",
"1368 84 CURVE SMOOTH"
);
}
);
width = 2611;
}
);
note = B;
unicode = 0042;
},
{
glyphname = C;
lastChange = "2021-08-11 05:19:26 +0000";
layers = (
{
anchors = (
{
name = bottom;
position = "{1520, 0}";
},
{
name = top;
position = "{1627, 2686}";
}
);
layerId = "274E8830-0A80-4149-8BE8-CF3C4CCD3F6F";
paths = (
{
closed = 1;
nodes = (
"1921 -46 OFFCURVE",
"2137 -1 OFFCURVE",
"2340 89 CURVE SMOOTH",
"2383 108 OFFCURVE",
"2511 180 OFFCURVE",
"2724 305 CURVE",
"2725 381 LINE",
"2369 221 OFFCURVE",
"2041 136 OFFCURVE",
"1741 126 CURVE SMOOTH",
"1724 125 OFFCURVE",
"1706 125 OFFCURVE",
"1689 125 CURVE SMOOTH",
"1328 125 OFFCURVE",
"1037 256 OFFCURVE",
"816 517 CURVE SMOOTH",
"599 774 OFFCURVE",
"490 1104 OFFCURVE",
"490 1505 CURVE SMOOTH",
"490 1847 OFFCURVE",
"586 2103 OFFCURVE",
"778 2274 CURVE SMOOTH",
"967 2443 OFFCURVE",
"1230 2527 OFFCURVE",
"1567 2527 CURVE SMOOTH",
"1816 2527 OFFCURVE",
"2023 2493 OFFCURVE",
"2188 2425 CURVE SMOOTH",
"2324 2368 OFFCURVE",
"2419 2306 OFFCURVE",
"2472 2237 CURVE SMOOTH",
"2523 2171 OFFCURVE",
"2549 2083 OFFCURVE",
"2549 1972 CURVE SMOOTH",
"2549 1943 OFFCURVE",
"2547 1912 OFFCURVE",
"2544 1877 CURVE",
"2599 1865 LINE",
"2598 1872 OFFCURVE",
"2598 1880 OFFCURVE",
"2598 1891 CURVE SMOOTH",
"2598 1982 OFFCURVE",
"2615 2098 OFFCURVE",
"2649 2237 CURVE SMOOTH",
"2688 2398 OFFCURVE",
"2729 2477 OFFCURVE",
"2772 2476 CURVE",
"2782 2504 LINE",
"2452 2626 OFFCURVE",
"2094 2687 OFFCURVE",
"1709 2687 CURVE SMOOTH",
"1668 2687 OFFCURVE",
"1627 2686 OFFCURVE",
"1586 2685 CURVE SMOOTH",
"1167 2672 OFFCURVE",
"825 2557 OFFCURVE",
"561 2339 CURVE SMOOTH",
"276 2103 OFFCURVE",
"133 1784 OFFCURVE",
"133 1382 CURVE SMOOTH",
"133 1309 OFFCURVE",
"138 1235 OFFCURVE",
"148 1158 CURVE SMOOTH",
"206 707 OFFCURVE",
"412 380 OFFCURVE",
"765 176 CURVE SMOOTH",
"1021 28 OFFCURVE",
"1329 -46 OFFCURVE",
"1690 -46 CURVE SMOOTH"
);
}
);
width = 2876;
}
);
leftKerningGroup = C;
note = C;
rightKerningGroup = C;
unicode = 0043;
},
{
glyphname = D;
lastChange = "2021-08-11 05:19:26 +0000";
layers = (
{
anchors = (
{
name = bottom;
position = "{1522, 0}";
},
{
name = center;
position = "{1522, 1341}";
},
{
name = top;
position = "{1522, 2681}";
}
);
layerId = "274E8830-0A80-4149-8BE8-CF3C4CCD3F6F";
paths = (
{
closed = 1;
nodes = (
"332 12 OFFCURVE",
"570 23 OFFCURVE",
"765 23 CURVE SMOOTH",
"886 23 OFFCURVE",
"991 18 OFFCURVE",
"1080 10 CURVE SMOOTH",
"1181 1 OFFCURVE",
"1276 -4 OFFCURVE",
"1367 -4 CURVE SMOOTH",
"1796 -4 OFFCURVE",
"2153 104 OFFCURVE",
"2440 319 CURVE SMOOTH",
"2557 407 OFFCURVE",
"2657 544 OFFCURVE",
"2738 731 CURVE SMOOTH",
"2825 932 OFFCURVE",
"2869 1141 OFFCURVE",
"2869 1358 CURVE SMOOTH",
"2869 1617 OFFCURVE",
"2806 1850 OFFCURVE",
"2679 2059 CURVE SMOOTH",
"2436 2459 OFFCURVE",
"1997 2659 OFFCURVE",
"1360 2659 CURVE SMOOTH",
"1233 2659 OFFCURVE",
"1073 2650 OFFCURVE",
"879 2631 CURVE SMOOTH",
"825 2626 OFFCURVE",
"765 2623 OFFCURVE",
"698 2623 CURVE SMOOTH",
"557 2623 OFFCURVE",
"387 2635 OFFCURVE",
"188 2657 CURVE",
"152 2570 LINE",
"201 2581 OFFCURVE",
"246 2586 OFFCURVE",
"287 2586 CURVE SMOOTH",
"367 2586 OFFCURVE",
"431 2566 OFFCURVE",
"481 2524 CURVE",
"536 2461 OFFCURVE",
"564 1987 OFFCURVE",
"564 1102 CURVE SMOOTH",
"564 639 OFFCURVE",
"552 358 OFFCURVE",
"527 257 CURVE SMOOTH",
"511 190 OFFCURVE",
"459 139 OFFCURVE",
"372 104 CURVE SMOOTH",
"305 77 OFFCURVE",
"231 64 OFFCURVE",
"151 64 CURVE SMOOTH",
"126 64 OFFCURVE",
"106 65 OFFCURVE",
"90 68 CURVE",
"52 -10 LINE"
);
},
{
closed = 1;
nodes = (
"1117 97 OFFCURVE",
"943 165 OFFCURVE",
"883 302 CURVE",
"866 693 OFFCURVE",
"856 1024 OFFCURVE",
"854 1295 CURVE SMOOTH",
"853 1407 OFFCURVE",
"852 1512 OFFCURVE",
"852 1609 CURVE SMOOTH",
"852 2114 OFFCURVE",
"872 2409 OFFCURVE",
"911 2490 CURVE",
"944 2530 OFFCURVE",
"1064 2550 OFFCURVE",
"1270 2550 CURVE SMOOTH",
"1351 2550 OFFCURVE",
"1436 2544 OFFCURVE",
"1525 2531 CURVE SMOOTH",
"1786 2494 OFFCURVE",
"2008 2375 OFFCURVE",
"2192 2174 CURVE SMOOTH",
"2392 1956 OFFCURVE",
"2495 1690 OFFCURVE",
"2501 1376 CURVE SMOOTH",
"2501 1357 OFFCURVE",
"2502 1339 OFFCURVE",
"2502 1321 CURVE SMOOTH",
"2502 887 OFFCURVE",
"2398 571 OFFCURVE",
"2193 371 CURVE SMOOTH",
"2051 234 OFFCURVE",
"1844 146 OFFCURVE",
"1572 108 CURVE SMOOTH",
"1518 101 OFFCURVE",
"1463 97 OFFCURVE",
"1406 97 CURVE SMOOTH"
);
}
);
width = 3044;
}
);
leftKerningGroup = D;
note = D;
rightKerningGroup = D;
unicode = 0044;
},
{
glyphname = Eth;
lastChange = "2021-08-11 05:19:26 +0000";
layers = (
{
layerId = "274E8830-0A80-4149-8BE8-CF3C4CCD3F6F";
paths = (
{
closed = 1;
nodes = (
"332 12 OFFCURVE",
"570 23 OFFCURVE",
"765 23 CURVE SMOOTH",
"886 23 OFFCURVE",
"991 18 OFFCURVE",
"1080 10 CURVE SMOOTH",
"1181 1 OFFCURVE",
"1276 -4 OFFCURVE",
"1367 -4 CURVE SMOOTH",
"1796 -4 OFFCURVE",
"2153 104 OFFCURVE",
"2440 319 CURVE SMOOTH",
"2557 407 OFFCURVE",
"2657 544 OFFCURVE",
"2738 731 CURVE SMOOTH",
"2825 932 OFFCURVE",
"2869 1141 OFFCURVE",
"2869 1358 CURVE SMOOTH",
"2869 1617 OFFCURVE",
"2806 1850 OFFCURVE",
"2679 2059 CURVE SMOOTH",
"2436 2459 OFFCURVE",
"1997 2659 OFFCURVE",
"1360 2659 CURVE SMOOTH",
"1233 2659 OFFCURVE",
"1073 2650 OFFCURVE",
"879 2631 CURVE SMOOTH",
"825 2626 OFFCURVE",
"765 2623 OFFCURVE",
"698 2623 CURVE SMOOTH",
"557 2623 OFFCURVE",
"387 2635 OFFCURVE",
"188 2657 CURVE",
"152 2570 LINE",
"201 2581 OFFCURVE",
"246 2586 OFFCURVE",
"287 2586 CURVE SMOOTH",
"367 2586 OFFCURVE",
"431 2566 OFFCURVE",
"481 2524 CURVE",
"536 2461 OFFCURVE",
"564 1987 OFFCURVE",
"564 1102 CURVE SMOOTH",
"564 639 OFFCURVE",
"552 358 OFFCURVE",
"527 257 CURVE SMOOTH",
"511 190 OFFCURVE",
"459 139 OFFCURVE",
"372 104 CURVE SMOOTH",
"305 77 OFFCURVE",
"231 64 OFFCURVE",
"151 64 CURVE SMOOTH",
"126 64 OFFCURVE",
"106 65 OFFCURVE",
"90 68 CURVE",
"52 -10 LINE"
);
},
{
closed = 1;
nodes = (
"1257 1156 OFFCURVE",
"1281 1185 OFFCURVE",
"1310 1246 CURVE SMOOTH",
"1337 1303 OFFCURVE",
"1351 1344 OFFCURVE",
"1351 1369 CURVE SMOOTH",
"1351 1374 OFFCURVE",
"1350 1377 OFFCURVE",
"1347 1378 CURVE",
"1332 1377 OFFCURVE",
"1247 1371 OFFCURVE",
"1092 1358 CURVE SMOOTH",
"967 1348 OFFCURVE",
"862 1342 OFFCURVE",
"779 1342 CURVE SMOOTH",
"565 1342 OFFCURVE",
"407 1357 OFFCURVE",
"306 1385 CURVE SMOOTH",
"288 1390 OFFCURVE",
"264 1361 OFFCURVE",
"235 1300 CURVE SMOOTH",
"208 1242 OFFCURVE",
"194 1201 OFFCURVE",
"194 1176 CURVE SMOOTH",
"194 1171 OFFCURVE",
"195 1169 OFFCURVE",
"198 1168 CURVE",
"416 1192 OFFCURVE",
"600 1204 OFFCURVE",
"749 1204 CURVE SMOOTH",
"973 1204 OFFCURVE",
"1136 1190 OFFCURVE",
"1239 1161 CURVE SMOOTH"
);
},
{
closed = 1;
nodes = (
"1117 97 OFFCURVE",
"943 165 OFFCURVE",
"883 302 CURVE",
"866 693 OFFCURVE",
"856 1024 OFFCURVE",
"854 1295 CURVE SMOOTH",
"853 1407 OFFCURVE",
"852 1512 OFFCURVE",
"852 1609 CURVE SMOOTH",
"852 2114 OFFCURVE",
"872 2409 OFFCURVE",
"911 2490 CURVE",
"944 2530 OFFCURVE",
"1064 2550 OFFCURVE",
"1270 2550 CURVE SMOOTH",
"1351 2550 OFFCURVE",
"1436 2544 OFFCURVE",
"1525 2531 CURVE SMOOTH",
"1786 2494 OFFCURVE",
"2008 2375 OFFCURVE",
"2192 2174 CURVE SMOOTH",
"2392 1956 OFFCURVE",
"2495 1690 OFFCURVE",
"2501 1376 CURVE SMOOTH",
"2501 1357 OFFCURVE",
"2502 1339 OFFCURVE",
"2502 1321 CURVE SMOOTH",
"2502 887 OFFCURVE",
"2398 571 OFFCURVE",
"2193 371 CURVE SMOOTH",
"2051 234 OFFCURVE",
"1844 146 OFFCURVE",
"1572 108 CURVE SMOOTH",
"1518 101 OFFCURVE",
"1463 97 OFFCURVE",
"1406 97 CURVE SMOOTH"
);
}
);
width = 3044;
}
);
note = Eth;
rightKerningGroup = D;
unicode = 00D0;
},
{
glyphname = Dcroat;
lastChange = "2021-08-11 05:19:26 +0000";
layers = (
{
layerId = "274E8830-0A80-4149-8BE8-CF3C4CCD3F6F";
paths = (
{
closed = 1;
nodes = (
"332 12 OFFCURVE",
"570 23 OFFCURVE",
"765 23 CURVE SMOOTH",
"886 23 OFFCURVE",
"991 18 OFFCURVE",
"1080 10 CURVE SMOOTH",
"1181 1 OFFCURVE",
"1276 -4 OFFCURVE",
"1367 -4 CURVE SMOOTH",
"1796 -4 OFFCURVE",
"2153 104 OFFCURVE",
"2440 319 CURVE SMOOTH",
"2557 407 OFFCURVE",
"2657 544 OFFCURVE",
"2738 731 CURVE SMOOTH",
"2825 932 OFFCURVE",
"2869 1141 OFFCURVE",
"2869 1358 CURVE SMOOTH",
"2869 1617 OFFCURVE",
"2806 1850 OFFCURVE",
"2679 2059 CURVE SMOOTH",
"2436 2459 OFFCURVE",
"1997 2659 OFFCURVE",
"1360 2659 CURVE SMOOTH",
"1233 2659 OFFCURVE",
"1073 2650 OFFCURVE",
"879 2631 CURVE SMOOTH",
"825 2626 OFFCURVE",
"765 2623 OFFCURVE",
"698 2623 CURVE SMOOTH",
"557 2623 OFFCURVE",
"387 2635 OFFCURVE",
"188 2657 CURVE",
"152 2570 LINE",
"201 2581 OFFCURVE",
"246 2586 OFFCURVE",
"287 2586 CURVE SMOOTH",
"367 2586 OFFCURVE",
"431 2566 OFFCURVE",
"481 2524 CURVE",
"536 2461 OFFCURVE",
"564 1987 OFFCURVE",
"564 1102 CURVE SMOOTH",
"564 639 OFFCURVE",
"552 358 OFFCURVE",
"527 257 CURVE SMOOTH",
"511 190 OFFCURVE",
"459 139 OFFCURVE",
"372 104 CURVE SMOOTH",
"305 77 OFFCURVE",
"231 64 OFFCURVE",
"151 64 CURVE SMOOTH",
"126 64 OFFCURVE",
"106 65 OFFCURVE",
"90 68 CURVE",
"52 -10 LINE"
);
},
{
closed = 1;
nodes = (
"1257 1156 OFFCURVE",
"1281 1185 OFFCURVE",
"1310 1246 CURVE SMOOTH",
"1337 1303 OFFCURVE",
"1351 1344 OFFCURVE",
"1351 1369 CURVE SMOOTH",
"1351 1374 OFFCURVE",
"1350 1377 OFFCURVE",
"1347 1378 CURVE",
"1332 1377 OFFCURVE",
"1247 1371 OFFCURVE",
"1092 1358 CURVE SMOOTH",
"967 1348 OFFCURVE",
"862 1342 OFFCURVE",
"779 1342 CURVE SMOOTH",
"565 1342 OFFCURVE",
"407 1357 OFFCURVE",
"306 1385 CURVE SMOOTH",
"288 1390 OFFCURVE",
"264 1361 OFFCURVE",
"235 1300 CURVE SMOOTH",
"208 1242 OFFCURVE",
"194 1201 OFFCURVE",
"194 1176 CURVE SMOOTH",
"194 1171 OFFCURVE",
"195 1169 OFFCURVE",
"198 1168 CURVE",
"416 1192 OFFCURVE",
"600 1204 OFFCURVE",
"749 1204 CURVE SMOOTH",
"973 1204 OFFCURVE",
"1136 1190 OFFCURVE",
"1239 1161 CURVE SMOOTH"
);
},
{
closed = 1;
nodes = (
"1117 97 OFFCURVE",
"943 165 OFFCURVE",
"883 302 CURVE",
"866 693 OFFCURVE",
"856 1024 OFFCURVE",
"854 1295 CURVE SMOOTH",
"853 1407 OFFCURVE",
"852 1512 OFFCURVE",
"852 1609 CURVE SMOOTH",
"852 2114 OFFCURVE",
"872 2409 OFFCURVE",
"911 2490 CURVE",
"944 2530 OFFCURVE",
"1064 2550 OFFCURVE",
"1270 2550 CURVE SMOOTH",
"1351 2550 OFFCURVE",
"1436 2544 OFFCURVE",
"1525 2531 CURVE SMOOTH",
"1786 2494 OFFCURVE",
"2008 2375 OFFCURVE",
"2192 2174 CURVE SMOOTH",
"2392 1956 OFFCURVE",
"2495 1690 OFFCURVE",
"2501 1376 CURVE SMOOTH",
"2501 1357 OFFCURVE",
"2502 1339 OFFCURVE",
"2502 1321 CURVE SMOOTH",
"2502 887 OFFCURVE",
"2398 571 OFFCURVE",
"2193 371 CURVE SMOOTH",
"2051 234 OFFCURVE",
"1844 146 OFFCURVE",
"1572 108 CURVE SMOOTH",
"1518 101 OFFCURVE",
"1463 97 OFFCURVE",
"1406 97 CURVE SMOOTH"
);
}
);
width = 3044;
}
);
note = Dcroat;
rightKerningGroup = D;
unicode = 0110;
},
{
glyphname = E;
lastChange = "2021-08-11 05:19:26 +0000";
layers = (
{
anchors = (
{
name = bottom;
position = "{1142, 39}";
},
{
name = ogonek;
position = "{2099, 0}";
},
{
name = top;
position = "{1187, 2681}";
},
{
name = topleft;
position = "{20, 2681}";
}
);
layerId = "274E8830-0A80-4149-8BE8-CF3C4CCD3F6F";
paths = (
{
closed = 1;
nodes = (
"2000 -26 OFFCURVE",
"2047 -11 OFFCURVE",
"2076 18 CURVE SMOOTH",
"2101 44 OFFCURVE",
"2119 94 OFFCURVE",
"2130 170 CURVE SMOOTH",
"2151 309 OFFCURVE",
"2185 437 OFFCURVE",
"2236 552 CURVE",
"2181 570 LINE",
"2174 526 OFFCURVE",
"2146 461 OFFCURVE",
"2098 379 CURVE SMOOTH",
"2045 293 OFFCURVE",
"1997 235 OFFCURVE",
"1953 204 CURVE SMOOTH",
"1864 141 OFFCURVE",
"1686 108 OFFCURVE",
"1418 108 CURVE SMOOTH",
"1349 108 OFFCURVE",
"1284 112 OFFCURVE",
"1223 119 CURVE SMOOTH",
"1086 137 OFFCURVE",
"1002 151 OFFCURVE",
"971 163 CURVE SMOOTH",
"930 180 OFFCURVE",
"905 213 OFFCURVE",
"895 264 CURVE SMOOTH",
"868 406 OFFCURVE",
"852 761 OFFCURVE",
"850 1333 CURVE",
"892 1335 OFFCURVE",
"943 1337 OFFCURVE",
"1001 1337 CURVE SMOOTH",
"1107 1337 OFFCURVE",
"1239 1333 OFFCURVE",
"1399 1325 CURVE SMOOTH",
"1564 1318 OFFCURVE",
"1644 1257 OFFCURVE",
"1643 1146 CURVE",
"1633 1100 OFFCURVE",
"1626 1071 OFFCURVE",
"1622 1059 CURVE",
"1702 1078 LINE",
"1699 1132 OFFCURVE",
"1698 1165 OFFCURVE",
"1698 1175 CURVE SMOOTH",
"1698 1204 OFFCURVE",
"1705 1246 OFFCURVE",
"1717 1302 CURVE SMOOTH",
"1731 1361 OFFCURVE",
"1738 1397 OFFCURVE",
"1738 1415 CURVE SMOOTH",
"1738 1445 OFFCURVE",
"1726 1464 OFFCURVE",
"1698 1464 CURVE SMOOTH",
"850 1455 LINE",
"850 2000 OFFCURVE",
"870 2347 OFFCURVE",
"909 2493 CURVE",
"974 2502 OFFCURVE",
"1079 2508 OFFCURVE",
"1226 2509 CURVE SMOOTH",
"1287 2509 LINE SMOOTH",
"1399 2509 OFFCURVE",
"1484 2505 OFFCURVE",
"1539 2498 CURVE SMOOTH",
"1697 2479 OFFCURVE",
"1776 2426 OFFCURVE",
"1776 2343 CURVE SMOOTH",
"1776 2313 OFFCURVE",
"1755 2237 OFFCURVE",
"1713 2118 CURVE",
"1791 2100 LINE",
"1834 2335 LINE SMOOTH",
"1837 2351 OFFCURVE",
"1848 2396 OFFCURVE",
"1867 2468 CURVE SMOOTH",
"1882 2526 OFFCURVE",
"1890 2569 OFFCURVE",
"1890 2595 CURVE SMOOTH",
"1890 2634 OFFCURVE",
"1877 2653 OFFCURVE",
"1849 2656 CURVE",
"1450 2653 OFFCURVE",
"1071 2649 OFFCURVE",
"710 2645 CURVE SMOOTH",
"486 2648 OFFCURVE",
"306 2660 OFFCURVE",
"171 2681 CURVE",
"134 2602 LINE",
"166 2605 OFFCURVE",
"196 2606 OFFCURVE",
"224 2606 CURVE SMOOTH",
"339 2606 OFFCURVE",
"422 2581 OFFCURVE",
"473 2530 CURVE SMOOTH",
"519 2483 OFFCURVE",
"548 2256 OFFCURVE",
"558 1848 CURVE SMOOTH",
"559 1801 OFFCURVE",
"559 1553 OFFCURVE",
"559 1103 CURVE SMOOTH",
"559 649 OFFCURVE",
"547 370 OFFCURVE",
"522 264 CURVE SMOOTH",
"504 195 OFFCURVE",
"452 144 OFFCURVE",
"362 108 CURVE SMOOTH",
"293 79 OFFCURVE",
"219 65 OFFCURVE",
"137 65 CURVE SMOOTH",
"112 65 OFFCURVE",
"91 68 OFFCURVE",
"75 71 CURVE",
"41 -10 LINE",
"375 14 OFFCURVE",
"573 29 OFFCURVE",
"638 32 CURVE SMOOTH",
"704 36 OFFCURVE",
"780 39 OFFCURVE",
"863 39 CURVE SMOOTH",
"940 39 OFFCURVE",
"1277 18 OFFCURVE",
"1877 -25 CURVE SMOOTH",
"1897 -26 OFFCURVE",
"1915 -26 OFFCURVE",
"1931 -26 CURVE SMOOTH"
);
}
);
width = 2373;
}
);
leftKerningGroup = E;
note = E;
rightKerningGroup = E;
unicode = 0045;
},
{
glyphname = F;
lastChange = "2021-08-11 05:19:26 +0000";
layers = (
{
layerId = "274E8830-0A80-4149-8BE8-CF3C4CCD3F6F";
paths = (
{
closed = 1;
nodes = (
"368 15 OFFCURVE",
"587 28 OFFCURVE",
"694 29 CURVE SMOOTH",
"754 29 LINE SMOOTH",
"1029 29 OFFCURVE",
"1214 16 OFFCURVE",
"1308 -10 CURVE",
"1353 78 LINE",
"1331 76 OFFCURVE",
"1309 75 OFFCURVE",
"1287 75 CURVE SMOOTH",
"1221 75 OFFCURVE",
"1154 85 OFFCURVE",
"1086 105 CURVE SMOOTH",
"975 139 OFFCURVE",
"912 192 OFFCURVE",
"899 264 CURVE SMOOTH",
"878 383 OFFCURVE",
"864 528 OFFCURVE",
"859 698 CURVE SMOOTH",
"853 1135 LINE",
"849 1330 LINE",
"891 1332 OFFCURVE",
"942 1334 OFFCURVE",
"1001 1334 CURVE SMOOTH",
"1107 1334 OFFCURVE",
"1239 1330 OFFCURVE",
"1398 1322 CURVE SMOOTH",
"1573 1313 OFFCURVE",
"1661 1261 OFFCURVE",
"1661 1166 CURVE SMOOTH",
"1661 1147 OFFCURVE",
"1654 1121 OFFCURVE",
"1641 1087 CURVE",
"1720 1076 LINE",
"1718 1130 OFFCURVE",
"1717 1162 OFFCURVE",
"1717 1173 CURVE SMOOTH",
"1716 1201 OFFCURVE",
"1723 1243 OFFCURVE",
"1736 1300 CURVE SMOOTH",
"1750 1357 OFFCURVE",
"1757 1394 OFFCURVE",
"1757 1411 CURVE SMOOTH",
"1757 1442 OFFCURVE",
"1744 1459 OFFCURVE",
"1717 1461 CURVE",
"849 1451 LINE",
"850 1996 OFFCURVE",
"870 2342 OFFCURVE",
"909 2487 CURVE",
"974 2497 OFFCURVE",
"1117 2503 OFFCURVE",
"1338 2506 CURVE SMOOTH",
"1381 2506 OFFCURVE",
"1422 2507 OFFCURVE",
"1459 2507 CURVE SMOOTH",
"1608 2507 OFFCURVE",
"1708 2503 OFFCURVE",
"1760 2497 CURVE SMOOTH",
"1901 2480 OFFCURVE",
"1972 2429 OFFCURVE",
"1972 2345 CURVE SMOOTH",
"1972 2340 OFFCURVE",
"1972 2335 OFFCURVE",
"1971 2330 CURVE SMOOTH",
"1964 2279 OFFCURVE",
"1945 2209 OFFCURVE",
"1912 2118 CURVE",
"1991 2099 LINE",
"2033 2336 LINE SMOOTH",
"2036 2355 OFFCURVE",
"2049 2400 OFFCURVE",
"2071 2472 CURVE SMOOTH",
"2089 2533 OFFCURVE",
"2098 2576 OFFCURVE",
"2098 2601 CURVE SMOOTH",
"2098 2635 OFFCURVE",
"2085 2653 OFFCURVE",
"2059 2654 CURVE SMOOTH",
"1590 2651 OFFCURVE",
"1141 2646 OFFCURVE",
"710 2639 CURVE",
"539 2642 OFFCURVE",
"360 2654 OFFCURVE",
"173 2675 CURVE",
"136 2596 LINE",
"155 2600 OFFCURVE",
"177 2602 OFFCURVE",
"201 2602 CURVE SMOOTH",
"229 2602 OFFCURVE",
"261 2600 OFFCURVE",
"296 2595 CURVE SMOOTH",
"376 2584 OFFCURVE",
"436 2562 OFFCURVE",
"475 2529 CURVE",
"535 2460 OFFCURVE",
"564 2121 OFFCURVE",
"564 1510 CURVE SMOOTH",
"564 1418 LINE",
"561 962 LINE SMOOTH",
"559 618 OFFCURVE",
"543 385 OFFCURVE",
"514 264 CURVE SMOOTH",
"497 195 OFFCURVE",
"446 143 OFFCURVE",
"359 107 CURVE SMOOTH",
"292 79 OFFCURVE",
"218 65 OFFCURVE",
"138 65 CURVE SMOOTH",
"113 65 OFFCURVE",
"93 67 OFFCURVE",
"76 70 CURVE",
"35 -10 LINE"
);
}
);
width = 2235;
}
);
leftKerningGroup = D;
note = F;
unicode = 0046;
},
{
glyphname = G;
lastChange = "2021-08-11 05:19:26 +0000";
layers = (
{
anchors = (
{
name = bottom;
position = "{1671, 35}";
},
{
name = top;
position = "{1803, 2673}";
}
);
layerId = "274E8830-0A80-4149-8BE8-CF3C4CCD3F6F";
paths = (
{
closed = 1;
nodes = (
"1920 -7 OFFCURVE",
"2110 7 OFFCURVE",
"2315 35 CURVE SMOOTH",
"2521 64 OFFCURVE",
"2654 78 OFFCURVE",
"2713 78 CURVE SMOOTH",
"2750 78 OFFCURVE",
"2785 76 OFFCURVE",
"2818 72 CURVE",
"2828 95 LINE",
"2801 174 OFFCURVE",
"2785 326 OFFCURVE",
"2781 551 CURVE SMOOTH",
"2780 602 OFFCURVE",
"2779 650 OFFCURVE",
"2779 695 CURVE SMOOTH",
"2779 830 OFFCURVE",
"2785 938 OFFCURVE",
"2796 1017 CURVE SMOOTH",
"2815 1148 OFFCURVE",
"2894 1212 OFFCURVE",
"3034 1207 CURVE",
"3049 1284 LINE",
"2928 1243 OFFCURVE",
"2767 1220 OFFCURVE",
"2566 1213 CURVE SMOOTH",
"2528 1212 OFFCURVE",
"2491 1211 OFFCURVE",
"2455 1211 CURVE SMOOTH",
"2297 1211 OFFCURVE",
"2158 1223 OFFCURVE",
"2037 1247 CURVE",
"2022 1163 LINE",
"2053 1166 OFFCURVE",
"2084 1167 OFFCURVE",
"2114 1167 CURVE SMOOTH",
"2214 1167 OFFCURVE",
"2307 1153 OFFCURVE",
"2396 1125 CURVE SMOOTH",
"2459 1104 OFFCURVE",
"2491 953 OFFCURVE",
"2491 671 CURVE SMOOTH",
"2491 454 OFFCURVE",
"2480 289 OFFCURVE",
"2457 176 CURVE",
"2282 139 OFFCURVE",
"2112 121 OFFCURVE",
"1947 121 CURVE SMOOTH",
"1680 121 OFFCURVE",
"1448 169 OFFCURVE",
"1251 264 CURVE SMOOTH",
"1025 374 OFFCURVE",
"852 543 OFFCURVE",
"733 772 CURVE SMOOTH",
"628 974 OFFCURVE",
"575 1198 OFFCURVE",
"575 1444 CURVE SMOOTH",
"575 1815 OFFCURVE",
"674 2088 OFFCURVE",
"871 2264 CURVE SMOOTH",
"1059 2431 OFFCURVE",
"1320 2515 OFFCURVE",
"1653 2515 CURVE SMOOTH",
"1900 2515 OFFCURVE",
"2105 2481 OFFCURVE",
"2268 2413 CURVE SMOOTH",
"2402 2358 OFFCURVE",
"2496 2296 OFFCURVE",
"2549 2228 CURVE SMOOTH",
"2600 2163 OFFCURVE",
"2625 2075 OFFCURVE",
"2625 1965 CURVE SMOOTH",
"2625 1936 OFFCURVE",
"2623 1905 OFFCURVE",
"2620 1871 CURVE",
"2674 1859 LINE",
"2673 1866 OFFCURVE",
"2673 1874 OFFCURVE",
"2673 1885 CURVE SMOOTH",
"2673 1975 OFFCURVE",
"2690 2089 OFFCURVE",
"2724 2228 CURVE SMOOTH",
"2763 2387 OFFCURVE",
"2803 2465 OFFCURVE",
"2846 2464 CURVE",
"2856 2492 LINE",
"2529 2613 OFFCURVE",
"2174 2673 OFFCURVE",
"1793 2673 CURVE SMOOTH",
"1753 2673 OFFCURVE",
"1712 2672 OFFCURVE",
"1671 2671 CURVE SMOOTH",
"1256 2658 OFFCURVE",
"918 2544 OFFCURVE",
"657 2328 CURVE SMOOTH",
"374 2095 OFFCURVE",
"233 1779 OFFCURVE",
"233 1381 CURVE SMOOTH",
"233 1309 OFFCURVE",
"238 1235 OFFCURVE",
"248 1159 CURVE SMOOTH",
"305 714 OFFCURVE",
"503 394 OFFCURVE",
"844 200 CURVE SMOOTH",
"1086 62 OFFCURVE",
"1387 -7 OFFCURVE",
"1746 -7 CURVE SMOOTH"
);
}
);
width = 3284;
}
);
note = G;
unicode = 0047;
},
{
glyphname = H;
lastChange = "2021-08-11 05:19:26 +0000";
layers = (
{
anchors = (
{
name = bottom;
position = "{1747, 0}";
},
{
name = center;
position = "{1747, 1341}";
},
{
name = top;
position = "{1747, 2681}";
},
{
name = topleft;
position = "{20, 2681}";
}
);
layerId = "274E8830-0A80-4149-8BE8-CF3C4CCD3F6F";
paths = (
{
closed = 1;
nodes = (
"497 17 OFFCURVE",
"714 32 OFFCURVE",
"763 34 CURVE",
"1104 24 OFFCURVE",
"1309 9 OFFCURVE",
"1378 -10 CURVE",
"1423 78 LINE",
"1397 75 OFFCURVE",
"1370 74 OFFCURVE",
"1344 74 CURVE SMOOTH",
"1281 74 OFFCURVE",
"1220 82 OFFCURVE",
"1159 99 CURVE SMOOTH",
"1049 130 OFFCURVE",
"988 181 OFFCURVE",
"975 254 CURVE SMOOTH",
"954 374 OFFCURVE",
"939 660 OFFCURVE",
"930 1111 CURVE SMOOTH",
"927 1300 LINE",
"1234 1313 OFFCURVE",
"1436 1320 OFFCURVE",
"1533 1320 CURVE SMOOTH",
"2662 1320 LINE",
"2662 1305 OFFCURVE",
"2662 1264 OFFCURVE",
"2661 1196 CURVE SMOOTH",
"2661 1114 LINE SMOOTH",
"2661 673 OFFCURVE",
"2645 387 OFFCURVE",
"2613 254 CURVE SMOOTH",
"2582 128 OFFCURVE",
"2460 65 OFFCURVE",
"2245 65 CURVE SMOOTH",
"2216 65 OFFCURVE",
"2192 67 OFFCURVE",
"2173 70 CURVE",
"2134 -10 LINE",
"2519 17 OFFCURVE",
"2737 32 OFFCURVE",
"2786 34 CURVE",
"3127 24 OFFCURVE",
"3332 9 OFFCURVE",
"3401 -10 CURVE",
"3446 78 LINE",
"3420 75 OFFCURVE",
"3393 74 OFFCURVE",
"3367 74 CURVE SMOOTH",
"3304 74 OFFCURVE",
"3243 82 OFFCURVE",
"3182 99 CURVE SMOOTH",
"3072 130 OFFCURVE",
"3011 181 OFFCURVE",
"2998 254 CURVE SMOOTH",
"2977 374 OFFCURVE",
"2962 660 OFFCURVE",
"2953 1111 CURVE SMOOTH",
"2951 1219 OFFCURVE",
"2950 1323 OFFCURVE",
"2950 1425 CURVE SMOOTH",
"2950 1639 OFFCURVE",
"2955 1840 OFFCURVE",
"2964 2030 CURVE SMOOTH",
"2977 2304 OFFCURVE",
"2996 2465 OFFCURVE",
"3019 2514 CURVE",
"3074 2580 OFFCURVE",
"3153 2612 OFFCURVE",
"3258 2612 CURVE SMOOTH",
"3280 2612 OFFCURVE",
"3302 2611 OFFCURVE",
"3326 2608 CURVE",
"3382 2681 LINE",
"3211 2662 OFFCURVE",
"3020 2648 OFFCURVE",
"2811 2639 CURVE",
"2540 2653 OFFCURVE",
"2361 2665 OFFCURVE",
"2274 2675 CURVE",
"2237 2596 LINE",
"2287 2607 OFFCURVE",
"2333 2613 OFFCURVE",
"2375 2613 CURVE SMOOTH",
"2458 2613 OFFCURVE",
"2524 2591 OFFCURVE",
"2575 2549 CURVE",
"2633 2483 OFFCURVE",
"2662 2121 OFFCURVE",
"2662 1464 CURVE",
"2595 1463 OFFCURVE",
"2410 1456 OFFCURVE",
"2107 1444 CURVE SMOOTH",
"1837 1434 OFFCURVE",
"1646 1429 OFFCURVE",
"1533 1429 CURVE SMOOTH",
"1469 1429 OFFCURVE",
"1365 1435 OFFCURVE",
"1220 1446 CURVE SMOOTH",
"1052 1459 OFFCURVE",
"954 1466 OFFCURVE",
"927 1467 CURVE",
"928 2072 OFFCURVE",
"951 2421 OFFCURVE",
"996 2514 CURVE",
"1051 2580 OFFCURVE",
"1130 2612 OFFCURVE",
"1235 2612 CURVE SMOOTH",
"1257 2612 OFFCURVE",
"1279 2611 OFFCURVE",
"1303 2608 CURVE",
"1359 2681 LINE",
"1188 2662 OFFCURVE",
"997 2648 OFFCURVE",
"788 2639 CURVE",
"517 2653 OFFCURVE",
"338 2665 OFFCURVE",
"251 2675 CURVE",
"214 2596 LINE",
"264 2607 OFFCURVE",
"311 2613 OFFCURVE",
"353 2613 CURVE SMOOTH",
"435 2613 OFFCURVE",
"502 2591 OFFCURVE",
"553 2549 CURVE",
"610 2484 OFFCURVE",
"638 2005 OFFCURVE",
"638 1114 CURVE SMOOTH",
"638 663 OFFCURVE",
"624 380 OFFCURVE",
"596 264 CURVE SMOOTH",
"579 195 OFFCURVE",
"526 143 OFFCURVE",
"436 107 CURVE SMOOTH",
"367 79 OFFCURVE",
"291 65 OFFCURVE",
"209 65 CURVE SMOOTH",
"184 65 OFFCURVE",
"163 67 OFFCURVE",
"146 70 CURVE",
"111 -10 LINE"
);
}
);
width = 3493;
}
);
leftKerningGroup = H;
note = H;
unicode = 0048;
},
{
glyphname = I;
lastChange = "2021-08-11 05:19:26 +0000";
layers = (
{
anchors = (
{
name = bottom;
position = "{851, 0}";
},
{
name = ogonek;
position = "{1532, 10}";
},
{
name = top;
position = "{851, 2681}";
},
{
name = topleft;
position = "{20, 2681}";
}
);
layerId = "274E8830-0A80-4149-8BE8-CF3C4CCD3F6F";
paths = (
{
closed = 1;
nodes = (
"579 17 OFFCURVE",
"797 32 OFFCURVE",
"846 34 CURVE",
"1186 24 OFFCURVE",
"1391 9 OFFCURVE",
"1461 -10 CURVE",
"1505 78 LINE",
"1479 75 OFFCURVE",
"1453 74 OFFCURVE",
"1427 74 CURVE SMOOTH",
"1364 74 OFFCURVE",
"1303 82 OFFCURVE",
"1242 99 CURVE SMOOTH",
"1132 130 OFFCURVE",
"1071 181 OFFCURVE",
"1058 254 CURVE SMOOTH",
"1037 373 OFFCURVE",
"1022 665 OFFCURVE",
"1013 1131 CURVE SMOOTH",
"1010 1292 OFFCURVE",
"1008 1439 OFFCURVE",
"1008 1572 CURVE SMOOTH",
"1008 2096 OFFCURVE",
"1032 2407 OFFCURVE",
"1079 2504 CURVE",
"1134 2570 OFFCURVE",
"1213 2602 OFFCURVE",
"1318 2602 CURVE SMOOTH",
"1339 2602 OFFCURVE",
"1362 2601 OFFCURVE",
"1385 2598 CURVE",
"1442 2681 LINE",
"1271 2662 OFFCURVE",
"1080 2648 OFFCURVE",
"871 2639 CURVE",
"600 2653 OFFCURVE",
"421 2665 OFFCURVE",
"334 2675 CURVE",
"297 2586 LINE",
"347 2597 OFFCURVE",
"393 2603 OFFCURVE",
"435 2603 CURVE SMOOTH",
"518 2603 OFFCURVE",
"584 2581 OFFCURVE",
"635 2539 CURVE",
"692 2474 OFFCURVE",
"721 2006 OFFCURVE",
"721 1135 CURVE SMOOTH",
"721 680 OFFCURVE",
"705 387 OFFCURVE",
"673 254 CURVE SMOOTH",
"642 128 OFFCURVE",
"520 65 OFFCURVE",
"305 65 CURVE SMOOTH",
"276 65 OFFCURVE",
"252 67 OFFCURVE",
"232 70 CURVE",
"194 -10 LINE"
);
}
);
width = 1702;
}
);
leftKerningGroup = D;
note = I;
rightKerningGroup = I;
unicode = 0049;
},
{
glyphname = J;
lastChange = "2021-08-11 05:19:26 +0000";
layers = (
{
anchors = (
{
name = bottom;
position = "{660, 0}";
},
{
name = top;
position = "{1071, 2639}";
}
);
layerId = "274E8830-0A80-4149-8BE8-CF3C4CCD3F6F";
paths = (
{
closed = 1;
nodes = (
"863 -65 OFFCURVE",
"1008 -9 OFFCURVE",
"1096 103 CURVE SMOOTH",
"1181 212 OFFCURVE",
"1228 395 OFFCURVE",
"1238 654 CURVE SMOOTH",
"1239 675 OFFCURVE",
"1239 700 OFFCURVE",
"1239 729 CURVE SMOOTH",
"1239 796 OFFCURVE",
"1235 964 OFFCURVE",
"1226 1235 CURVE SMOOTH",
"1217 1506 OFFCURVE",
"1213 1716 OFFCURVE",
"1213 1865 CURVE SMOOTH",
"1213 2226 OFFCURVE",
"1235 2443 OFFCURVE",
"1278 2514 CURVE",
"1334 2580 OFFCURVE",
"1413 2612 OFFCURVE",
"1518 2612 CURVE SMOOTH",
"1539 2612 OFFCURVE",
"1562 2611 OFFCURVE",
"1585 2608 CURVE",
"1642 2681 LINE",
"1471 2662 OFFCURVE",
"1280 2648 OFFCURVE",
"1071 2639 CURVE",
"800 2653 OFFCURVE",
"621 2665 OFFCURVE",
"534 2675 CURVE",
"496 2596 LINE",
"546 2607 OFFCURVE",
"593 2613 OFFCURVE",
"635 2613 CURVE SMOOTH",
"717 2613 OFFCURVE",
"784 2591 OFFCURVE",
"835 2549 CURVE",
"892 2484 OFFCURVE",
"921 2012 OFFCURVE",
"921 1135 CURVE SMOOTH",
"921 852 OFFCURVE",
"919 669 OFFCURVE",
"916 588 CURVE SMOOTH",
"901 222 OFFCURVE",
"769 40 OFFCURVE",
"522 40 CURVE SMOOTH",
"379 40 OFFCURVE",
"291 115 OFFCURVE",
"258 266 CURVE SMOOTH",
"245 324 OFFCURVE",
"239 384 OFFCURVE",
"239 447 CURVE SMOOTH",
"239 495 OFFCURVE",
"243 545 OFFCURVE",
"250 597 CURVE",
"196 613 LINE",
"165 246 OFFCURVE",
"124 64 OFFCURVE",
"73 66 CURVE",
"67 49 LINE",
"204 -2 OFFCURVE",
"323 -34 OFFCURVE",
"424 -47 CURVE SMOOTH",
"512 -59 OFFCURVE",
"591 -65 OFFCURVE",
"660 -65 CURVE SMOOTH"
);
}
);
width = 1617;
}
);
note = J;
unicode = 004A;
},
{
glyphname = K;
lastChange = "2021-08-11 05:19:26 +0000";
layers = (
{
anchors = (
{
name = bottom;
position = "{1863, 0}";
},
{
name = top;
position = "{1592, 2681}";
}
);
layerId = "274E8830-0A80-4149-8BE8-CF3C4CCD3F6F";
paths = (
{
closed = 1;
nodes = (
"2826 -18 OFFCURVE",
"2972 0 OFFCURVE",
"3152 35 CURVE",
"3188 115 LINE",
"3169 113 OFFCURVE",
"3150 112 OFFCURVE",
"3131 112 CURVE SMOOTH",
"2972 112 OFFCURVE",
"2793 179 OFFCURVE",
"2594 314 CURVE SMOOTH",
"2356 475 OFFCURVE",
"2139 670 OFFCURVE",
"1943 897 CURVE SMOOTH",
"1622 1268 OFFCURVE",
"1450 1465 OFFCURVE",
"1426 1487 CURVE",
"1998 2072 OFFCURVE",
"2380 2416 OFFCURVE",
"2572 2521 CURVE SMOOTH",
"2668 2574 OFFCURVE",
"2755 2600 OFFCURVE",
"2834 2600 CURVE",
"2872 2657 LINE",
"2658 2638 OFFCURVE",
"2470 2624 OFFCURVE",
"2309 2616 CURVE",
"2024 2634 OFFCURVE",
"1859 2647 OFFCURVE",
"1814 2656 CURVE",
"1761 2586 LINE",
"1792 2591 OFFCURVE",
"1826 2594 OFFCURVE",
"1863 2594 CURVE SMOOTH",
"2022 2594 OFFCURVE",
"2106 2545 OFFCURVE",
"2114 2448 CURVE SMOOTH",
"2122 2353 OFFCURVE",
"1806 2002 OFFCURVE",
"1167 1393 CURVE",
"1332 1196 OFFCURVE",
"1476 1022 OFFCURVE",
"1599 869 CURVE SMOOTH",
"2065 291 LINE SMOOTH",
"2231 85 OFFCURVE",
"2448 -18 OFFCURVE",
"2713 -18 CURVE SMOOTH"
);
},
{
closed = 1;
nodes = (
"579 17 OFFCURVE",
"797 32 OFFCURVE",
"846 34 CURVE",
"1186 24 OFFCURVE",
"1391 9 OFFCURVE",
"1461 -10 CURVE",
"1505 78 LINE",
"1479 75 OFFCURVE",
"1453 74 OFFCURVE",
"1427 74 CURVE SMOOTH",
"1364 74 OFFCURVE",
"1303 82 OFFCURVE",
"1242 99 CURVE SMOOTH",
"1132 130 OFFCURVE",
"1071 181 OFFCURVE",
"1058 254 CURVE SMOOTH",
"1031 405 OFFCURVE",
"1015 671 OFFCURVE",
"1013 1050 CURVE SMOOTH",
"1010 1513 LINE",
"1010 1635 LINE SMOOTH",
"1010 2126 OFFCURVE",
"1033 2419 OFFCURVE",
"1079 2514 CURVE",
"1134 2580 OFFCURVE",
"1213 2612 OFFCURVE",
"1318 2612 CURVE SMOOTH",
"1339 2612 OFFCURVE",
"1362 2611 OFFCURVE",
"1385 2608 CURVE",
"1442 2681 LINE",
"1271 2662 OFFCURVE",
"1080 2648 OFFCURVE",
"871 2639 CURVE",
"600 2653 OFFCURVE",
"421 2665 OFFCURVE",
"334 2675 CURVE",
"297 2596 LINE",
"347 2607 OFFCURVE",
"393 2613 OFFCURVE",
"435 2613 CURVE SMOOTH",
"518 2613 OFFCURVE",
"584 2591 OFFCURVE",
"635 2549 CURVE",
"692 2484 OFFCURVE",
"719 2159 OFFCURVE",
"720 1573 CURVE SMOOTH",
"721 1135 LINE",
"721 1098 LINE SMOOTH",
"721 668 OFFCURVE",
"704 390 OFFCURVE",
"674 264 CURVE SMOOTH",
"657 195 OFFCURVE",
"605 143 OFFCURVE",
"516 107 CURVE SMOOTH",
"447 79 OFFCURVE",
"371 65 OFFCURVE",
"290 65 CURVE SMOOTH",
"265 65 OFFCURVE",
"244 67 OFFCURVE",
"227 70 CURVE",
"194 -10 LINE"
);
}
);
width = 3183;
}
);
leftKerningGroup = H;
note = K;
unicode = 004B;
},
{
glyphname = L;
lastChange = "2021-08-11 05:19:26 +0000";
layers = (
{
anchors = (
{
name = bottom;
position = "{1400, 0}";
},
{
name = center;
position = "{1151, 1341}";
},
{
name = top;
position = "{710, 2639}";
},
{
name = topright;
position = "{1485, 2747}";
}
);
layerId = "274E8830-0A80-4149-8BE8-CF3C4CCD3F6F";
paths = (
{
closed = 1;
nodes = (
"2009 -28 OFFCURVE",
"2052 -16 OFFCURVE",
"2075 8 CURVE SMOOTH",
"2099 32 OFFCURVE",
"2116 79 OFFCURVE",
"2127 148 CURVE SMOOTH",
"2150 306 OFFCURVE",
"2186 440 OFFCURVE",
"2234 549 CURVE",
"2179 568 LINE",
"2172 523 OFFCURVE",
"2144 459 OFFCURVE",
"2093 377 CURVE SMOOTH",
"2041 290 OFFCURVE",
"1993 231 OFFCURVE",
"1948 200 CURVE SMOOTH",
"1862 139 OFFCURVE",
"1688 109 OFFCURVE",
"1426 109 CURVE SMOOTH",
"1355 109 OFFCURVE",
"1288 113 OFFCURVE",
"1224 120 CURVE SMOOTH",
"1099 135 OFFCURVE",
"1016 154 OFFCURVE",
"974 178 CURVE SMOOTH",
"935 200 OFFCURVE",
"910 239 OFFCURVE",
"899 294 CURVE SMOOTH",
"878 409 OFFCURVE",
"865 548 OFFCURVE",
"859 711 CURVE SMOOTH",
"856 851 OFFCURVE",
"854 991 OFFCURVE",
"852 1131 CURVE SMOOTH",
"849 1293 OFFCURVE",
"847 1441 OFFCURVE",
"847 1576 CURVE SMOOTH",
"847 2104 OFFCURVE",
"871 2417 OFFCURVE",
"918 2514 CURVE",
"973 2580 OFFCURVE",
"1052 2612 OFFCURVE",
"1157 2612 CURVE SMOOTH",
"1179 2612 OFFCURVE",
"1201 2611 OFFCURVE",
"1225 2608 CURVE",
"1281 2681 LINE",
"1110 2665 OFFCURVE",
"919 2649 OFFCURVE",
"710 2639 CURVE",
"439 2653 OFFCURVE",
"260 2665 OFFCURVE",
"173 2675 CURVE",
"136 2596 LINE",
"186 2607 OFFCURVE",
"232 2613 OFFCURVE",
"274 2613 CURVE SMOOTH",
"357 2613 OFFCURVE",
"423 2591 OFFCURVE",
"474 2549 CURVE",
"531 2484 OFFCURVE",
"560 2012 OFFCURVE",
"560 1135 CURVE SMOOTH",
"560 659 OFFCURVE",
"547 369 OFFCURVE",
"522 264 CURVE SMOOTH",
"505 195 OFFCURVE",
"453 143 OFFCURVE",
"365 107 CURVE SMOOTH",
"296 79 OFFCURVE",
"221 65 OFFCURVE",
"140 65 CURVE SMOOTH",
"115 65 OFFCURVE",
"95 67 OFFCURVE",
"78 70 CURVE",
"43 -10 LINE",
"376 14 OFFCURVE",
"574 28 OFFCURVE",
"638 31 CURVE SMOOTH",
"685 34 OFFCURVE",
"743 36 OFFCURVE",
"810 36 CURVE SMOOTH",
"940 36 OFFCURVE",
"1295 16 OFFCURVE",
"1875 -25 CURVE SMOOTH",
"1903 -27 OFFCURVE",
"1927 -28 OFFCURVE",
"1946 -28 CURVE SMOOTH"
);
}
);
width = 2301;
}
);
leftKerningGroup = D;
note = L;
rightKerningGroup = L;
unicode = 004C;
},
{
glyphname = Lslash;
lastChange = "2021-08-11 05:19:26 +0000";
layers = (
{
layerId = "274E8830-0A80-4149-8BE8-CF3C4CCD3F6F";
paths = (
{
closed = 1;
nodes = (
"355 -6 OFFCURVE",
"548 8 OFFCURVE",
"609 11 CURVE SMOOTH",
"692 17 OFFCURVE",
"788 20 OFFCURVE",
"896 20 CURVE SMOOTH",
"1097 20 OFFCURVE",
"1405 5 OFFCURVE",
"1821 -24 CURVE SMOOTH",
"1848 -26 OFFCURVE",
"1871 -27 OFFCURVE",
"1890 -27 CURVE SMOOTH",
"1951 -27 OFFCURVE",
"1992 -16 OFFCURVE",
"2015 7 CURVE SMOOTH",
"2038 30 OFFCURVE",
"2055 76 OFFCURVE",
"2065 144 CURVE SMOOTH",
"2085 279 OFFCURVE",
"2120 403 OFFCURVE",
"2169 515 CURVE",
"2115 532 LINE",
"2109 488 OFFCURVE",
"2082 426 OFFCURVE",
"2034 347 CURVE SMOOTH",
"1983 264 OFFCURVE",
"1937 208 OFFCURVE",
"1894 177 CURVE SMOOTH",
"1808 116 OFFCURVE",
"1635 85 OFFCURVE",
"1376 85 CURVE SMOOTH",
"1309 85 OFFCURVE",
"1246 89 OFFCURVE",
"1186 96 CURVE SMOOTH",
"1059 111 OFFCURVE",
"978 127 OFFCURVE",
"943 142 CURVE SMOOTH",
"904 160 OFFCURVE",
"880 195 OFFCURVE",
"871 246 CURVE SMOOTH",
"850 357 OFFCURVE",
"836 641 OFFCURVE",
"827 1098 CURVE SMOOTH",
"824 1256 OFFCURVE",
"822 1401 OFFCURVE",
"822 1532 CURVE SMOOTH",
"822 2044 OFFCURVE",
"846 2346 OFFCURVE",
"891 2440 CURVE",
"945 2504 OFFCURVE",
"1022 2536 OFFCURVE",
"1123 2536 CURVE SMOOTH",
"1144 2536 OFFCURVE",
"1166 2535 OFFCURVE",
"1189 2532 CURVE",
"1244 2603 LINE",
"1077 2584 OFFCURVE",
"892 2571 OFFCURVE",
"689 2562 CURVE",
"426 2575 OFFCURVE",
"253 2587 OFFCURVE",
"168 2597 CURVE",
"132 2520 LINE",
"181 2531 OFFCURVE",
"226 2536 OFFCURVE",
"267 2536 CURVE SMOOTH",
"347 2536 OFFCURVE",
"411 2516 OFFCURVE",
"461 2474 CURVE",
"516 2411 OFFCURVE",
"544 1954 OFFCURVE",
"544 1102 CURVE SMOOTH",
"544 647 OFFCURVE",
"528 356 OFFCURVE",
"497 227 CURVE SMOOTH",
"481 160 OFFCURVE",
"429 110 OFFCURVE",
"342 75 CURVE SMOOTH",
"275 48 OFFCURVE",
"201 34 OFFCURVE",
"121 34 CURVE SMOOTH",
"96 34 OFFCURVE",
"76 36 OFFCURVE",
"60 39 CURVE",
"32 -30 LINE"
);
}
);
width = 2234;
}
);
note = Lslash;
unicode = 0141;
},
{
glyphname = M;
lastChange = "2021-08-11 05:19:26 +0000";
layers = (
{
layerId = "274E8830-0A80-4149-8BE8-CF3C4CCD3F6F";
paths = (
{
closed = 1;
nodes = (
"1895 -108 LINE",
"1934 80 OFFCURVE",
"2053 428 OFFCURVE",
"2253 936 CURVE SMOOTH",
"2470 1487 OFFCURVE",
"2659 1901 OFFCURVE",
"2820 2178 CURVE",
"2873 1697 OFFCURVE",
"2907 1339 OFFCURVE",
"2921 1102 CURVE SMOOTH",
"2945 789 OFFCURVE",
"2956 559 OFFCURVE",
"2956 413 CURVE SMOOTH",
"2956 341 OFFCURVE",
"2954 289 OFFCURVE",
"2948 257 CURVE SMOOTH",
"2937 190 OFFCURVE",
"2887 139 OFFCURVE",
"2799 104 CURVE SMOOTH",
"2731 77 OFFCURVE",
"2656 64 OFFCURVE",
"2574 64 CURVE SMOOTH",
"2549 64 OFFCURVE",
"2528 65 OFFCURVE",
"2512 68 CURVE",
"2474 -10 LINE",
"2849 17 OFFCURVE",
"3060 32 OFFCURVE",
"3107 33 CURVE",
"3438 23 OFFCURVE",
"3637 9 OFFCURVE",
"3705 -10 CURVE",
"3749 79 LINE",
"3723 76 OFFCURVE",
"3697 75 OFFCURVE",
"3672 75 CURVE SMOOTH",
"3611 75 OFFCURVE",
"3552 83 OFFCURVE",
"3494 99 CURVE SMOOTH",
"3390 128 OFFCURVE",
"3329 177 OFFCURVE",
"3312 247 CURVE SMOOTH",
"3283 362 OFFCURVE",
"3247 645 OFFCURVE",
"3205 1098 CURVE SMOOTH",
"3167 1505 OFFCURVE",
"3148 1852 OFFCURVE",
"3148 2139 CURVE SMOOTH",
"3148 2305 OFFCURVE",
"3155 2405 OFFCURVE",
"3170 2440 CURVE",
"3219 2504 OFFCURVE",
"3294 2536 OFFCURVE",
"3395 2536 CURVE SMOOTH",
"3416 2536 OFFCURVE",
"3438 2535 OFFCURVE",
"3461 2532 CURVE",
"3511 2603 LINE",
"3274 2576 OFFCURVE",
"3094 2561 OFFCURVE",
"2970 2556 CURVE",
"2876 2559 LINE SMOOTH",
"2840 2561 OFFCURVE",
"2809 2562 OFFCURVE",
"2784 2562 CURVE SMOOTH",
"2769 2562 OFFCURVE",
"2757 2561 OFFCURVE",
"2746 2561 CURVE SMOOTH",
"2703 2559 OFFCURVE",
"2681 2553 OFFCURVE",
"2681 2543 CURVE SMOOTH",
"2681 2440 OFFCURVE",
"2568 2089 OFFCURVE",
"2343 1488 CURVE SMOOTH",
"2138 940 OFFCURVE",
"1992 579 OFFCURVE",
"1907 404 CURVE SMOOTH",
"1895 379 OFFCURVE",
"1884 367 OFFCURVE",
"1875 367 CURVE SMOOTH",
"1866 367 OFFCURVE",
"1855 382 OFFCURVE",
"1842 412 CURVE SMOOTH",
"1737 685 OFFCURVE",
"1659 891 OFFCURVE",
"1610 1030 CURVE SMOOTH",
"1437 1487 OFFCURVE",
"1307 1878 OFFCURVE",
"1222 2203 CURVE SMOOTH",
"1176 2378 OFFCURVE",
"1153 2497 OFFCURVE",
"1153 2560 CURVE",
"1025 2572 OFFCURVE",
"921 2578 OFFCURVE",
"841 2578 CURVE SMOOTH",
"821 2578 OFFCURVE",
"802 2578 OFFCURVE",
"785 2577 CURVE",
"626 2584 OFFCURVE",
"524 2591 OFFCURVE",
"479 2596 CURVE",
"443 2519 LINE",
"466 2524 OFFCURVE",
"496 2526 OFFCURVE",
"531 2526 CURVE SMOOTH",
"664 2526 OFFCURVE",
"739 2476 OFFCURVE",
"756 2375 CURVE",
"669 1349 LINE SMOOTH",
"638 933 OFFCURVE",
"581 557 OFFCURVE",
"499 220 CURVE SMOOTH",
"474 116 OFFCURVE",
"380 64 OFFCURVE",
"215 64 CURVE",
"176 -15 LINE",
"251 2 OFFCURVE",
"407 19 OFFCURVE",
"644 34 CURVE",
"925 17 OFFCURVE",
"1089 4 OFFCURVE",
"1135 -5 CURVE",
"1177 81 LINE",
"1147 78 OFFCURVE",
"1118 76 OFFCURVE",
"1089 76 CURVE SMOOTH",
"920 76 OFFCURVE",
"821 130 OFFCURVE",
"790 237 CURVE SMOOTH",
"774 294 OFFCURVE",
"766 394 OFFCURVE",
"766 537 CURVE SMOOTH",
"766 704 OFFCURVE",
"780 977 OFFCURVE",
"809 1355 CURVE SMOOTH",
"831 1646 OFFCURVE",
"858 1938 OFFCURVE",
"891 2231 CURVE",
"1086 1710 OFFCURVE",
"1231 1311 OFFCURVE",
"1326 1034 CURVE SMOOTH",
"1409 803 OFFCURVE",
"1476 614 OFFCURVE",
"1525 466 CURVE SMOOTH",
"1563 348 OFFCURVE",
"1591 259 OFFCURVE",
"1609 200 CURVE SMOOTH",
"1624 157 OFFCURVE",
"1664 101 OFFCURVE",
"1729 31 CURVE SMOOTH",
"1800 -46 OFFCURVE",
"1843 -99 OFFCURVE",
"1858 -128 CURVE"
);
}
);
width = 3828;
}
);
note = M;
unicode = 004D;
},
{
glyphname = N;
lastChange = "2021-08-11 05:19:26 +0000";
layers = (
{
anchors = (
{
name = bottom;
position = "{1727, 0}";
},
{
name = top;
position = "{1732, 2681}";
}
);
layerId = "274E8830-0A80-4149-8BE8-CF3C4CCD3F6F";
paths = (
{
closed = 1;
nodes = (
"2804 -216 LINE",
"2768 -31 OFFCURVE",
"2750 341 OFFCURVE",
"2750 900 CURVE SMOOTH",
"2750 1764 OFFCURVE",
"2773 2290 OFFCURVE",
"2818 2479 CURVE SMOOTH",
"2844 2586 OFFCURVE",
"2942 2639 OFFCURVE",
"3112 2639 CURVE",
"3141 2690 LINE",
"3064 2671 OFFCURVE",
"2904 2654 OFFCURVE",
"2660 2639 CURVE",
"2380 2656 OFFCURVE",
"2215 2670 OFFCURVE",
"2164 2679 CURVE",
"2130 2610 LINE",
"2187 2620 OFFCURVE",
"2235 2625 OFFCURVE",
"2274 2625 CURVE SMOOTH",
"2412 2625 OFFCURVE",
"2494 2574 OFFCURVE",
"2521 2472 CURVE SMOOTH",
"2552 2357 OFFCURVE",
"2567 2031 OFFCURVE",
"2567 1496 CURVE SMOOTH",
"2567 1082 OFFCURVE",
"2554 758 OFFCURVE",
"2528 524 CURVE",
"2185 857 OFFCURVE",
"1895 1137 OFFCURVE",
"1659 1362 CURVE",
"1506 1518 OFFCURVE",
"1314 1731 OFFCURVE",
"1084 2002 CURVE SMOOTH",
"847 2281 OFFCURVE",
"667 2506 OFFCURVE",
"545 2677 CURVE",
"434 2669 OFFCURVE",
"336 2665 OFFCURVE",
"249 2665 CURVE SMOOTH",
"171 2665 OFFCURVE",
"103 2668 OFFCURVE",
"45 2675 CURVE",
"8 2596 LINE",
"58 2607 OFFCURVE",
"105 2613 OFFCURVE",
"147 2613 CURVE SMOOTH",
"229 2613 OFFCURVE",
"296 2591 OFFCURVE",
"347 2549 CURVE",
"406 2482 OFFCURVE",
"436 2104 OFFCURVE",
"436 1417 CURVE SMOOTH",
"436 1310 OFFCURVE",
"415 914 OFFCURVE",
"373 229 CURVE SMOOTH",
"370 186 OFFCURVE",
"345 150 OFFCURVE",
"298 120 CURVE SMOOTH",
"243 85 OFFCURVE",
"170 68 OFFCURVE",
"79 68 CURVE",
"40 -12 LINE",
"144 13 OFFCURVE",
"284 25 OFFCURVE",
"460 25 CURVE SMOOTH",
"656 25 OFFCURVE",
"847 13 OFFCURVE",
"1032 -12 CURVE",
"1081 78 LINE",
"1048 72 OFFCURVE",
"1013 69 OFFCURVE",
"977 69 CURVE SMOOTH",
"819 69 OFFCURVE",
"720 125 OFFCURVE",
"680 236 CURVE SMOOTH",
"633 366 OFFCURVE",
"610 753 OFFCURVE",
"610 1396 CURVE SMOOTH",
"610 1657 OFFCURVE",
"622 1871 OFFCURVE",
"645 2039 CURVE",
"992 1662 OFFCURVE",
"1269 1377 OFFCURVE",
"1465 1173 CURVE SMOOTH",
"2159 453 LINE SMOOTH",
"2508 90 OFFCURVE",
"2712 -141 OFFCURVE",
"2769 -241 CURVE"
);
}
);
width = 3226;
}
);
note = N;
rightKerningGroup = N;
unicode = 004E;
},
{
color = 3;
glyphname = Eng;
lastChange = "2021-08-11 05:19:26 +0000";
layers = (
{
layerId = "274E8830-0A80-4149-8BE8-CF3C4CCD3F6F";
paths = (
{
closed = 1;
nodes = (
"2567 -1591 OFFCURVE",
"2733 -1291 OFFCURVE",
"2733 -792 CURVE SMOOTH",
"2733 -626 OFFCURVE",
"2727 -424 OFFCURVE",
"2722 -203 CURVE SMOOTH",
"2713 170 OFFCURVE",
"2701 601 OFFCURVE",
"2701 1019 CURVE SMOOTH",
"2701 1583 OFFCURVE",
"2722 2125 OFFCURVE",
"2796 2475 CURVE SMOOTH",
"2818 2580 OFFCURVE",
"2921 2633 OFFCURVE",
"3089 2633 CURVE",
"3119 2683 LINE",
"3043 2663 OFFCURVE",
"2885 2643 OFFCURVE",
"2643 2633 CURVE",
"2364 2647 OFFCURVE",
"2202 2663 OFFCURVE",
"2150 2673 CURVE",
"2115 2603 LINE",
"2177 2613 OFFCURVE",
"2221 2619 OFFCURVE",
"2256 2619 CURVE SMOOTH",
"2400 2619 OFFCURVE",
"2486 2559 OFFCURVE",
"2510 2445 CURVE SMOOTH",
"2525 2375 OFFCURVE",
"2536 1947 OFFCURVE",
"2536 1498 CURVE SMOOTH",
"2536 1129 OFFCURVE",
"2528 746 OFFCURVE",
"2509 538 CURVE",
"1778 1237 OFFCURVE",
"1358 1569 OFFCURVE",
"547 2667 CURVE",
"441 2657 OFFCURVE",
"351 2657 OFFCURVE",
"267 2657 CURVE SMOOTH",
"187 2657 OFFCURVE",
"113 2657 OFFCURVE",
"52 2667 CURVE",
"19 2589 LINE",
"67 2599 OFFCURVE",
"110 2603 OFFCURVE",
"150 2603 CURVE SMOOTH",
"264 2603 OFFCURVE",
"362 2583 OFFCURVE",
"389 2455 CURVE SMOOTH",
"419 2313 OFFCURVE",
"438 2020 OFFCURVE",
"438 1577 CURVE SMOOTH",
"438 1527 OFFCURVE",
"438 1474 OFFCURVE",
"437 1420 CURVE SMOOTH",
"436 1316 OFFCURVE",
"404 920 OFFCURVE",
"368 246 CURVE SMOOTH",
"363 152 OFFCURVE",
"247 88 OFFCURVE",
"79 88 CURVE",
"41 8 LINE",
"146 28 OFFCURVE",
"286 44 OFFCURVE",
"460 44 CURVE SMOOTH",
"652 44 OFFCURVE",
"844 28 OFFCURVE",
"1022 8 CURVE",
"1074 92 LINE",
"1039 88 OFFCURVE",
"1001 88 OFFCURVE",
"965 88 CURVE SMOOTH",
"783 88 OFFCURVE",
"687 162 OFFCURVE",
"656 310 CURVE SMOOTH",
"637 402 OFFCURVE",
"602 826 OFFCURVE",
"602 1283 CURVE SMOOTH",
"602 1542 OFFCURVE",
"613 1813 OFFCURVE",
"645 2039 CURVE",
"986 1663 OFFCURVE",
"1261 1377 OFFCURVE",
"1454 1177 CURVE SMOOTH",
"2144 464 LINE SMOOTH",
"2262 342 OFFCURVE",
"2360 236 OFFCURVE",
"2444 142 CURVE",
"2457 65 OFFCURVE",
"2468 -216 OFFCURVE",
"2468 -509 CURVE SMOOTH",
"2468 -645 OFFCURVE",
"2465 -783 OFFCURVE",
"2460 -905 CURVE SMOOTH",
"2444 -1276 OFFCURVE",
"2292 -1487 OFFCURVE",
"2039 -1487 CURVE SMOOTH",
"1900 -1487 OFFCURVE",
"1816 -1412 OFFCURVE",
"1785 -1264 CURVE SMOOTH",
"1777 -1226 OFFCURVE",
"1774 -1175 OFFCURVE",
"1774 -1121 CURVE SMOOTH",
"1774 -1026 OFFCURVE",
"1784 -920 OFFCURVE",
"1797 -848 CURVE",
"1709 -834 LINE",
"1681 -1196 OFFCURVE",
"1623 -1462 OFFCURVE",
"1569 -1462 CURVE",
"1572 -1477 LINE",
"1822 -1581 OFFCURVE",
"2032 -1591 OFFCURVE",
"2256 -1591 CURVE SMOOTH"
);
}
);
width = 3226;
}
);
unicode = 014A;
},
{
glyphname = O;
lastChange = "2021-08-11 05:19:26 +0000";
layers = (
{
anchors = (
{
name = bottom;
position = "{1591, 0}";
},
{
name = center;
position = "{1591, 1341}";
},
{
name = ogonek;
position = "{1818, 10}";
},
{
name = top;
position = "{1591, 2681}";
},
{
name = topleft;
position = "{20, 2681}";
},
{
name = topright;
position = "{1892, 2681}";
}
);
layerId = "274E8830-0A80-4149-8BE8-CF3C4CCD3F6F";
paths = (
{
closed = 1;
nodes = (
"2554 -78 OFFCURVE",
"3032 405 OFFCURVE",
"3032 1370 CURVE SMOOTH",
"3032 1817 OFFCURVE",
"2902 2153 OFFCURVE",
"2642 2380 CURVE SMOOTH",
"2395 2595 OFFCURVE",
"2045 2703 OFFCURVE",
"1591 2703 CURVE SMOOTH",
"1137 2703 OFFCURVE",
"788 2595 OFFCURVE",
"545 2378 CURVE SMOOTH",
"290 2151 OFFCURVE",
"163 1815 OFFCURVE",
"163 1370 CURVE SMOOTH",
"164 405 OFFCURVE",
"642 -78 OFFCURVE",
"1599 -78 CURVE SMOOTH"
);
},
{
closed = 1;
nodes = (
"1289 42 OFFCURVE",
"1015 187 OFFCURVE",
"802 477 CURVE SMOOTH",
"606 742 OFFCURVE",
"508 1053 OFFCURVE",
"508 1410 CURVE SMOOTH",
"508 1709 OFFCURVE",
"582 1962 OFFCURVE",
"730 2169 CURVE SMOOTH",
"896 2400 OFFCURVE",
"1131 2534 OFFCURVE",
"1435 2571 CURVE SMOOTH",
"1486 2578 OFFCURVE",
"1537 2581 OFFCURVE",
"1587 2581 CURVE SMOOTH",
"1927 2581 OFFCURVE",
"2200 2443 OFFCURVE",
"2407 2167 CURVE SMOOTH",
"2594 1918 OFFCURVE",
"2688 1618 OFFCURVE",
"2688 1267 CURVE SMOOTH",
"2688 958 OFFCURVE",
"2612 693 OFFCURVE",
"2459 472 CURVE SMOOTH",
"2290 228 OFFCURVE",
"2055 88 OFFCURVE",
"1756 51 CURVE SMOOTH",
"1711 45 OFFCURVE",
"1666 42 OFFCURVE",
"1622 42 CURVE SMOOTH"
);
}
);
width = 3181;
}
);
leftKerningGroup = O;
note = O;
rightKerningGroup = O;
unicode = 004F;
},
{
glyphname = Oslash;
lastChange = "2021-08-11 05:19:26 +0000";
layers = (
{
anchors = (
{
name = bottom;
position = "{1545, 0}";
},
{
name = top;
position = "{1545, 2681}";
}
);
layerId = "274E8830-0A80-4149-8BE8-CF3C4CCD3F6F";
paths = (
{
closed = 1;
nodes = (
"2480 -76 OFFCURVE",
"2944 393 OFFCURVE",
"2944 1331 CURVE SMOOTH",
"2944 1845 OFFCURVE",
"2767 2208 OFFCURVE",
"2414 2420 CURVE",
"2590 2653 LINE",
"2353 2653 LINE",
"2244 2505 LINE",
"2047 2584 OFFCURVE",
"1814 2624 OFFCURVE",
"1545 2624 CURVE SMOOTH",
"1104 2624 OFFCURVE",
"766 2519 OFFCURVE",
"529 2309 CURVE SMOOTH",
"282 2089 OFFCURVE",
"158 1763 OFFCURVE",
"158 1331 CURVE SMOOTH",
"159 836 OFFCURVE",
"294 470 OFFCURVE",
"563 233 CURVE",
"389 -2 LINE",
"584 0 LINE",
"688 138 LINE",
"910 -5 OFFCURVE",
"1198 -76 OFFCURVE",
"1552 -76 CURVE SMOOTH"
);
},
{
closed = 1;
nodes = (
"581 747 OFFCURVE",
"493 1039 OFFCURVE",
"493 1369 CURVE SMOOTH",
"493 1659 OFFCURVE",
"565 1904 OFFCURVE",
"709 2105 CURVE SMOOTH",
"870 2330 OFFCURVE",
"1098 2460 OFFCURVE",
"1393 2496 CURVE SMOOTH",
"1443 2502 OFFCURVE",
"1492 2505 OFFCURVE",
"1541 2505 CURVE SMOOTH",
"1756 2505 OFFCURVE",
"1946 2446 OFFCURVE",
"2112 2327 CURVE",
"756 494 LINE"
);
},
{
closed = 1;
nodes = (
"1295 41 OFFCURVE",
"1056 149 OFFCURVE",
"859 364 CURVE",
"2251 2205 LINE",
"2490 1956 OFFCURVE",
"2609 1631 OFFCURVE",
"2609 1230 CURVE SMOOTH",
"2609 930 OFFCURVE",
"2535 673 OFFCURVE",
"2387 458 CURVE SMOOTH",
"2223 221 OFFCURVE",
"1996 85 OFFCURVE",
"1705 49 CURVE SMOOTH",
"1661 44 OFFCURVE",
"1617 41 OFFCURVE",
"1574 41 CURVE SMOOTH"
);
}
);
width = 3089;
}
);
note = Oslash;
unicode = 00D8;
},
{
glyphname = OE;
lastChange = "2021-08-11 05:19:26 +0000";
layers = (
{
layerId = "274E8830-0A80-4149-8BE8-CF3C4CCD3F6F";
paths = (
{
closed = 1;
nodes = (
"1774 -76 OFFCURVE",
"1970 -48 OFFCURVE",
"2140 7 CURVE",
"2202 11 LINE SMOOTH",
"2281 16 OFFCURVE",
"2371 18 OFFCURVE",
"2472 18 CURVE SMOOTH",
"2699 18 OFFCURVE",
"3013 4 OFFCURVE",
"3413 -24 CURVE SMOOTH",
"3432 -25 OFFCURVE",
"3450 -26 OFFCURVE",
"3465 -26 CURVE SMOOTH",
"3531 -26 OFFCURVE",
"3578 -12 OFFCURVE",
"3605 17 CURVE SMOOTH",
"3629 42 OFFCURVE",
"3646 91 OFFCURVE",
"3657 164 CURVE SMOOTH",
"3677 299 OFFCURVE",
"3712 423 OFFCURVE",
"3762 535 CURVE",
"3707 552 LINE",
"3701 508 OFFCURVE",
"3674 446 OFFCURVE",
"3626 367 CURVE SMOOTH",
"3576 284 OFFCURVE",
"3529 228 OFFCURVE",
"3486 197 CURVE SMOOTH",
"3400 136 OFFCURVE",
"3227 105 OFFCURVE",
"2968 105 CURVE SMOOTH",
"2901 105 OFFCURVE",
"2838 109 OFFCURVE",
"2778 116 CURVE SMOOTH",
"2647 131 OFFCURVE",
"2566 145 OFFCURVE",
"2535 158 CURVE SMOOTH",
"2496 173 OFFCURVE",
"2471 206 OFFCURVE",
"2462 256 CURVE SMOOTH",
"2435 393 OFFCURVE",
"2420 738 OFFCURVE",
"2417 1291 CURVE",
"2459 1294 OFFCURVE",
"2509 1295 OFFCURVE",
"2567 1295 CURVE SMOOTH",
"2669 1295 OFFCURVE",
"2797 1291 OFFCURVE",
"2950 1284 CURVE SMOOTH",
"3109 1276 OFFCURVE",
"3187 1218 OFFCURVE",
"3185 1109 CURVE",
"3176 1066 OFFCURVE",
"3170 1039 OFFCURVE",
"3165 1026 CURVE",
"3243 1045 LINE",
"3241 1098 OFFCURVE",
"3240 1129 OFFCURVE",
"3240 1139 CURVE SMOOTH",
"3239 1166 OFFCURVE",
"3245 1207 OFFCURVE",
"3258 1262 CURVE SMOOTH",
"3272 1317 OFFCURVE",
"3279 1353 OFFCURVE",
"3279 1370 CURVE SMOOTH",
"3279 1401 OFFCURVE",
"3266 1417 OFFCURVE",
"3240 1418 CURVE",
"3273 1416 OFFCURVE",
"2998 1413 OFFCURVE",
"2417 1409 CURVE",
"2417 1938 OFFCURVE",
"2436 2273 OFFCURVE",
"2474 2414 CURVE",
"2537 2424 OFFCURVE",
"2640 2430 OFFCURVE",
"2783 2431 CURVE SMOOTH",
"2824 2431 LINE SMOOTH",
"2941 2431 OFFCURVE",
"3028 2427 OFFCURVE",
"3085 2420 CURVE SMOOTH",
"3238 2401 OFFCURVE",
"3315 2351 OFFCURVE",
"3315 2270 CURVE SMOOTH",
"3315 2240 OFFCURVE",
"3294 2167 OFFCURVE",
"3253 2051 CURVE",
"3329 2034 LINE",
"3370 2262 LINE SMOOTH",
"3373 2277 OFFCURVE",
"3384 2321 OFFCURVE",
"3403 2392 CURVE SMOOTH",
"3418 2448 OFFCURVE",
"3426 2489 OFFCURVE",
"3426 2515 CURVE SMOOTH",
"3426 2552 OFFCURVE",
"3412 2571 OFFCURVE",
"3385 2573 CURVE",
"2999 2570 OFFCURVE",
"2631 2567 OFFCURVE",
"2282 2562 CURVE SMOOTH",
"2201 2563 OFFCURVE",
"2116 2567 OFFCURVE",
"2027 2573 CURVE",
"1881 2607 OFFCURVE",
"1720 2624 OFFCURVE",
"1545 2624 CURVE SMOOTH",
"1104 2624 OFFCURVE",
"766 2519 OFFCURVE",
"529 2309 CURVE SMOOTH",
"282 2089 OFFCURVE",
"158 1763 OFFCURVE",
"158 1331 CURVE SMOOTH",
"159 393 OFFCURVE",
"623 -76 OFFCURVE",
"1552 -76 CURVE SMOOTH"
);
},
{
closed = 1;
nodes = (
"1251 41 OFFCURVE",
"985 182 OFFCURVE",
"778 463 CURVE SMOOTH",
"588 721 OFFCURVE",
"493 1023 OFFCURVE",
"493 1369 CURVE SMOOTH",
"493 1659 OFFCURVE",
"565 1904 OFFCURVE",
"709 2105 CURVE SMOOTH",
"870 2330 OFFCURVE",
"1098 2460 OFFCURVE",
"1393 2496 CURVE SMOOTH",
"1443 2502 OFFCURVE",
"1492 2505 OFFCURVE",
"1541 2505 CURVE SMOOTH",
"1748 2505 OFFCURVE",
"1933 2450 OFFCURVE",
"2095 2339 CURVE",
"2122 2168 OFFCURVE",
"2136 1744 OFFCURVE",
"2136 1068 CURVE SMOOTH",
"2136 636 OFFCURVE",
"2121 356 OFFCURVE",
"2090 227 CURVE SMOOTH",
"2084 204 OFFCURVE",
"2074 182 OFFCURVE",
"2059 162 CURVE SMOOTH",
"2042 141 OFFCURVE",
"1987 118 OFFCURVE",
"1892 91 CURVE SMOOTH",
"1814 69 OFFCURVE",
"1752 55 OFFCURVE",
"1705 49 CURVE SMOOTH",
"1661 44 OFFCURVE",
"1617 41 OFFCURVE",
"1574 41 CURVE SMOOTH"
);
}
);
width = 3835;
}
);
note = OE;
unicode = 0152;
},
{
glyphname = P;
lastChange = "2021-08-11 05:19:26 +0000";
layers = (
{
layerId = "274E8830-0A80-4149-8BE8-CF3C4CCD3F6F";
paths = (
{
closed = 1;
nodes = (
"428 12 OFFCURVE",
"623 24 OFFCURVE",
"674 29 CURVE SMOOTH",
"705 31 OFFCURVE",
"739 32 OFFCURVE",
"776 32 CURVE SMOOTH",
"871 32 OFFCURVE",
"990 26 OFFCURVE",
"1134 14 CURVE SMOOTH",
"1208 7 OFFCURVE",
"1282 1 OFFCURVE",
"1355 -5 CURVE",
"1393 79 LINE",
"1381 77 OFFCURVE",
"1366 76 OFFCURVE",
"1348 76 CURVE SMOOTH",
"1302 76 OFFCURVE",
"1236 82 OFFCURVE",
"1148 96 CURVE SMOOTH",
"1007 117 OFFCURVE",
"927 146 OFFCURVE",
"906 182 CURVE",
"875 279 OFFCURVE",
"860 564 OFFCURVE",
"860 1036 CURVE SMOOTH",
"860 1612 LINE SMOOTH",
"860 1969 OFFCURVE",
"869 2235 OFFCURVE",
"888 2411 CURVE SMOOTH",
"894 2469 OFFCURVE",
"934 2506 OFFCURVE",
"1007 2521 CURVE SMOOTH",
"1045 2528 OFFCURVE",
"1130 2532 OFFCURVE",
"1262 2532 CURVE SMOOTH",
"1441 2532 OFFCURVE",
"1585 2472 OFFCURVE",
"1695 2351 CURVE SMOOTH",
"1798 2238 OFFCURVE",
"1850 2099 OFFCURVE",
"1850 1935 CURVE SMOOTH",
"1850 1816 OFFCURVE",
"1821 1704 OFFCURVE",
"1762 1598 CURVE SMOOTH",
"1693 1473 OFFCURVE",
"1581 1382 OFFCURVE",
"1428 1323 CURVE SMOOTH",
"1307 1277 OFFCURVE",
"1187 1256 OFFCURVE",
"1068 1260 CURVE",
"1026 1186 LINE",
"1066 1183 OFFCURVE",
"1106 1181 OFFCURVE",
"1146 1181 CURVE SMOOTH",
"1274 1181 OFFCURVE",
"1399 1199 OFFCURVE",
"1519 1233 CURVE SMOOTH",
"1728 1293 OFFCURVE",
"1888 1410 OFFCURVE",
"1999 1584 CURVE SMOOTH",
"2084 1716 OFFCURVE",
"2126 1867 OFFCURVE",
"2126 2037 CURVE SMOOTH",
"2126 2251 OFFCURVE",
"2057 2411 OFFCURVE",
"1920 2518 CURVE SMOOTH",
"1796 2615 OFFCURVE",
"1603 2663 OFFCURVE",
"1340 2663 CURVE SMOOTH",
"1261 2663 OFFCURVE",
"1164 2659 OFFCURVE",
"1050 2650 CURVE SMOOTH",
"851 2637 OFFCURVE",
"742 2631 OFFCURVE",
"721 2631 CURVE SMOOTH",
"450 2644 OFFCURVE",
"272 2656 OFFCURVE",
"185 2666 CURVE",
"148 2587 LINE",
"199 2598 OFFCURVE",
"245 2604 OFFCURVE",
"288 2604 CURVE SMOOTH",
"369 2604 OFFCURVE",
"435 2583 OFFCURVE",
"486 2540 CURVE",
"543 2475 OFFCURVE",
"571 2005 OFFCURVE",
"571 1130 CURVE SMOOTH",
"571 652 OFFCURVE",
"555 359 OFFCURVE",
"523 251 CURVE SMOOTH",
"487 129 OFFCURVE",
"353 70 OFFCURVE",
"120 74 CURVE",
"87 -7 LINE"
);
}
);
width = 2316;
}
);
note = P;
unicode = 0050;
},
{
glyphname = Thorn;
lastChange = "2021-08-11 05:19:26 +0000";
layers = (
{
layerId = "274E8830-0A80-4149-8BE8-CF3C4CCD3F6F";
paths = (
{
closed = 1;
nodes = (
"431 -730 OFFCURVE",
"642 -715 OFFCURVE",
"689 -714 CURVE",
"975 -723 OFFCURVE",
"1154 -737 OFFCURVE",
"1226 -757 CURVE",
"1270 -691 LINE",
"1251 -693 OFFCURVE",
"1233 -694 OFFCURVE",
"1214 -694 CURVE SMOOTH",
"1149 -694 OFFCURVE",
"1082 -682 OFFCURVE",
"1013 -659 CURVE SMOOTH",
"907 -623 OFFCURVE",
"848 -570 OFFCURVE",
"835 -500 CURVE SMOOTH",
"813 -377 OFFCURVE",
"802 -4 OFFCURVE",
"802 619 CURVE SMOOTH",
"802 733 LINE",
"809 753 OFFCURVE",
"813 772 OFFCURVE",
"812 791 CURVE SMOOTH",
"803 1041 LINE SMOOTH",
"802 1068 OFFCURVE",
"802 1099 OFFCURVE",
"802 1135 CURVE SMOOTH",
"802 1220 OFFCURVE",
"804 1330 OFFCURVE",
"810 1464 CURVE SMOOTH",
"817 1633 OFFCURVE",
"825 1769 OFFCURVE",
"836 1872 CURVE SMOOTH",
"842 1928 OFFCURVE",
"890 1962 OFFCURVE",
"981 1974 CURVE SMOOTH",
"1004 1977 OFFCURVE",
"1098 1978 OFFCURVE",
"1262 1978 CURVE SMOOTH",
"1441 1978 OFFCURVE",
"1585 1918 OFFCURVE",
"1695 1797 CURVE SMOOTH",
"1798 1684 OFFCURVE",
"1850 1545 OFFCURVE",
"1850 1381 CURVE SMOOTH",
"1850 1262 OFFCURVE",
"1821 1150 OFFCURVE",
"1762 1044 CURVE SMOOTH",
"1693 919 OFFCURVE",
"1581 828 OFFCURVE",
"1428 769 CURVE SMOOTH",
"1307 723 OFFCURVE",
"1187 702 OFFCURVE",
"1068 706 CURVE",
"1026 632 LINE",
"1066 629 OFFCURVE",
"1106 627 OFFCURVE",
"1146 627 CURVE SMOOTH",
"1274 627 OFFCURVE",
"1399 645 OFFCURVE",
"1519 679 CURVE SMOOTH",
"1728 739 OFFCURVE",
"1888 856 OFFCURVE",
"1999 1031 CURVE SMOOTH",
"2084 1163 OFFCURVE",
"2126 1314 OFFCURVE",
"2126 1483 CURVE SMOOTH",
"2126 1697 OFFCURVE",
"2057 1857 OFFCURVE",
"1920 1964 CURVE SMOOTH",
"1796 2061 OFFCURVE",
"1603 2110 OFFCURVE",
"1340 2110 CURVE SMOOTH",
"1261 2110 OFFCURVE",
"1164 2106 OFFCURVE",
"1050 2097 CURVE SMOOTH",
"962 2090 OFFCURVE",
"888 2085 OFFCURVE",
"829 2081 CURVE",
"834 2339 OFFCURVE",
"839 2481 OFFCURVE",
"842 2507 CURVE SMOOTH",
"847 2548 OFFCURVE",
"852 2585 OFFCURVE",
"859 2618 CURVE SMOOTH",
"860 2626 OFFCURVE",
"861 2633 OFFCURVE",
"861 2640 CURVE SMOOTH",
"861 2666 OFFCURVE",
"846 2679 OFFCURVE",
"816 2679 CURVE SMOOTH",
"803 2679 OFFCURVE",
"770 2674 OFFCURVE",
"715 2663 CURVE SMOOTH",
"660 2652 OFFCURVE",
"616 2648 OFFCURVE",
"581 2649 CURVE SMOOTH",
"380 2655 OFFCURVE",
"248 2662 OFFCURVE",
"185 2669 CURVE",
"149 2592 LINE",
"198 2603 OFFCURVE",
"243 2608 OFFCURVE",
"284 2608 CURVE SMOOTH",
"364 2608 OFFCURVE",
"428 2588 OFFCURVE",
"477 2546 CURVE",
"494 2527 OFFCURVE",
"511 2352 OFFCURVE",
"529 2019 CURVE SMOOTH",
"549 1644 OFFCURVE",
"559 1285 OFFCURVE",
"559 940 CURVE SMOOTH",
"558 355 LINE SMOOTH",
"557 -115 OFFCURVE",
"545 -400 OFFCURVE",
"521 -500 CURVE SMOOTH",
"505 -567 OFFCURVE",
"453 -618 OFFCURVE",
"366 -653 CURVE SMOOTH",
"299 -680 OFFCURVE",
"225 -693 OFFCURVE",
"145 -693 CURVE SMOOTH",
"120 -693 OFFCURVE",
"100 -691 OFFCURVE",
"84 -688 CURVE",
"56 -757 LINE"
);
}
);
width = 2513;
}
);
note = Thorn;
unicode = 00DE;
},
{
glyphname = Q;
lastChange = "2021-08-11 05:19:26 +0000";
layers = (
{
layerId = "274E8830-0A80-4149-8BE8-CF3C4CCD3F6F";
paths = (
{
closed = 1;
nodes = (
"3356 -848 OFFCURVE",
"3553 -808 OFFCURVE",
"3804 -728 CURVE",
"3835 -654 LINE",
"3764 -671 OFFCURVE",
"3692 -680 OFFCURVE",
"3619 -680 CURVE SMOOTH",
"3343 -680 OFFCURVE",
"3014 -540 OFFCURVE",
"2631 -260 CURVE SMOOTH",
"2499 -163 OFFCURVE",
"2348 -71 OFFCURVE",
"2179 15 CURVE",
"2740 192 OFFCURVE",
"3020 648 OFFCURVE",
"3020 1382 CURVE SMOOTH",
"3020 1828 OFFCURVE",
"2890 2165 OFFCURVE",
"2629 2392 CURVE SMOOTH",
"2383 2607 OFFCURVE",
"2033 2714 OFFCURVE",
"1579 2714 CURVE SMOOTH",
"1125 2714 OFFCURVE",
"776 2606 OFFCURVE",
"532 2389 CURVE SMOOTH",
"277 2163 OFFCURVE",
"150 1827 OFFCURVE",
"150 1382 CURVE SMOOTH",
"151 416 OFFCURVE",
"630 -67 OFFCURVE",
"1586 -67 CURVE SMOOTH",
"1723 -67 OFFCURVE",
"1851 -57 OFFCURVE",
"1969 -36 CURVE",
"2084 -117 OFFCURVE",
"2170 -182 OFFCURVE",
"2225 -231 CURVE SMOOTH",
"2719 -662 LINE SMOOTH",
"2862 -786 OFFCURVE",
"3026 -848 OFFCURVE",
"3213 -848 CURVE SMOOTH"
);
},
{
closed = 1;
nodes = (
"1276 54 OFFCURVE",
"1003 199 OFFCURVE",
"789 488 CURVE SMOOTH",
"593 754 OFFCURVE",
"495 1065 OFFCURVE",
"495 1421 CURVE SMOOTH",
"495 1720 OFFCURVE",
"569 1973 OFFCURVE",
"718 2180 CURVE SMOOTH",
"884 2411 OFFCURVE",
"1119 2545 OFFCURVE",
"1422 2582 CURVE SMOOTH",
"1474 2589 OFFCURVE",
"1525 2592 OFFCURVE",
"1574 2592 CURVE SMOOTH",
"1915 2592 OFFCURVE",
"2188 2454 OFFCURVE",
"2395 2179 CURVE SMOOTH",
"2582 1929 OFFCURVE",
"2675 1629 OFFCURVE",
"2675 1279 CURVE SMOOTH",
"2675 970 OFFCURVE",
"2599 705 OFFCURVE",
"2446 484 CURVE SMOOTH",
"2277 239 OFFCURVE",
"2043 99 OFFCURVE",
"1744 62 CURVE SMOOTH",
"1699 57 OFFCURVE",
"1654 54 OFFCURVE",
"1609 54 CURVE SMOOTH"
);
}
);
width = 3143;
}
);
leftKerningGroup = O;
note = Q;
rightKerningGroup = O;
unicode = 0051;
},
{
glyphname = R;
lastChange = "2021-08-11 05:19:26 +0000";
layers = (
{
anchors = (
{
name = bottom;
position = "{1585, 0}";
},
{
name = top;
position = "{1200, 2659}";
}
);
layerId = "274E8830-0A80-4149-8BE8-CF3C4CCD3F6F";
paths = (
{
closed = 1;
nodes = (
"2765 -34 OFFCURVE",
"2862 -28 OFFCURVE",
"2976 -17 CURVE",
"3017 57 LINE",
"2779 54 OFFCURVE",
"2509 217 OFFCURVE",
"2206 548 CURVE SMOOTH",
"1981 794 OFFCURVE",
"1788 1068 OFFCURVE",
"1625 1369 CURVE",
"1739 1392 OFFCURVE",
"1850 1466 OFFCURVE",
"1957 1591 CURVE SMOOTH",
"2079 1733 OFFCURVE",
"2140 1888 OFFCURVE",
"2140 2057 CURVE SMOOTH",
"2140 2293 OFFCURVE",
"2062 2459 OFFCURVE",
"1905 2555 CURVE SMOOTH",
"1786 2627 OFFCURVE",
"1610 2663 OFFCURVE",
"1376 2663 CURVE SMOOTH",
"1306 2663 OFFCURVE",
"1200 2659 OFFCURVE",
"1058 2650 CURVE SMOOTH",
"843 2637 OFFCURVE",
"733 2631 OFFCURVE",
"730 2631 CURVE SMOOTH",
"459 2644 OFFCURVE",
"281 2656 OFFCURVE",
"194 2666 CURVE",
"157 2587 LINE",
"208 2598 OFFCURVE",
"254 2604 OFFCURVE",
"297 2604 CURVE SMOOTH",
"378 2604 OFFCURVE",
"444 2583 OFFCURVE",
"495 2540 CURVE",
"552 2475 OFFCURVE",
"580 2005 OFFCURVE",
"580 1130 CURVE SMOOTH",
"580 675 OFFCURVE",
"565 385 OFFCURVE",
"535 261 CURVE SMOOTH",
"518 192 OFFCURVE",
"465 140 OFFCURVE",
"376 105 CURVE SMOOTH",
"306 77 OFFCURVE",
"230 63 OFFCURVE",
"148 63 CURVE SMOOTH",
"123 63 OFFCURVE",
"103 65 OFFCURVE",
"86 68 CURVE",
"54 -13 LINE",
"411 15 OFFCURVE",
"659 29 OFFCURVE",
"799 29 CURVE SMOOTH",
"988 29 OFFCURVE",
"1161 15 OFFCURVE",
"1316 -12 CURVE",
"1364 74 LINE",
"1099 81 OFFCURVE",
"948 126 OFFCURVE",
"910 210 CURVE",
"883 297 OFFCURVE",
"869 572 OFFCURVE",
"869 1036 CURVE SMOOTH",
"869 1612 LINE SMOOTH",
"869 1969 OFFCURVE",
"878 2235 OFFCURVE",
"897 2411 CURVE SMOOTH",
"903 2469 OFFCURVE",
"943 2506 OFFCURVE",
"1016 2521 CURVE SMOOTH",
"1054 2528 OFFCURVE",
"1139 2532 OFFCURVE",
"1271 2532 CURVE SMOOTH",
"1445 2532 OFFCURVE",
"1585 2477 OFFCURVE",
"1691 2368 CURVE SMOOTH",
"1790 2265 OFFCURVE",
"1840 2138 OFFCURVE",
"1840 1985 CURVE SMOOTH",
"1840 1770 OFFCURVE",
"1767 1602 OFFCURVE",
"1622 1481 CURVE SMOOTH",
"1489 1370 OFFCURVE",
"1316 1314 OFFCURVE",
"1104 1314 CURVE",
"1063 1240 LINE",
"1131 1240 OFFCURVE",
"1202 1245 OFFCURVE",
"1276 1254 CURVE",
"1324 1215 OFFCURVE",
"1371 1166 OFFCURVE",
"1417 1106 CURVE SMOOTH",
"1444 1071 OFFCURVE",
"1487 1011 OFFCURVE",
"1545 926 CURVE SMOOTH",
"1950 327 LINE SMOOTH",
"2113 86 OFFCURVE",
"2358 -34 OFFCURVE",
"2685 -34 CURVE SMOOTH"
);
}
);
width = 3028;
}
);
leftKerningGroup = D;
note = R;
unicode = 0052;
},
{
glyphname = S;
lastChange = "2021-08-11 05:19:26 +0000";
layers = (
{
anchors = (
{
name = bottom;
position = "{857, 0}";
},
{
name = top;
position = "{988, 2681}";
}
);
layerId = "274E8830-0A80-4149-8BE8-CF3C4CCD3F6F";
paths = (
{
closed = 1;
nodes = (
"874 -74 OFFCURVE",
"1066 -35 OFFCURVE",
"1223 44 CURVE SMOOTH",
"1346 105 OFFCURVE",
"1443 196 OFFCURVE",
"1514 316 CURVE SMOOTH",
"1582 431 OFFCURVE",
"1616 557 OFFCURVE",
"1616 692 CURVE SMOOTH",
"1616 828 OFFCURVE",
"1581 953 OFFCURVE",
"1510 1068 CURVE SMOOTH",
"1447 1171 OFFCURVE",
"1321 1279 OFFCURVE",
"1132 1392 CURVE SMOOTH",
"887 1538 OFFCURVE",
"740 1633 OFFCURVE",
"690 1676 CURVE SMOOTH",
"549 1796 OFFCURVE",
"478 1936 OFFCURVE",
"478 2094 CURVE SMOOTH",
"478 2249 OFFCURVE",
"527 2371 OFFCURVE",
"627 2460 CURVE SMOOTH",
"716 2538 OFFCURVE",
"825 2577 OFFCURVE",
"956 2577 CURVE SMOOTH",
"1087 2577 OFFCURVE",
"1201 2539 OFFCURVE",
"1298 2462 CURVE SMOOTH",
"1359 2414 OFFCURVE",
"1389 2339 OFFCURVE",
"1389 2237 CURVE SMOOTH",
"1389 2166 OFFCURVE",
"1380 2110 OFFCURVE",
"1363 2070 CURVE",
"1448 2036 LINE",
"1447 2206 OFFCURVE",
"1474 2366 OFFCURVE",
"1530 2517 CURVE SMOOTH",
"1531 2521 OFFCURVE",
"1532 2526 OFFCURVE",
"1532 2531 CURVE SMOOTH",
"1532 2559 OFFCURVE",
"1501 2588 OFFCURVE",
"1438 2619 CURVE SMOOTH",
"1345 2664 OFFCURVE",
"1221 2687 OFFCURVE",
"1065 2687 CURVE SMOOTH",
"1061 2687 LINE SMOOTH",
"820 2687 OFFCURVE",
"617 2614 OFFCURVE",
"454 2467 CURVE SMOOTH",
"291 2321 OFFCURVE",
"209 2140 OFFCURVE",
"209 1925 CURVE SMOOTH",
"209 1742 OFFCURVE",
"279 1592 OFFCURVE",
"420 1475 CURVE SMOOTH",
"433 1464 OFFCURVE",
"579 1376 OFFCURVE",
"857 1211 CURVE SMOOTH",
"1040 1102 OFFCURVE",
"1162 980 OFFCURVE",
"1223 843 CURVE SMOOTH",
"1263 753 OFFCURVE",
"1283 654 OFFCURVE",
"1283 547 CURVE SMOOTH",
"1283 332 OFFCURVE",
"1210 185 OFFCURVE",
"1065 105 CURVE SMOOTH",
"988 62 OFFCURVE",
"897 41 OFFCURVE",
"792 41 CURVE SMOOTH",
"671 41 OFFCURVE",
"559 67 OFFCURVE",
"456 119 CURVE SMOOTH",
"351 173 OFFCURVE",
"289 238 OFFCURVE",
"270 313 CURVE SMOOTH",
"263 343 OFFCURVE",
"259 448 OFFCURVE",
"259 629 CURVE",
"170 596 LINE",
"172 552 OFFCURVE",
"172 504 OFFCURVE",
"172 452 CURVE SMOOTH",
"172 338 OFFCURVE",
"169 206 OFFCURVE",
"161 57 CURVE SMOOTH",
"160 34 OFFCURVE",
"169 16 OFFCURVE",
"189 5 CURVE SMOOTH",
"286 -48 OFFCURVE",
"439 -74 OFFCURVE",
"648 -74 CURVE SMOOTH"
);
}
);
width = 1743;
}
);
leftKerningGroup = S;
note = S;
rightKerningGroup = S;
unicode = 0053;
},
{
color = 3;
glyphname = Germandbls;
lastChange = "2021-08-11 05:19:26 +0000";
layers = (
{
background = {
hints = (
{
horizontal = 1;
place = "{-10, 94}";
type = Stem;
},
{
horizontal = 1;
place = "{1456, 82}";
type = Stem;
},
{
horizontal = 1;
place = "{2532, 127}";
type = Stem;
},
{
place = "{572, 288}";
type = Stem;
},
{
place = "{1800, 251}";
type = Stem;
},
{
place = "{2096, 304}";
type = Stem;
},
{
horizontal = 1;
place = "{2666, -20}";
target = down;
type = TopGhost;
}
);
paths = (
{
closed = 1;
nodes = (
"2400 1025 OFFCURVE",
"2360 1171 OFFCURVE",
"2280 1272 CURVE SMOOTH",
"2155 1431 OFFCURVE",
"1938 1519 OFFCURVE",
"1631 1538 CURVE",
"1760 1593 OFFCURVE",
"1862 1672 OFFCURVE",
"1936 1774 CURVE SMOOTH",
"2013 1880 OFFCURVE",
"2051 2001 OFFCURVE",
"2051 2136 CURVE SMOOTH",
"2051 2307 OFFCURVE",
"1989 2436 OFFCURVE",
"1864 2521 CURVE SMOOTH",
"1729 2613 OFFCURVE",
"1528 2659 OFFCURVE",
"1261 2659 CURVE SMOOTH",
"1195 2659 OFFCURVE",
"1125 2656 OFFCURVE",
"1050 2650 CURVE SMOOTH",
"761 2629 OFFCURVE",
"473 2634 OFFCURVE",
"185 2666 CURVE",
"148 2587 LINE",
"297 2620 OFFCURVE",
"409 2605 OFFCURVE",
"486 2540 CURVE",
"543 2475 OFFCURVE",
"572 2005 OFFCURVE",
"572 1130 CURVE SMOOTH",
"572 652 OFFCURVE",
"556 359 OFFCURVE",
"524 251 CURVE SMOOTH",
"487 129 OFFCURVE",
"357 70 OFFCURVE",
"132 73 CURVE",
"92 -10 LINE",
"338 7 OFFCURVE",
"517 17 OFFCURVE",
"630 18 CURVE SMOOTH",
"849 19 OFFCURVE",
"970 19 OFFCURVE",
"991 18 CURVE SMOOTH",
"1186 4 OFFCURVE",
"1335 -2 OFFCURVE",
"1440 1 CURVE SMOOTH",
"1719 9 OFFCURVE",
"1942 78 OFFCURVE",
"2111 207 CURVE SMOOTH",
"2304 354 OFFCURVE",
"2400 563 OFFCURVE",
"2400 836 CURVE SMOOTH"
);
},
{
closed = 1;
nodes = (
"2102 602 OFFCURVE",
"2035 417 OFFCURVE",
"1894 280 CURVE SMOOTH",
"1761 149 OFFCURVE",
"1585 84 OFFCURVE",
"1368 84 CURVE SMOOTH",
"1200 84 OFFCURVE",
"1096 88 OFFCURVE",
"1055 97 CURVE SMOOTH",
"956 118 OFFCURVE",
"902 171 OFFCURVE",
"892 256 CURVE SMOOTH",
"871 440 OFFCURVE",
"860 700 OFFCURVE",
"860 1036 CURVE SMOOTH",
"860 1612 LINE SMOOTH",
"860 1969 OFFCURVE",
"869 2235 OFFCURVE",
"888 2411 CURVE SMOOTH",
"894 2468 OFFCURVE",
"936 2505 OFFCURVE",
"1014 2521 CURVE SMOOTH",
"1053 2528 OFFCURVE",
"1136 2532 OFFCURVE",
"1263 2532 CURVE SMOOTH",
"1426 2532 OFFCURVE",
"1557 2484 OFFCURVE",
"1658 2387 CURVE SMOOTH",
"1753 2296 OFFCURVE",
"1800 2186 OFFCURVE",
"1800 2055 CURVE SMOOTH",
"1800 1960 OFFCURVE",
"1773 1870 OFFCURVE",
"1719 1785 CURVE SMOOTH",
"1680 1722 OFFCURVE",
"1615 1667 OFFCURVE",
"1524 1619 CURVE SMOOTH",
"1429 1569 OFFCURVE",
"1335 1544 OFFCURVE",
"1244 1544 CURVE SMOOTH",
"1172 1544 LINE",
"1116 1456 LINE",
"1448 1456 LINE SMOOTH",
"1638 1456 OFFCURVE",
"1791 1402 OFFCURVE",
"1908 1293 CURVE SMOOTH",
"2029 1182 OFFCURVE",
"2091 1029 OFFCURVE",
"2096 835 CURVE SMOOTH"
);
}
);
};
layerId = "274E8830-0A80-4149-8BE8-CF3C4CCD3F6F";
paths = (
{
closed = 1;
nodes = (
"1544 -57 OFFCURVE",
"1635 -31 OFFCURVE",
"1716 22 CURVE SMOOTH",
"1726 29 OFFCURVE",
"1778 73 OFFCURVE",
"1871 154 CURVE SMOOTH",
"2146 394 LINE SMOOTH",
"2234 471 OFFCURVE",
"2278 577 OFFCURVE",
"2278 711 CURVE SMOOTH",
"2278 1137 OFFCURVE",
"1856 1356 OFFCURVE",
"1385 1497 CURVE SMOOTH",
"1318 1518 OFFCURVE",
"1284 1547 OFFCURVE",
"1284 1585 CURVE SMOOTH",
"1284 1668 OFFCURVE",
"2038 2143 OFFCURVE",
"2038 2400 CURVE SMOOTH",
"2038 2671 OFFCURVE",
"1519 2699 OFFCURVE",
"1263 2699 CURVE SMOOTH",
"1197 2699 OFFCURVE",
"1139 2697 OFFCURVE",
"1076 2692 CURVE SMOOTH",
"816 2674 OFFCURVE",
"651 2606 OFFCURVE",
"581 2488 CURVE SMOOTH",
"526 2396 OFFCURVE",
"513 2358 OFFCURVE",
"513 2215 CURVE SMOOTH",
"513 2075 OFFCURVE",
"526 1834 OFFCURVE",
"526 1343 CURVE SMOOTH",
"526 297 OFFCURVE",
"445 73 OFFCURVE",
"132 73 CURVE SMOOTH",
"108 73 OFFCURVE",
"110 41 OFFCURVE",
"92 -10 CURVE",
"196 -1 OFFCURVE",
"384 -4 OFFCURVE",
"495 0 CURVE SMOOTH",
"599 4 OFFCURVE",
"717 -4 OFFCURVE",
"757 29 CURVE SMOOTH",
"789 55 OFFCURVE",
"796 106 OFFCURVE",
"796 161 CURVE SMOOTH",
"796 200 OFFCURVE",
"793 241 OFFCURVE",
"793 278 CURVE SMOOTH",
"802 942 LINE SMOOTH",
"809 1459 OFFCURVE",
"821 1925 OFFCURVE",
"844 2260 CURVE SMOOTH",
"852 2378 OFFCURVE",
"893 2470 OFFCURVE",
"968 2536 CURVE SMOOTH",
"1034 2595 OFFCURVE",
"1115 2625 OFFCURVE",
"1213 2625 CURVE SMOOTH",
"1339 2625 OFFCURVE",
"1448 2592 OFFCURVE",
"1539 2526 CURVE SMOOTH",
"1638 2453 OFFCURVE",
"1688 2359 OFFCURVE",
"1688 2241 CURVE SMOOTH",
"1688 2051 OFFCURVE",
"1313 1780 OFFCURVE",
"1140 1624 CURVE SMOOTH",
"1091 1580 OFFCURVE",
"1067 1534 OFFCURVE",
"1067 1485 CURVE SMOOTH",
"1067 1430 OFFCURVE",
"1101 1382 OFFCURVE",
"1169 1343 CURVE",
"1454 1196 OFFCURVE",
"1730 1116 OFFCURVE",
"1846 969 CURVE SMOOTH",
"1922 872 OFFCURVE",
"1961 749 OFFCURVE",
"1961 597 CURVE SMOOTH",
"1961 409 OFFCURVE",
"1888 265 OFFCURVE",
"1741 163 CURVE SMOOTH",
"1676 118 OFFCURVE",
"1603 96 OFFCURVE",
"1524 96 CURVE SMOOTH",
"1353 96 OFFCURVE",
"1184 185 OFFCURVE",
"1015 362 CURVE",
"1008 371 OFFCURVE",
"1001 375 OFFCURVE",
"994 375 CURVE SMOOTH",
"976 375 OFFCURVE",
"967 349 OFFCURVE",
"967 296 CURVE SMOOTH",
"967 180 OFFCURVE",
"995 100 OFFCURVE",
"1051 57 CURVE SMOOTH",
"1132 -4 OFFCURVE",
"1242 -42 OFFCURVE",
"1381 -55 CURVE SMOOTH",
"1402 -56 OFFCURVE",
"1422 -57 OFFCURVE",
"1441 -57 CURVE SMOOTH"
);
}
);
width = 2369;
}
);
unicode = 1E9E;
},
{
glyphname = Schwa;
lastChange = "2021-08-11 05:19:26 +0000";
layers = (
{
layerId = "274E8830-0A80-4149-8BE8-CF3C4CCD3F6F";
paths = (
{
closed = 1;
nodes = (
"1601.396 0.415 OFFCURVE",
"1974.089 182.621 OFFCURVE",
"2159.055 545.651 CURVE SMOOTH",
"2272 771 OFFCURVE",
"2329 1061 OFFCURVE",
"2329 1416 CURVE SMOOTH",
"2328.837 1453.917 LINE SMOOTH",
"2323.316 1874.922 OFFCURVE",
"2252.918 2181.358 OFFCURVE",
"2117.645 2371.846 CURVE SMOOTH",
"1956.145 2598.222 OFFCURVE",
"1677.315 2711.41 OFFCURVE",
"1281.157 2711.41 CURVE SMOOTH",
"697.271 2712.791 OFFCURVE",
"325.959 2636.872 OFFCURVE",
"168.6 2485.034 CURVE SMOOTH",
"127.189 2446.384 OFFCURVE",
"103.723 2409.115 OFFCURVE",
"96.822 2374.606 CURVE",
"98.202 2262.799 OFFCURVE",
"102.343 2171.696 OFFCURVE",
"110.625 2099.918 CURVE",
"103.723 1921.854 OFFCURVE",
"96.822 1797.623 OFFCURVE",
"91.3 1725.845 CURVE",
"208.63 1781.059 LINE",
"207.249 1800.384 OFFCURVE",
"210.01 1823.849 OFFCURVE",
"215.531 1852.837 CURVE SMOOTH",
"305 2313 OFFCURVE",
"602 2577 OFFCURVE",
"1116 2577 CURVE SMOOTH",
"1148 2577 LINE SMOOTH",
"1495 2568 OFFCURVE",
"1788 2423 OFFCURVE",
"1902 2140 CURVE SMOOTH",
"1963 1983 OFFCURVE",
"1980 1746 OFFCURVE",
"1980 1419 CURVE SMOOTH",
"1980 1363 OFFCURVE",
"1980 1303 OFFCURVE",
"1979 1241 CURVE",
"1781 1223 OFFCURVE",
"1536 1214 OFFCURVE",
"1185 1214 CURVE SMOOTH",
"1141 1214 OFFCURVE",
"1005 1209 OFFCURVE",
"775.951 1201.314 CURVE SMOOTH",
"739 1200 OFFCURVE",
"703 1199 OFFCURVE",
"667 1199 CURVE SMOOTH",
"576 1199 OFFCURVE",
"488 1204 OFFCURVE",
"406.019 1215.118 CURVE SMOOTH",
"382.553 1217.878 OFFCURVE",
"325.959 1157.143 OFFCURVE",
"236.236 1032.912 CURVE SMOOTH",
"161.698 932.147 OFFCURVE",
"109.245 863.13 OFFCURVE",
"78.877 823.1 CURVE",
"76.117 570.497 OFFCURVE",
"152.035 373.108 OFFCURVE",
"306.634 230.933 CURVE SMOOTH",
"473.656 77.715 OFFCURVE",
"717.976 0.415 OFFCURVE",
"1040.977 0.415 CURVE SMOOTH"
);
},
{
closed = 1;
nodes = (
"774 129 OFFCURVE",
"536 319 OFFCURVE",
"443 628 CURVE SMOOTH",
"423 696 OFFCURVE",
"414 755 OFFCURVE",
"414 809 CURVE SMOOTH",
"414 918 OFFCURVE",
"471 1009 OFFCURVE",
"545 1020 CURVE SMOOTH",
"688 1041 OFFCURVE",
"913 1055 OFFCURVE",
"1220 1063 CURVE SMOOTH",
"1330 1066 OFFCURVE",
"1427 1067 OFFCURVE",
"1512 1067 CURVE SMOOTH",
"1739 1067 OFFCURVE",
"1882 1058 OFFCURVE",
"1965 1041 CURVE",
"1958 957 OFFCURVE",
"1954 873 OFFCURVE",
"1950 847 CURVE SMOOTH",
"1883 391 OFFCURVE",
"1563 129 OFFCURVE",
"1112 129 CURVE SMOOTH"
);
}
);
width = 2409;
}
);
unicode = 018F;
},
{
glyphname = T;
lastChange = "2021-08-11 05:19:26 +0000";
layers = (
{
anchors = (
{
name = bottom;
position = "{1187, 51}";
},
{
name = center;
position = "{1259, 1341}";
},
{
name = top;
position = "{1225, 2642}";
}
);
layerId = "274E8830-0A80-4149-8BE8-CF3C4CCD3F6F";
paths = (
{
closed = 1;
nodes = (
"890 15 OFFCURVE",
"1109 28 OFFCURVE",
"1218 29 CURVE SMOOTH",
"1277 29 LINE SMOOTH",
"1549 29 OFFCURVE",
"1732 16 OFFCURVE",
"1827 -10 CURVE",
"1872 78 LINE",
"1845 75 OFFCURVE",
"1819 74 OFFCURVE",
"1792 74 CURVE SMOOTH",
"1729 74 OFFCURVE",
"1666 82 OFFCURVE",
"1603 99 CURVE SMOOTH",
"1490 130 OFFCURVE",
"1427 181 OFFCURVE",
"1414 254 CURVE",
"1395 418 OFFCURVE",
"1385 698 OFFCURVE",
"1385 1095 CURVE SMOOTH",
"1385 1629 LINE SMOOTH",
"1385 2118 OFFCURVE",
"1396 2393 OFFCURVE",
"1418 2455 CURVE SMOOTH",
"1435 2502 OFFCURVE",
"1477 2526 OFFCURVE",
"1546 2526 CURVE SMOOTH",
"1955 2526 OFFCURVE",
"2178 2490 OFFCURVE",
"2215 2417 CURVE SMOOTH",
"2234 2379 OFFCURVE",
"2244 2331 OFFCURVE",
"2244 2273 CURVE SMOOTH",
"2244 2210 OFFCURVE",
"2232 2134 OFFCURVE",
"2210 2046 CURVE",
"2283 2020 LINE",
"2283 2062 OFFCURVE",
"2298 2158 OFFCURVE",
"2329 2308 CURVE SMOOTH",
"2362 2466 OFFCURVE",
"2394 2590 OFFCURVE",
"2424 2681 CURVE",
"2067 2655 OFFCURVE",
"1668 2642 OFFCURVE",
"1225 2642 CURVE SMOOTH",
"874 2642 OFFCURVE",
"524 2655 OFFCURVE",
"173 2681 CURVE",
"142 2435 OFFCURVE",
"113 2226 OFFCURVE",
"88 2055 CURVE",
"164 2024 LINE",
"178 2183 OFFCURVE",
"218 2315 OFFCURVE",
"283 2420 CURVE SMOOTH",
"327 2491 OFFCURVE",
"534 2526 OFFCURVE",
"903 2526 CURVE SMOOTH",
"982 2526 OFFCURVE",
"1027 2505 OFFCURVE",
"1037 2464 CURVE SMOOTH",
"1044 2439 OFFCURVE",
"1052 2317 OFFCURVE",
"1061 2100 CURVE SMOOTH",
"1071 1888 OFFCURVE",
"1076 1731 OFFCURVE",
"1076 1629 CURVE SMOOTH",
"1076 1066 LINE SMOOTH",
"1076 722 OFFCURVE",
"1065 453 OFFCURVE",
"1043 258 CURVE",
"1012 129 OFFCURVE",
"887 65 OFFCURVE",
"667 65 CURVE SMOOTH",
"640 65 OFFCURVE",
"617 67 OFFCURVE",
"599 70 CURVE",
"560 -10 LINE"
);
}
);
width = 2517;
}
);
leftKerningGroup = T;
note = T;
rightKerningGroup = T;
unicode = 0054;
},
{
glyphname = U;
lastChange = "2021-08-11 05:19:26 +0000";
layers = (
{
anchors = (
{
name = bottom;
position = "{1647, 0}";
},
{
name = ogonek;
position = "{2062, 10}";
},
{
name = top;
position = "{1647, 2681}";
},
{
name = topright;
position = "{2845, 2681}";
}
);
layerId = "274E8830-0A80-4149-8BE8-CF3C4CCD3F6F";
paths = (
{
closed = 1;
nodes = (
"1974 -79 OFFCURVE",
"2232 -1 OFFCURVE",
"2432 154 CURVE SMOOTH",
"2687 353 OFFCURVE",
"2815 660 OFFCURVE",
"2815 1076 CURVE SMOOTH",
"2815 1902 LINE SMOOTH",
"2815 2223 OFFCURVE",
"2836 2427 OFFCURVE",
"2879 2514 CURVE",
"2934 2580 OFFCURVE",
"3013 2612 OFFCURVE",
"3118 2612 CURVE SMOOTH",
"3140 2612 OFFCURVE",
"3162 2611 OFFCURVE",
"3186 2608 CURVE",
"3242 2681 LINE",
"3071 2662 OFFCURVE",
"2880 2648 OFFCURVE",
"2671 2639 CURVE",
"2425 2652 OFFCURVE",
"2253 2664 OFFCURVE",
"2154 2675 CURVE",
"2117 2596 LINE",
"2152 2604 OFFCURVE",
"2192 2608 OFFCURVE",
"2236 2608 CURVE SMOOTH",
"2260 2608 OFFCURVE",
"2286 2606 OFFCURVE",
"2313 2604 CURVE SMOOTH",
"2400 2597 OFFCURVE",
"2462 2578 OFFCURVE",
"2497 2549 CURVE",
"2582 2453 OFFCURVE",
"2623 2155 OFFCURVE",
"2624 1654 CURVE SMOOTH",
"2625 1012 LINE SMOOTH",
"2625 710 OFFCURVE",
"2545 476 OFFCURVE",
"2386 309 CURVE SMOOTH",
"2218 134 OFFCURVE",
"1974 46 OFFCURVE",
"1654 46 CURVE SMOOTH",
"1077 46 OFFCURVE",
"789 359 OFFCURVE",
"789 986 CURVE SMOOTH",
"788 1393 OFFCURVE",
"788 1591 OFFCURVE",
"787 1579 CURVE",
"787 1612 LINE SMOOTH",
"787 2119 OFFCURVE",
"810 2419 OFFCURVE",
"856 2514 CURVE",
"911 2580 OFFCURVE",
"990 2612 OFFCURVE",
"1095 2612 CURVE SMOOTH",
"1117 2612 OFFCURVE",
"1139 2611 OFFCURVE",
"1163 2608 CURVE",
"1219 2681 LINE",
"1048 2662 OFFCURVE",
"857 2648 OFFCURVE",
"648 2639 CURVE",
"377 2653 OFFCURVE",
"198 2665 OFFCURVE",
"111 2675 CURVE",
"74 2596 LINE",
"124 2607 OFFCURVE",
"171 2613 OFFCURVE",
"213 2613 CURVE SMOOTH",
"295 2613 OFFCURVE",
"362 2591 OFFCURVE",
"413 2549 CURVE",
"470 2484 OFFCURVE",
"499 2153 OFFCURVE",
"499 1556 CURVE SMOOTH",
"499 888 LINE SMOOTH",
"499 540 OFFCURVE",
"602 288 OFFCURVE",
"807 133 CURVE SMOOTH",
"993 -8 OFFCURVE",
"1277 -79 OFFCURVE",
"1659 -79 CURVE SMOOTH"
);
}
);
width = 3294;
}
);
note = U;
rightKerningGroup = U;
unicode = 0055;
},
{
color = 6;
glyphname = Uhorn;
lastChange = "2021-08-11 05:19:26 +0000";
layers = (
{
anchors = (
{
name = bottom;
position = "{1647, 0}";
},
{
name = ogonek;
position = "{2965, 10}";
},
{
name = top;
position = "{1647, 2681}";
},
{
name = topright;
position = "{2845, 2681}";
}
);
layerId = "274E8830-0A80-4149-8BE8-CF3C4CCD3F6F";
paths = (
{
closed = 1;
nodes = (
"1974 -79 OFFCURVE",
"2232 -1 OFFCURVE",
"2432 154 CURVE SMOOTH",
"2687 353 OFFCURVE",
"2815 660 OFFCURVE",
"2815 1076 CURVE SMOOTH",
"2815 1902 LINE SMOOTH",
"2815 2223 OFFCURVE",
"2836 2427 OFFCURVE",
"2879 2514 CURVE",
"2936 2582 OFFCURVE",
"2980 2625 OFFCURVE",
"3081 2625 CURVE SMOOTH",
"3097 2625 OFFCURVE",
"3114 2624 OFFCURVE",
"3133 2622 CURVE",
"3185 2681 LINE",
"3014 2662 OFFCURVE",
"2880 2648 OFFCURVE",
"2671 2639 CURVE",
"2425 2652 OFFCURVE",
"2253 2664 OFFCURVE",
"2154 2675 CURVE",
"2117 2596 LINE",
"2152 2604 OFFCURVE",
"2192 2608 OFFCURVE",
"2236 2608 CURVE SMOOTH",
"2260 2608 OFFCURVE",
"2286 2606 OFFCURVE",
"2313 2604 CURVE SMOOTH",
"2400 2597 OFFCURVE",
"2462 2578 OFFCURVE",
"2497 2549 CURVE",
"2582 2453 OFFCURVE",
"2623 2155 OFFCURVE",
"2624 1654 CURVE SMOOTH",
"2625 1012 LINE SMOOTH",
"2625 710 OFFCURVE",
"2545 476 OFFCURVE",
"2386 309 CURVE SMOOTH",
"2218 134 OFFCURVE",
"1974 46 OFFCURVE",
"1654 46 CURVE SMOOTH",
"1077 46 OFFCURVE",
"789 359 OFFCURVE",
"789 986 CURVE SMOOTH",
"788 1393 OFFCURVE",
"788 1591 OFFCURVE",
"787 1579 CURVE",
"787 1612 LINE SMOOTH",
"787 2119 OFFCURVE",
"810 2419 OFFCURVE",
"856 2514 CURVE",
"911 2580 OFFCURVE",
"990 2612 OFFCURVE",
"1095 2612 CURVE SMOOTH",
"1117 2612 OFFCURVE",
"1139 2611 OFFCURVE",
"1163 2608 CURVE",
"1219 2681 LINE",
"1048 2662 OFFCURVE",
"857 2648 OFFCURVE",
"648 2639 CURVE",
"377 2653 OFFCURVE",
"198 2665 OFFCURVE",
"111 2675 CURVE",
"74 2596 LINE",
"124 2607 OFFCURVE",
"171 2613 OFFCURVE",
"213 2613 CURVE SMOOTH",
"295 2613 OFFCURVE",
"362 2591 OFFCURVE",
"413 2549 CURVE",
"470 2484 OFFCURVE",
"499 2153 OFFCURVE",
"499 1556 CURVE SMOOTH",
"499 888 LINE SMOOTH",
"499 540 OFFCURVE",
"602 288 OFFCURVE",
"807 133 CURVE SMOOTH",
"993 -8 OFFCURVE",
"1277 -79 OFFCURVE",
"1659 -79 CURVE SMOOTH"
);
},
{
closed = 1;
nodes = (
"2748 2563 OFFCURVE",
"2807 2559 OFFCURVE",
"2859 2559 CURVE SMOOTH",
"3123 2559 OFFCURVE",
"3245 2658 OFFCURVE",
"3245 2856 CURVE SMOOTH",
"3245 2937 OFFCURVE",
"3219 3038 OFFCURVE",
"3213 3063 CURVE",
"2993 2936 LINE",
"3007 2872 OFFCURVE",
"3018 2798 OFFCURVE",
"3018 2785 CURVE SMOOTH",
"3018 2705 OFFCURVE",
"2917 2632 OFFCURVE",
"2701 2632 CURVE",
"2684 2571 LINE"
);
}
);
width = 3294;
}
);
unicode = 01AF;
},
{
glyphname = V;
lastChange = "2021-08-11 05:19:26 +0000";
layers = (
{
layerId = "274E8830-0A80-4149-8BE8-CF3C4CCD3F6F";
paths = (
{
closed = 1;
nodes = (
"1570 -111 LINE",
"1624 154 OFFCURVE",
"1792 623 OFFCURVE",
"2073 1296 CURVE SMOOTH",
"2380 2032 OFFCURVE",
"2602 2441 OFFCURVE",
"2739 2522 CURVE SMOOTH",
"2826 2574 OFFCURVE",
"2913 2600 OFFCURVE",
"3001 2601 CURVE",
"3045 2675 LINE",
"2892 2660 OFFCURVE",
"2775 2653 OFFCURVE",
"2696 2653 CURVE SMOOTH",
"2537 2647 OFFCURVE",
"2470 2644 OFFCURVE",
"2496 2644 CURVE SMOOTH",
"2512 2644 OFFCURVE",
"2445 2647 OFFCURVE",
"2295 2654 CURVE SMOOTH",
"2138 2661 OFFCURVE",
"2042 2667 OFFCURVE",
"2007 2674 CURVE",
"1949 2587 LINE",
"1980 2592 OFFCURVE",
"2013 2595 OFFCURVE",
"2050 2595 CURVE SMOOTH",
"2217 2595 OFFCURVE",
"2301 2546 OFFCURVE",
"2301 2449 CURVE SMOOTH",
"2301 2343 OFFCURVE",
"2198 2009 OFFCURVE",
"1992 1447 CURVE SMOOTH",
"1804 934 OFFCURVE",
"1667 590 OFFCURVE",
"1582 416 CURVE SMOOTH",
"1569 391 OFFCURVE",
"1558 378 OFFCURVE",
"1549 378 CURVE SMOOTH",
"1539 378 OFFCURVE",
"1528 393 OFFCURVE",
"1515 424 CURVE SMOOTH",
"1406 706 OFFCURVE",
"1327 918 OFFCURVE",
"1276 1061 CURVE SMOOTH",
"992 1808 OFFCURVE",
"850 2273 OFFCURVE",
"850 2456 CURVE SMOOTH",
"850 2505 OFFCURVE",
"886 2541 OFFCURVE",
"957 2566 CURVE SMOOTH",
"1008 2585 OFFCURVE",
"1064 2594 OFFCURVE",
"1123 2594 CURVE SMOOTH",
"1139 2594 OFFCURVE",
"1153 2593 OFFCURVE",
"1164 2592 CURVE",
"1219 2680 LINE",
"1000 2655 OFFCURVE",
"809 2643 OFFCURVE",
"648 2643 CURVE SMOOTH",
"650 2643 OFFCURVE",
"576 2647 OFFCURVE",
"426 2654 CURVE SMOOTH",
"263 2662 OFFCURVE",
"158 2669 OFFCURVE",
"111 2674 CURVE",
"74 2595 LINE",
"98 2600 OFFCURVE",
"128 2602 OFFCURVE",
"165 2602 CURVE SMOOTH",
"281 2602 OFFCURVE",
"365 2580 OFFCURVE",
"418 2537 CURVE SMOOTH",
"453 2508 OFFCURVE",
"549 2279 OFFCURVE",
"705 1851 CURVE SMOOTH",
"983 1065 LINE SMOOTH",
"1069 828 OFFCURVE",
"1138 633 OFFCURVE",
"1189 480 CURVE SMOOTH",
"1228 359 OFFCURVE",
"1256 267 OFFCURVE",
"1275 206 CURVE SMOOTH",
"1291 162 OFFCURVE",
"1332 104 OFFCURVE",
"1398 32 CURVE SMOOTH",
"1471 -47 OFFCURVE",
"1516 -102 OFFCURVE",
"1532 -132 CURVE"
);
}
);
width = 3058;
}
);
leftKerningGroup = V;
note = V;
unicode = 0056;
},
{
glyphname = W;
lastChange = "2021-08-11 05:19:26 +0000";
layers = (
{
anchors = (
{
name = bottom;
position = "{2125, 0}";
},
{
name = top;
position = "{2125, 2681}";
}
);
layerId = "274E8830-0A80-4149-8BE8-CF3C4CCD3F6F";
paths = (
{
closed = 1;
nodes = (
"1570 -111 LINE",
"1615 109 OFFCURVE",
"1773 562 OFFCURVE",
"2044 1247 CURVE",
"2109 1065 LINE SMOOTH",
"2194 827 OFFCURVE",
"2263 632 OFFCURVE",
"2314 480 CURVE SMOOTH",
"2353 359 OFFCURVE",
"2382 267 OFFCURVE",
"2401 206 CURVE SMOOTH",
"2417 162 OFFCURVE",
"2458 104 OFFCURVE",
"2524 32 CURVE SMOOTH",
"2597 -47 OFFCURVE",
"2641 -102 OFFCURVE",
"2657 -132 CURVE",
"2695 -111 LINE",
"2749 154 OFFCURVE",
"2917 623 OFFCURVE",
"3198 1296 CURVE SMOOTH",
"3505 2032 OFFCURVE",
"3727 2441 OFFCURVE",
"3864 2522 CURVE SMOOTH",
"3951 2574 OFFCURVE",
"4039 2600 OFFCURVE",
"4127 2601 CURVE",
"4170 2675 LINE",
"4017 2660 OFFCURVE",
"3900 2653 OFFCURVE",
"3821 2653 CURVE SMOOTH",
"3662 2647 OFFCURVE",
"3596 2644 OFFCURVE",
"3622 2644 CURVE SMOOTH",
"3638 2644 OFFCURVE",
"3571 2647 OFFCURVE",
"3420 2654 CURVE SMOOTH",
"3263 2661 OFFCURVE",
"3167 2667 OFFCURVE",
"3132 2674 CURVE",
"3074 2587 LINE",
"3105 2592 OFFCURVE",
"3139 2595 OFFCURVE",
"3176 2595 CURVE SMOOTH",
"3343 2595 OFFCURVE",
"3427 2546 OFFCURVE",
"3427 2449 CURVE SMOOTH",
"3427 2343 OFFCURVE",
"3324 2009 OFFCURVE",
"3118 1448 CURVE SMOOTH",
"2929 934 OFFCURVE",
"2792 590 OFFCURVE",
"2707 416 CURVE SMOOTH",
"2695 391 OFFCURVE",
"2684 378 OFFCURVE",
"2675 378 CURVE SMOOTH",
"2665 378 OFFCURVE",
"2653 393 OFFCURVE",
"2640 424 CURVE SMOOTH",
"2531 706 OFFCURVE",
"2452 918 OFFCURVE",
"2402 1061 CURVE SMOOTH",
"2357 1178 OFFCURVE",
"2292 1373 OFFCURVE",
"2207 1646 CURVE",
"2434 2189 OFFCURVE",
"2582 2481 OFFCURVE",
"2650 2522 CURVE SMOOTH",
"2711 2559 OFFCURVE",
"2755 2577 OFFCURVE",
"2781 2577 CURVE",
"2824 2651 LINE",
"2775 2647 OFFCURVE",
"2729 2644 OFFCURVE",
"2686 2644 CURVE SMOOTH",
"2651 2644 OFFCURVE",
"2618 2646 OFFCURVE",
"2586 2649 CURVE SMOOTH",
"2538 2654 OFFCURVE",
"2499 2656 OFFCURVE",
"2468 2656 CURVE SMOOTH",
"2410 2656 OFFCURVE",
"2381 2648 OFFCURVE",
"2381 2633 CURVE SMOOTH",
"2381 2548 OFFCURVE",
"2302 2286 OFFCURVE",
"2145 1846 CURVE",
"2024 2242 OFFCURVE",
"1956 2498 OFFCURVE",
"1941 2615 CURVE SMOOTH",
"1938 2638 OFFCURVE",
"1882 2651 OFFCURVE",
"1771 2654 CURVE SMOOTH",
"1552 2654 LINE",
"1510 2654 LINE SMOOTH",
"1450 2654 OFFCURVE",
"1413 2652 OFFCURVE",
"1401 2650 CURVE",
"1364 2571 LINE",
"1385 2575 OFFCURVE",
"1405 2577 OFFCURVE",
"1424 2577 CURVE SMOOTH",
"1470 2577 OFFCURVE",
"1510 2564 OFFCURVE",
"1543 2537 CURVE SMOOTH",
"1589 2500 OFFCURVE",
"1737 2126 OFFCURVE",
"1986 1415 CURVE",
"1792 904 OFFCURVE",
"1657 571 OFFCURVE",
"1582 416 CURVE SMOOTH",
"1569 391 OFFCURVE",
"1558 378 OFFCURVE",
"1549 378 CURVE SMOOTH",
"1539 378 OFFCURVE",
"1528 393 OFFCURVE",
"1515 424 CURVE SMOOTH",
"1406 706 OFFCURVE",
"1327 918 OFFCURVE",
"1276 1061 CURVE SMOOTH",
"992 1808 OFFCURVE",
"850 2273 OFFCURVE",
"850 2456 CURVE SMOOTH",
"850 2505 OFFCURVE",
"886 2541 OFFCURVE",
"957 2566 CURVE SMOOTH",
"1008 2585 OFFCURVE",
"1064 2594 OFFCURVE",
"1123 2594 CURVE SMOOTH",
"1139 2594 OFFCURVE",
"1153 2593 OFFCURVE",
"1164 2592 CURVE",
"1219 2680 LINE",
"1000 2655 OFFCURVE",
"809 2643 OFFCURVE",
"648 2643 CURVE SMOOTH",
"650 2643 OFFCURVE",
"576 2647 OFFCURVE",
"426 2654 CURVE SMOOTH",
"263 2662 OFFCURVE",
"158 2669 OFFCURVE",
"111 2674 CURVE",
"74 2595 LINE",
"98 2600 OFFCURVE",
"128 2602 OFFCURVE",
"165 2602 CURVE SMOOTH",
"281 2602 OFFCURVE",
"365 2580 OFFCURVE",
"418 2537 CURVE SMOOTH",
"453 2508 OFFCURVE",
"549 2279 OFFCURVE",
"705 1851 CURVE SMOOTH",
"983 1065 LINE SMOOTH",
"1069 827 OFFCURVE",
"1138 632 OFFCURVE",
"1189 480 CURVE SMOOTH",
"1228 359 OFFCURVE",
"1256 267 OFFCURVE",
"1275 206 CURVE SMOOTH",
"1291 162 OFFCURVE",
"1332 104 OFFCURVE",
"1398 32 CURVE SMOOTH",
"1471 -47 OFFCURVE",
"1516 -102 OFFCURVE",
"1532 -132 CURVE"
);
}
);
width = 4249;
}
);
leftKerningGroup = V;
note = W;
unicode = 0057;
},
{
glyphname = X;
lastChange = "2021-08-11 05:19:26 +0000";
layers = (
{
layerId = "274E8830-0A80-4149-8BE8-CF3C4CCD3F6F";
paths = (
{
closed = 1;
nodes = (
"3022 76 LINE",
"2743 89 OFFCURVE",
"2568 138 OFFCURVE",
"2498 221 CURVE SMOOTH",
"2311 442 OFFCURVE",
"2027 845 OFFCURVE",
"1645 1430 CURVE",
"1976 1928 OFFCURVE",
"2215 2269 OFFCURVE",
"2363 2452 CURVE SMOOTH",
"2409 2509 OFFCURVE",
"2490 2548 OFFCURVE",
"2607 2570 CURVE",
"2837 2598 LINE",
"2883 2674 LINE",
"2508 2658 OFFCURVE",
"2314 2650 OFFCURVE",
"2300 2650 CURVE SMOOTH",
"2257 2650 OFFCURVE",
"2158 2654 OFFCURVE",
"2003 2662 CURVE SMOOTH",
"1848 2670 OFFCURVE",
"1761 2674 OFFCURVE",
"1743 2674 CURVE",
"1701 2598 LINE",
"1979 2598 OFFCURVE",
"2117 2553 OFFCURVE",
"2116 2464 CURVE",
"2057 2334 OFFCURVE",
"1874 2029 OFFCURVE",
"1569 1548 CURVE",
"1256 2033 OFFCURVE",
"1084 2335 OFFCURVE",
"1052 2456 CURVE SMOOTH",
"1050 2463 OFFCURVE",
"1049 2471 OFFCURVE",
"1049 2478 CURVE SMOOTH",
"1049 2555 OFFCURVE",
"1129 2594 OFFCURVE",
"1289 2594 CURVE SMOOTH",
"1305 2594 OFFCURVE",
"1319 2593 OFFCURVE",
"1330 2592 CURVE",
"1362 2680 LINE",
"1149 2655 OFFCURVE",
"955 2643 OFFCURVE",
"780 2643 CURVE SMOOTH",
"768 2643 OFFCURVE",
"686 2647 OFFCURVE",
"535 2654 CURVE SMOOTH",
"370 2662 OFFCURVE",
"263 2669 OFFCURVE",
"214 2674 CURVE",
"198 2595 LINE",
"190 2593 OFFCURVE",
"223 2592 OFFCURVE",
"297 2592 CURVE SMOOTH",
"416 2592 OFFCURVE",
"503 2574 OFFCURVE",
"557 2537 CURVE SMOOTH",
"620 2494 OFFCURVE",
"907 2086 OFFCURVE",
"1418 1313 CURVE",
"1103 824 OFFCURVE",
"871 481 OFFCURVE",
"724 284 CURVE SMOOTH",
"618 141 OFFCURVE",
"411 69 OFFCURVE",
"103 69 CURVE",
"71 -10 LINE",
"254 9 OFFCURVE",
"415 19 OFFCURVE",
"556 19 CURVE SMOOTH",
"837 19 OFFCURVE",
"1052 11 OFFCURVE",
"1201 -6 CURVE",
"1247 82 LINE",
"1236 81 OFFCURVE",
"1205 80 OFFCURVE",
"1155 80 CURVE SMOOTH",
"1002 80 OFFCURVE",
"925 118 OFFCURVE",
"925 194 CURVE SMOOTH",
"925 202 OFFCURVE",
"926 210 OFFCURVE",
"928 218 CURVE SMOOTH",
"961 343 OFFCURVE",
"1150 670 OFFCURVE",
"1493 1199 CURVE",
"1786 753 OFFCURVE",
"1978 445 OFFCURVE",
"2069 274 CURVE SMOOTH",
"2084 245 OFFCURVE",
"2092 220 OFFCURVE",
"2092 197 CURVE SMOOTH",
"2092 116 OFFCURVE",
"2006 76 OFFCURVE",
"1835 76 CURVE",
"1798 -6 LINE",
"1922 8 OFFCURVE",
"2120 18 OFFCURVE",
"2392 24 CURVE SMOOTH",
"2443 24 LINE SMOOTH",
"2599 24 OFFCURVE",
"2778 12 OFFCURVE",
"2980 -14 CURVE"
);
}
);
width = 3058;
}
);
note = X;
unicode = 0058;
},
{
glyphname = Y;
lastChange = "2021-08-11 05:19:26 +0000";
layers = (
{
anchors = (
{
name = bottom;
position = "{1408, 0}";
},
{
name = top;
position = "{1408, 2681}";
},
{
name = topleft;
position = "{20, 2681}";
}
);
layerId = "274E8830-0A80-4149-8BE8-CF3C4CCD3F6F";
paths = (
{
closed = 1;
nodes = (
"1010 15 OFFCURVE",
"1229 28 OFFCURVE",
"1338 29 CURVE SMOOTH",
"1398 29 LINE SMOOTH",
"1670 29 OFFCURVE",
"1853 16 OFFCURVE",
"1947 -10 CURVE",
"1992 78 LINE",
"1964 75 OFFCURVE",
"1937 74 OFFCURVE",
"1910 74 CURVE SMOOTH",
"1845 74 OFFCURVE",
"1781 82 OFFCURVE",
"1717 98 CURVE SMOOTH",
"1598 128 OFFCURVE",
"1535 180 OFFCURVE",
"1526 254 CURVE SMOOTH",
"1508 410 OFFCURVE",
"1499 555 OFFCURVE",
"1499 690 CURVE SMOOTH",
"1499 1016 OFFCURVE",
"1551 1275 OFFCURVE",
"1656 1467 CURVE SMOOTH",
"1905 1921 OFFCURVE",
"2115 2246 OFFCURVE",
"2286 2442 CURVE SMOOTH",
"2366 2534 OFFCURVE",
"2487 2580 OFFCURVE",
"2649 2580 CURVE SMOOTH",
"2673 2580 OFFCURVE",
"2699 2579 OFFCURVE",
"2725 2577 CURVE",
"2768 2664 LINE",
"2421 2648 OFFCURVE",
"2240 2640 OFFCURVE",
"2227 2640 CURVE SMOOTH",
"2170 2640 OFFCURVE",
"2137 2634 OFFCURVE",
"2127 2623 CURVE SMOOTH",
"2072 2561 OFFCURVE",
"1967 2391 OFFCURVE",
"1813 2113 CURVE SMOOTH",
"1654 1824 OFFCURVE",
"1524 1568 OFFCURVE",
"1423 1343 CURVE",
"1334 1574 OFFCURVE",
"1211 1847 OFFCURVE",
"1053 2164 CURVE SMOOTH",
"894 2485 OFFCURVE",
"800 2646 OFFCURVE",
"773 2646 CURVE SMOOTH",
"642 2646 OFFCURVE",
"524 2649 OFFCURVE",
"419 2654 CURVE SMOOTH",
"212 2665 OFFCURVE",
"98 2671 OFFCURVE",
"77 2674 CURVE",
"62 2595 LINE",
"55 2593 OFFCURVE",
"85 2592 OFFCURVE",
"154 2592 CURVE SMOOTH",
"295 2592 OFFCURVE",
"390 2574 OFFCURVE",
"440 2537 CURVE SMOOTH",
"482 2506 OFFCURVE",
"563 2400 OFFCURVE",
"684 2220 CURVE SMOOTH",
"841 1985 OFFCURVE",
"972 1742 OFFCURVE",
"1076 1493 CURVE SMOOTH",
"1169 1268 OFFCURVE",
"1216 1004 OFFCURVE",
"1216 701 CURVE SMOOTH",
"1216 539 OFFCURVE",
"1201 390 OFFCURVE",
"1172 254 CURVE SMOOTH",
"1144 128 OFFCURVE",
"1018 65 OFFCURVE",
"794 65 CURVE SMOOTH",
"763 65 OFFCURVE",
"738 67 OFFCURVE",
"719 70 CURVE",
"680 -10 LINE"
);
}
);
width = 2815;
}
);
note = Y;
unicode = 0059;
},
{
glyphname = Z;
lastChange = "2021-08-11 05:19:26 +0000";
layers = (
{
anchors = (
{
name = bottom;
position = "{1187, 0}";
},
{
name = center;
position = "{1187, 1341}";
},
{
name = top;
position = "{1187, 2681}";
}
);
layerId = "274E8830-0A80-4149-8BE8-CF3C4CCD3F6F";
paths = (
{
closed = 1;
nodes = (
"205 -34 LINE SMOOTH",
"318 -4 OFFCURVE",
"446 11 OFFCURVE",
"589 11 CURVE SMOOTH",
"628 11 LINE SMOOTH",
"1293 -1 OFFCURVE",
"1708 -13 OFFCURVE",
"1875 -25 CURVE SMOOTH",
"1903 -27 OFFCURVE",
"1927 -28 OFFCURVE",
"1946 -28 CURVE SMOOTH",
"2009 -28 OFFCURVE",
"2052 -16 OFFCURVE",
"2075 8 CURVE SMOOTH",
"2099 32 OFFCURVE",
"2116 79 OFFCURVE",
"2127 148 CURVE",
"2175 341 OFFCURVE",
"2217 487 OFFCURVE",
"2252 588 CURVE",
"2196 606 LINE",
"2182 549 OFFCURVE",
"2151 477 OFFCURVE",
"2104 392 CURVE SMOOTH",
"2051 296 OFFCURVE",
"2004 233 OFFCURVE",
"1961 203 CURVE SMOOTH",
"1883 148 OFFCURVE",
"1674 120 OFFCURVE",
"1334 120 CURVE SMOOTH",
"860 120 OFFCURVE",
"638 119 OFFCURVE",
"669 117 CURVE SMOOTH",
"649 118 OFFCURVE",
"638 126 OFFCURVE",
"638 140 CURVE SMOOTH",
"638 147 OFFCURVE",
"641 156 OFFCURVE",
"647 167 CURVE SMOOTH",
"815 489 OFFCURVE",
"944 738 OFFCURVE",
"1035 915 CURVE",
"1533 1792 LINE",
"1756 2159 OFFCURVE",
"1920 2423 OFFCURVE",
"2026 2585 CURVE",
"2007 2648 LINE",
"1642 2631 OFFCURVE",
"1438 2623 OFFCURVE",
"1395 2623 CURVE SMOOTH",
"1123 2623 LINE SMOOTH",
"882 2623 OFFCURVE",
"593 2632 OFFCURVE",
"255 2649 CURVE",
"211 2588 LINE",
"220 2435 OFFCURVE",
"224 2304 OFFCURVE",
"224 2197 CURVE SMOOTH",
"224 2122 OFFCURVE",
"222 2058 OFFCURVE",
"218 2006 CURVE",
"307 2060 LINE",
"306 2080 OFFCURVE",
"306 2153 OFFCURVE",
"306 2278 CURVE SMOOTH",
"306 2371 OFFCURVE",
"351 2434 OFFCURVE",
"441 2467 CURVE SMOOTH",
"511 2493 OFFCURVE",
"641 2509 OFFCURVE",
"831 2516 CURVE SMOOTH",
"1016 2522 OFFCURVE",
"1199 2525 OFFCURVE",
"1380 2525 CURVE SMOOTH",
"1426 2525 OFFCURVE",
"1472 2524 OFFCURVE",
"1518 2524 CURVE SMOOTH",
"1545 2524 OFFCURVE",
"1559 2516 OFFCURVE",
"1559 2500 CURVE SMOOTH",
"1559 2494 OFFCURVE",
"1557 2488 OFFCURVE",
"1554 2480 CURVE SMOOTH",
"1442 2222 OFFCURVE",
"1291 1928 OFFCURVE",
"1102 1599 CURVE SMOOTH",
"770 1019 LINE",
"658 847 OFFCURVE",
"546 675 OFFCURVE",
"435 502 CURVE SMOOTH",
"255 221 OFFCURVE",
"166 52 OFFCURVE",
"167 -4 CURVE",
"194 -37 LINE"
);
}
);
width = 2373;
}
);
note = Z;
unicode = 005A;
},
{
glyphname = a;
lastChange = "2021-08-11 05:22:52 +0000";
layers = (
{
anchors = (
{
name = bottom;
position = "{915, 0}";
},
{
name = ogonek;
position = "{1813, 10}";
},
{
name = top;
position = "{916, 1912}";
}
);
layerId = "274E8830-0A80-4149-8BE8-CF3C4CCD3F6F";
paths = (
{
closed = 1;
nodes = (
"1521 -28 OFFCURVE",
"1600 -24 OFFCURVE",
"1709 -17 CURVE SMOOTH",
"1810 -11 OFFCURVE",
"1888 -9 OFFCURVE",
"1944 -10 CURVE",
"1995 87 LINE",
"1974 78 OFFCURVE",
"1943 74 OFFCURVE",
"1901 74 CURVE SMOOTH",
"1877 74 OFFCURVE",
"1850 75 OFFCURVE",
"1819 78 CURVE SMOOTH",
"1695 90 OFFCURVE",
"1624 138 OFFCURVE",
"1606 222 CURVE SMOOTH",
"1581 338 OFFCURVE",
"1568 555 OFFCURVE",
"1568 874 CURVE SMOOTH",
"1568 934 OFFCURVE",
"1571 1024 OFFCURVE",
"1576 1144 CURVE SMOOTH",
"1581 1265 OFFCURVE",
"1584 1355 OFFCURVE",
"1584 1415 CURVE SMOOTH",
"1584 1741 OFFCURVE",
"1410 1904 OFFCURVE",
"1062 1904 CURVE SMOOTH",
"906 1904 OFFCURVE",
"759 1886 OFFCURVE",
"621 1851 CURVE SMOOTH",
"440 1805 OFFCURVE",
"314 1735 OFFCURVE",
"242 1642 CURVE SMOOTH",
"219 1612 OFFCURVE",
"207 1585 OFFCURVE",
"207 1560 CURVE SMOOTH",
"207 1554 OFFCURVE",
"218 1509 OFFCURVE",
"241 1426 CURVE SMOOTH",
"277 1294 OFFCURVE",
"295 1195 OFFCURVE",
"292 1129 CURVE SMOOTH",
"291 1107 LINE",
"355 1156 LINE",
"352 1169 OFFCURVE",
"350 1186 OFFCURVE",
"350 1207 CURVE SMOOTH",
"350 1387 OFFCURVE",
"408 1529 OFFCURVE",
"524 1634 CURVE SMOOTH",
"635 1735 OFFCURVE",
"782 1785 OFFCURVE",
"964 1785 CURVE SMOOTH",
"1111 1785 OFFCURVE",
"1208 1715 OFFCURVE",
"1256 1576 CURVE SMOOTH",
"1284 1497 OFFCURVE",
"1298 1365 OFFCURVE",
"1298 1180 CURVE SMOOTH",
"1298 1126 LINE",
"1118 1125 OFFCURVE",
"776 1105 OFFCURVE",
"664 1060 CURVE SMOOTH",
"579 1025 OFFCURVE",
"503 960 OFFCURVE",
"364 849 CURVE SMOOTH",
"273 776 OFFCURVE",
"128 720 OFFCURVE",
"128 530 CURVE SMOOTH",
"128 253 OFFCURVE",
"286 -11 OFFCURVE",
"567 -11 CURVE SMOOTH",
"761 -11 OFFCURVE",
"967 74 OFFCURVE",
"1184 245 CURVE SMOOTH",
"1220 273 OFFCURVE",
"1256 299 OFFCURVE",
"1292 322 CURVE",
"1291 303 OFFCURVE",
"1290 285 OFFCURVE",
"1290 266 CURVE SMOOTH",
"1290 70 OFFCURVE",
"1351 -28 OFFCURVE",
"1474 -28 CURVE SMOOTH"
);
},
{
closed = 1;
nodes = (
"526 217 OFFCURVE",
"391 391 OFFCURVE",
"391 568 CURVE SMOOTH",
"391 701 OFFCURVE",
"468 836 OFFCURVE",
"639 900 CURVE SMOOTH",
"768 948 OFFCURVE",
"980 970 OFFCURVE",
"1295 985 CURVE",
"1291 814 OFFCURVE",
"1288 674 OFFCURVE",
"1285 589 CURVE",
"1268 482 OFFCURVE",
"1210 395 OFFCURVE",
"1111 329 CURVE SMOOTH",
"1018 268 OFFCURVE",
"871 217 OFFCURVE",
"753 217 CURVE SMOOTH"
);
}
);
width = 2014;
}
);
leftKerningGroup = a;
note = a;
rightKerningGroup = a;
unicode = 0061;
},
{
glyphname = ae;
lastChange = "2021-08-11 05:19:26 +0000";
layers = (
{
anchors = (
{
name = bottom;
position = "{1482, 0}";
},
{
name = top;
position = "{1482, 1912}";
}
);
layerId = "274E8830-0A80-4149-8BE8-CF3C4CCD3F6F";
paths = (
{
closed = 1;
nodes = (
"726 -11 OFFCURVE",
"928 86 OFFCURVE",
"1175 279 CURVE SMOOTH",
"1201 300 OFFCURVE",
"1237 325 OFFCURVE",
"1283 356 CURVE SMOOTH",
"1327 386 OFFCURVE",
"1358 405 OFFCURVE",
"1377 412 CURVE",
"1461 137 OFFCURVE",
"1679 -1 OFFCURVE",
"2031 -1 CURVE SMOOTH",
"2446 -1 OFFCURVE",
"2709 53 OFFCURVE",
"2820 160 CURVE SMOOTH",
"2849 188 OFFCURVE",
"2865 214 OFFCURVE",
"2869 238 CURVE SMOOTH",
"2870 244 OFFCURVE",
"2871 253 OFFCURVE",
"2871 264 CURVE SMOOTH",
"2871 281 OFFCURVE",
"2869 305 OFFCURVE",
"2866 336 CURVE SMOOTH",
"2860 393 OFFCURVE",
"2857 426 OFFCURVE",
"2857 434 CURVE SMOOTH",
"2857 478 OFFCURVE",
"2861 567 OFFCURVE",
"2868 700 CURVE",
"2785 660 LINE",
"2786 647 OFFCURVE",
"2784 630 OFFCURVE",
"2781 609 CURVE SMOOTH",
"2721 284 OFFCURVE",
"2513 121 OFFCURVE",
"2156 121 CURVE SMOOTH",
"1899 121 OFFCURVE",
"1729 217 OFFCURVE",
"1645 413 CURVE SMOOTH",
"1601 515 OFFCURVE",
"1576 693 OFFCURVE",
"1569 946 CURVE",
"1572 1044 LINE",
"1721 1057 OFFCURVE",
"1891 1063 OFFCURVE",
"2083 1063 CURVE SMOOTH",
"2112 1063 OFFCURVE",
"2210 1066 OFFCURVE",
"2377 1072 CURVE SMOOTH",
"2400 1073 OFFCURVE",
"2422 1073 OFFCURVE",
"2444 1073 CURVE SMOOTH",
"2513 1073 OFFCURVE",
"2578 1070 OFFCURVE",
"2639 1062 CURVE SMOOTH",
"2656 1060 OFFCURVE",
"2695 1103 OFFCURVE",
"2758 1191 CURVE SMOOTH",
"2831 1293 OFFCURVE",
"2868 1343 OFFCURVE",
"2868 1340 CURVE SMOOTH",
"2868 1519 OFFCURVE",
"2812 1660 OFFCURVE",
"2701 1761 CURVE SMOOTH",
"2581 1870 OFFCURVE",
"2406 1925 OFFCURVE",
"2177 1925 CURVE SMOOTH",
"1888 1925 OFFCURVE",
"1667 1853 OFFCURVE",
"1515 1709 CURVE",
"1436 1839 OFFCURVE",
"1285 1904 OFFCURVE",
"1062 1904 CURVE SMOOTH",
"906 1904 OFFCURVE",
"759 1886 OFFCURVE",
"621 1851 CURVE SMOOTH",
"440 1805 OFFCURVE",
"314 1735 OFFCURVE",
"242 1642 CURVE SMOOTH",
"219 1612 OFFCURVE",
"207 1585 OFFCURVE",
"207 1560 CURVE SMOOTH",
"207 1554 OFFCURVE",
"218 1509 OFFCURVE",
"241 1426 CURVE SMOOTH",
"277 1294 OFFCURVE",
"294 1195 OFFCURVE",
"292 1129 CURVE SMOOTH",
"291 1107 LINE",
"355 1156 LINE",
"352 1169 OFFCURVE",
"350 1186 OFFCURVE",
"350 1207 CURVE SMOOTH",
"350 1387 OFFCURVE",
"408 1529 OFFCURVE",
"524 1634 CURVE SMOOTH",
"635 1735 OFFCURVE",
"782 1785 OFFCURVE",
"964 1785 CURVE SMOOTH",
"1111 1785 OFFCURVE",
"1208 1715 OFFCURVE",
"1256 1576 CURVE SMOOTH",
"1284 1497 OFFCURVE",
"1298 1365 OFFCURVE",
"1298 1180 CURVE SMOOTH",
"1298 1150 LINE",
"1201 1137 OFFCURVE",
"1129 1128 OFFCURVE",
"1081 1121 CURVE SMOOTH",
"902 1100 OFFCURVE",
"771 1072 OFFCURVE",
"689 1038 CURVE SMOOTH",
"604 1003 OFFCURVE",
"492 931 OFFCURVE",
"353 820 CURVE SMOOTH",
"272 757 OFFCURVE",
"210 710 OFFCURVE",
"169 679 CURVE",
"133 646 OFFCURVE",
"115 592 OFFCURVE",
"115 517 CURVE SMOOTH",
"115 382 OFFCURVE",
"156 262 OFFCURVE",
"238 157 CURVE SMOOTH",
"326 45 OFFCURVE",
"436 -11 OFFCURVE",
"567 -11 CURVE SMOOTH"
);
},
{
closed = 1;
nodes = (
"612 237 OFFCURVE",
"481 312 OFFCURVE",
"403 461 CURVE SMOOTH",
"372 522 OFFCURVE",
"356 576 OFFCURVE",
"356 624 CURVE SMOOTH",
"356 726 OFFCURVE",
"447 811 OFFCURVE",
"628 879 CURVE SMOOTH",
"757 927 OFFCURVE",
"980 958 OFFCURVE",
"1295 973 CURVE",
"1291 802 OFFCURVE",
"1288 674 OFFCURVE",
"1285 589 CURVE",
"1268 482 OFFCURVE",
"1210 395 OFFCURVE",
"1111 329 CURVE SMOOTH",
"1018 268 OFFCURVE",
"913 237 OFFCURVE",
"795 237 CURVE SMOOTH"
);
},
{
closed = 1;
nodes = (
"1997 1189 OFFCURVE",
"1937 1188 OFFCURVE",
"1883 1188 CURVE SMOOTH",
"1741 1188 OFFCURVE",
"1640 1195 OFFCURVE",
"1579 1207 CURVE",
"1582 1312 LINE",
"1584 1323 LINE SMOOTH",
"1625 1647 OFFCURVE",
"1807 1808 OFFCURVE",
"2129 1808 CURVE SMOOTH",
"2369 1808 OFFCURVE",
"2524 1699 OFFCURVE",
"2593 1479 CURVE SMOOTH",
"2609 1430 OFFCURVE",
"2617 1386 OFFCURVE",
"2617 1347 CURVE SMOOTH",
"2617 1272 OFFCURVE",
"2591 1230 OFFCURVE",
"2538 1222 CURVE SMOOTH",
"2439 1207 OFFCURVE",
"2280 1197 OFFCURVE",
"2063 1191 CURVE SMOOTH"
);
}
);
width = 2964;
}
);
note = ae;
unicode = 00E6;
},
{
glyphname = b;
lastChange = "2021-08-11 05:19:26 +0000";
layers = (
{
layerId = "274E8830-0A80-4149-8BE8-CF3C4CCD3F6F";
paths = (
{
closed = 1;
nodes = (
"483 84 OFFCURVE",
"576 166 OFFCURVE",
"683 209 CURVE",
"789 48 OFFCURVE",
"964 -33 OFFCURVE",
"1207 -33 CURVE SMOOTH",
"1758 -33 OFFCURVE",
"2034 319 OFFCURVE",
"2034 1023 CURVE SMOOTH",
"2034 1302 OFFCURVE",
"1995 1507 OFFCURVE",
"1917 1640 CURVE SMOOTH",
"1821 1803 OFFCURVE",
"1656 1885 OFFCURVE",
"1422 1885 CURVE SMOOTH",
"1377 1885 OFFCURVE",
"1330 1882 OFFCURVE",
"1280 1876 CURVE SMOOTH",
"979 1842 OFFCURVE",
"778 1719 OFFCURVE",
"675 1508 CURVE",
"697 2113 OFFCURVE",
"720 2479 OFFCURVE",
"743 2604 CURVE SMOOTH",
"744 2612 OFFCURVE",
"745 2619 OFFCURVE",
"745 2626 CURVE SMOOTH",
"745 2652 OFFCURVE",
"730 2665 OFFCURVE",
"700 2665 CURVE SMOOTH",
"687 2665 OFFCURVE",
"654 2660 OFFCURVE",
"599 2649 CURVE SMOOTH",
"544 2638 OFFCURVE",
"500 2634 OFFCURVE",
"465 2635 CURVE SMOOTH",
"264 2641 OFFCURVE",
"132 2648 OFFCURVE",
"69 2655 CURVE",
"33 2578 LINE",
"82 2589 OFFCURVE",
"127 2594 OFFCURVE",
"168 2594 CURVE SMOOTH",
"248 2594 OFFCURVE",
"312 2574 OFFCURVE",
"362 2532 CURVE",
"420 2466 OFFCURVE",
"449 1989 OFFCURVE",
"449 1102 CURVE SMOOTH",
"449 992 OFFCURVE",
"438 803 OFFCURVE",
"415 534 CURVE SMOOTH",
"391 245 OFFCURVE",
"369 68 OFFCURVE",
"350 5 CURVE",
"404 -37 LINE"
);
},
{
closed = 1;
nodes = (
"975 84 OFFCURVE",
"835 184 OFFCURVE",
"754 384 CURVE SMOOTH",
"697 526 OFFCURVE",
"668 712 OFFCURVE",
"668 943 CURVE SMOOTH",
"668 1162 OFFCURVE",
"701 1331 OFFCURVE",
"767 1448 CURVE SMOOTH",
"876 1640 OFFCURVE",
"1036 1736 OFFCURVE",
"1247 1736 CURVE SMOOTH",
"1447 1736 OFFCURVE",
"1587 1636 OFFCURVE",
"1668 1436 CURVE SMOOTH",
"1725 1294 OFFCURVE",
"1754 1108 OFFCURVE",
"1754 877 CURVE SMOOTH",
"1754 658 OFFCURVE",
"1721 489 OFFCURVE",
"1655 372 CURVE SMOOTH",
"1546 180 OFFCURVE",
"1386 84 OFFCURVE",
"1175 84 CURVE SMOOTH"
);
}
);
width = 2197;
}
);
leftKerningGroup = bracketleft;
note = b;
rightKerningGroup = b;
unicode = 0062;
},
{
glyphname = c;
lastChange = "2021-08-11 05:19:26 +0000";
layers = (
{
anchors = (
{
name = bottom;
position = "{878, 0}";
},
{
name = top;
position = "{1024, 1912}";
}
);
layerId = "274E8830-0A80-4149-8BE8-CF3C4CCD3F6F";
paths = (
{
closed = 1;
nodes = (
"1317 -39 OFFCURVE",
"1539 4 OFFCURVE",
"1620 91 CURVE",
"1665 342 LINE",
"1468 176 OFFCURVE",
"1262 92 OFFCURVE",
"1049 92 CURVE SMOOTH",
"779 92 OFFCURVE",
"602 192 OFFCURVE",
"516 392 CURVE SMOOTH",
"455 533 OFFCURVE",
"425 726 OFFCURVE",
"425 971 CURVE SMOOTH",
"425 1059 OFFCURVE",
"429 1144 OFFCURVE",
"438 1225 CURVE SMOOTH",
"457 1396 OFFCURVE",
"517 1535 OFFCURVE",
"619 1642 CURVE SMOOTH",
"730 1759 OFFCURVE",
"879 1822 OFFCURVE",
"1065 1830 CURVE SMOOTH",
"1078 1831 OFFCURVE",
"1091 1831 OFFCURVE",
"1103 1831 CURVE SMOOTH",
"1228 1831 OFFCURVE",
"1326 1804 OFFCURVE",
"1399 1749 CURVE SMOOTH",
"1486 1684 OFFCURVE",
"1533 1597 OFFCURVE",
"1540 1490 CURVE SMOOTH",
"1543 1438 OFFCURVE",
"1545 1397 OFFCURVE",
"1545 1365 CURVE SMOOTH",
"1545 1326 OFFCURVE",
"1542 1302 OFFCURVE",
"1538 1293 CURVE",
"1631 1335 LINE",
"1622 1434 OFFCURVE",
"1617 1518 OFFCURVE",
"1617 1589 CURVE SMOOTH",
"1617 1654 OFFCURVE",
"1621 1708 OFFCURVE",
"1629 1750 CURVE SMOOTH",
"1630 1753 OFFCURVE",
"1630 1757 OFFCURVE",
"1630 1762 CURVE SMOOTH",
"1630 1797 OFFCURVE",
"1605 1826 OFFCURVE",
"1554 1851 CURVE SMOOTH",
"1434 1908 OFFCURVE",
"1283 1937 OFFCURVE",
"1098 1937 CURVE SMOOTH",
"1048 1937 OFFCURVE",
"996 1935 OFFCURVE",
"941 1931 CURVE SMOOTH",
"599 1904 OFFCURVE",
"370 1774 OFFCURVE",
"254 1539 CURVE SMOOTH",
"177 1384 OFFCURVE",
"139 1165 OFFCURVE",
"139 881 CURVE SMOOTH",
"139 474 OFFCURVE",
"217 211 OFFCURVE",
"372 92 CURVE SMOOTH",
"486 5 OFFCURVE",
"680 -39 OFFCURVE",
"955 -39 CURVE SMOOTH"
);
}
);
width = 1755;
}
);
leftKerningGroup = c;
note = c;
rightKerningGroup = c;
unicode = 0063;
},
{
glyphname = d;
lastChange = "2021-08-11 05:19:26 +0000";
layers = (
{
anchors = (
{
name = bottom;
position = "{1145, 0}";
},
{
name = center;
position = "{1145, 1055}";
},
{
name = top;
position = "{1680, 2649}";
},
{
name = topright;
position = "{2066, 2781}";
}
);
layerId = "274E8830-0A80-4149-8BE8-CF3C4CCD3F6F";
paths = (
{
closed = 1;
nodes = (
"1591 -30 OFFCURVE",
"1610 -26 OFFCURVE",
"1635 -18 CURVE SMOOTH",
"1661 -11 OFFCURVE",
"1678 -7 OFFCURVE",
"1686 -7 CURVE SMOOTH",
"1797 2 OFFCURVE",
"1901 7 OFFCURVE",
"2000 7 CURVE SMOOTH",
"2080 7 OFFCURVE",
"2157 4 OFFCURVE",
"2229 -2 CURVE",
"2283 89 LINE",
"2254 84 OFFCURVE",
"2217 82 OFFCURVE",
"2174 82 CURVE SMOOTH",
"1960 82 OFFCURVE",
"1840 135 OFFCURVE",
"1814 242 CURVE SMOOTH",
"1783 371 OFFCURVE",
"1768 656 OFFCURVE",
"1768 1097 CURVE SMOOTH",
"1768 1238 OFFCURVE",
"1768 1329 OFFCURVE",
"1767 1368 CURVE SMOOTH",
"1766 1427 OFFCURVE",
"1766 1485 OFFCURVE",
"1766 1541 CURVE SMOOTH",
"1766 2041 OFFCURVE",
"1786 2395 OFFCURVE",
"1825 2604 CURVE SMOOTH",
"1827 2612 OFFCURVE",
"1828 2619 OFFCURVE",
"1828 2626 CURVE SMOOTH",
"1828 2652 OFFCURVE",
"1813 2665 OFFCURVE",
"1783 2665 CURVE SMOOTH",
"1770 2665 OFFCURVE",
"1736 2660 OFFCURVE",
"1680 2649 CURVE SMOOTH",
"1627 2638 OFFCURVE",
"1582 2634 OFFCURVE",
"1547 2635 CURVE SMOOTH",
"1346 2641 OFFCURVE",
"1214 2648 OFFCURVE",
"1151 2655 CURVE",
"1115 2578 LINE",
"1164 2589 OFFCURVE",
"1209 2594 OFFCURVE",
"1250 2594 CURVE SMOOTH",
"1330 2594 OFFCURVE",
"1394 2574 OFFCURVE",
"1444 2532 CURVE",
"1491 2479 OFFCURVE",
"1520 2196 OFFCURVE",
"1529 1685 CURVE",
"1476 1750 OFFCURVE",
"1400 1804 OFFCURVE",
"1301 1847 CURVE SMOOTH",
"1198 1890 OFFCURVE",
"1092 1912 OFFCURVE",
"982 1912 CURVE SMOOTH",
"665 1912 OFFCURVE",
"441 1808 OFFCURVE",
"310 1600 CURVE SMOOTH",
"207 1436 OFFCURVE",
"155 1188 OFFCURVE",
"155 856 CURVE SMOOTH",
"155 593 OFFCURVE",
"207 387 OFFCURVE",
"310 238 CURVE SMOOTH",
"421 77 OFFCURVE",
"585 -3 OFFCURVE",
"802 -3 CURVE SMOOTH",
"837 -3 OFFCURVE",
"873 -1 OFFCURVE",
"910 3 CURVE SMOOTH",
"1193 36 OFFCURVE",
"1387 146 OFFCURVE",
"1494 333 CURVE",
"1505 166 OFFCURVE",
"1512 66 OFFCURVE",
"1517 34 CURVE SMOOTH",
"1524 -9 OFFCURVE",
"1544 -30 OFFCURVE",
"1578 -30 CURVE SMOOTH"
);
},
{
closed = 1;
nodes = (
"737 130 OFFCURVE",
"597 230 OFFCURVE",
"516 431 CURVE SMOOTH",
"459 572 OFFCURVE",
"430 759 OFFCURVE",
"430 990 CURVE SMOOTH",
"430 1209 OFFCURVE",
"463 1377 OFFCURVE",
"529 1494 CURVE SMOOTH",
"638 1687 OFFCURVE",
"798 1783 OFFCURVE",
"1009 1783 CURVE SMOOTH",
"1209 1783 OFFCURVE",
"1349 1683 OFFCURVE",
"1430 1482 CURVE SMOOTH",
"1487 1341 OFFCURVE",
"1516 1154 OFFCURVE",
"1516 923 CURVE SMOOTH",
"1516 704 OFFCURVE",
"1483 536 OFFCURVE",
"1417 419 CURVE SMOOTH",
"1308 226 OFFCURVE",
"1148 130 OFFCURVE",
"937 130 CURVE SMOOTH"
);
}
);
width = 2289;
}
);
leftKerningGroup = d;
note = d;
unicode = 0064;
},
{
glyphname = eth;
lastChange = "2021-08-11 05:19:26 +0000";
layers = (
{
layerId = "274E8830-0A80-4149-8BE8-CF3C4CCD3F6F";
paths = (
{
closed = 1;
nodes = (
"1141 -39 OFFCURVE",
"1437 285 OFFCURVE",
"1545 932 CURVE SMOOTH",
"1558 1009 OFFCURVE",
"1564 1089 OFFCURVE",
"1564 1173 CURVE SMOOTH",
"1564 1224 OFFCURVE",
"1562 1277 OFFCURVE",
"1557 1331 CURVE SMOOTH",
"1522 1722 OFFCURVE",
"1371 2047 OFFCURVE",
"1102 2306 CURVE",
"1216 2364 OFFCURVE",
"1314 2411 OFFCURVE",
"1367 2432 CURVE SMOOTH",
"1387 2440 OFFCURVE",
"1396 2504 OFFCURVE",
"1396 2550 CURVE SMOOTH",
"1396 2572 OFFCURVE",
"1394 2590 OFFCURVE",
"1390 2595 CURVE",
"1323 2554 OFFCURVE",
"1171 2471 OFFCURVE",
"1011 2387 CURVE",
"869 2505 OFFCURVE",
"698 2608 OFFCURVE",
"501 2696 CURVE",
"496 2702 OFFCURVE",
"488 2705 OFFCURVE",
"479 2705 CURVE SMOOTH",
"436 2705 OFFCURVE",
"196 2426 OFFCURVE",
"94 2324 CURVE",
"106 2310 OFFCURVE",
"148 2252 OFFCURVE",
"153 2246 CURVE",
"192 2309 OFFCURVE",
"295 2433 OFFCURVE",
"409 2433 CURVE SMOOTH",
"439 2433 OFFCURVE",
"469 2424 OFFCURVE",
"499 2405 CURVE SMOOTH",
"587 2348 OFFCURVE",
"664 2294 OFFCURVE",
"732 2242 CURVE",
"625 2188 OFFCURVE",
"539 2146 OFFCURVE",
"505 2134 CURVE SMOOTH",
"491 2129 OFFCURVE",
"485 2080 OFFCURVE",
"485 2036 CURVE SMOOTH",
"485 1995 OFFCURVE",
"490 1959 OFFCURVE",
"501 1964 CURVE",
"571 2013 OFFCURVE",
"696 2087 OFFCURVE",
"831 2161 CURVE",
"893 2108 OFFCURVE",
"945 2056 OFFCURVE",
"987 2006 CURVE SMOOTH",
"1014 1973 OFFCURVE",
"1040 1938 OFFCURVE",
"1063 1903 CURVE",
"747 1900 OFFCURVE",
"521 1866 OFFCURVE",
"292 1576 CURVE SMOOTH",
"143 1397 OFFCURVE",
"63 1173 OFFCURVE",
"51 904 CURVE SMOOTH",
"49 854 OFFCURVE",
"48 806 OFFCURVE",
"48 761 CURVE SMOOTH",
"48 511 OFFCURVE",
"85 323 OFFCURVE",
"158 198 CURVE SMOOTH",
"237 63 OFFCURVE",
"365 -13 OFFCURVE",
"542 -32 CURVE SMOOTH",
"581 -37 OFFCURVE",
"620 -39 OFFCURVE",
"657 -39 CURVE SMOOTH"
);
},
{
closed = 1;
nodes = (
"426 295 OFFCURVE",
"349 515 OFFCURVE",
"349 820 CURVE SMOOTH",
"349 1362 OFFCURVE",
"579 1779 OFFCURVE",
"1111 1822 CURVE",
"1212 1635 OFFCURVE",
"1261 1415 OFFCURVE",
"1258 1163 CURVE SMOOTH",
"1253 705 OFFCURVE",
"1172 386 OFFCURVE",
"1015 206 CURVE SMOOTH",
"939 118 OFFCURVE",
"861 74 OFFCURVE",
"781 74 CURVE SMOOTH",
"715 74 OFFCURVE",
"649 104 OFFCURVE",
"581 162 CURVE SMOOTH"
);
}
);
width = 1578;
}
);
note = eth;
unicode = 00F0;
},
{
glyphname = dcroat;
lastChange = "2021-08-11 05:19:26 +0000";
layers = (
{
layerId = "274E8830-0A80-4149-8BE8-CF3C4CCD3F6F";
paths = (
{
closed = 1;
nodes = (
"1591 -30 OFFCURVE",
"1610 -26 OFFCURVE",
"1635 -18 CURVE SMOOTH",
"1661 -11 OFFCURVE",
"1678 -7 OFFCURVE",
"1686 -7 CURVE SMOOTH",
"1797 2 OFFCURVE",
"1901 7 OFFCURVE",
"2000 7 CURVE SMOOTH",
"2080 7 OFFCURVE",
"2157 4 OFFCURVE",
"2229 -2 CURVE",
"2283 89 LINE",
"2254 84 OFFCURVE",
"2217 82 OFFCURVE",
"2174 82 CURVE SMOOTH",
"1960 82 OFFCURVE",
"1840 135 OFFCURVE",
"1814 242 CURVE SMOOTH",
"1783 371 OFFCURVE",
"1768 656 OFFCURVE",
"1768 1097 CURVE SMOOTH",
"1768 1238 OFFCURVE",
"1768 1329 OFFCURVE",
"1767 1368 CURVE SMOOTH",
"1766 1427 OFFCURVE",
"1766 1485 OFFCURVE",
"1766 1541 CURVE SMOOTH",
"1766 2041 OFFCURVE",
"1786 2395 OFFCURVE",
"1825 2604 CURVE SMOOTH",
"1827 2612 OFFCURVE",
"1828 2619 OFFCURVE",
"1828 2626 CURVE SMOOTH",
"1828 2652 OFFCURVE",
"1813 2665 OFFCURVE",
"1783 2665 CURVE SMOOTH",
"1770 2665 OFFCURVE",
"1736 2660 OFFCURVE",
"1680 2649 CURVE SMOOTH",
"1627 2638 OFFCURVE",
"1582 2634 OFFCURVE",
"1547 2635 CURVE SMOOTH",
"1346 2641 OFFCURVE",
"1214 2648 OFFCURVE",
"1151 2655 CURVE",
"1115 2578 LINE",
"1164 2589 OFFCURVE",
"1209 2594 OFFCURVE",
"1250 2594 CURVE SMOOTH",
"1330 2594 OFFCURVE",
"1394 2574 OFFCURVE",
"1444 2532 CURVE",
"1491 2479 OFFCURVE",
"1520 2196 OFFCURVE",
"1529 1685 CURVE",
"1476 1750 OFFCURVE",
"1400 1804 OFFCURVE",
"1301 1847 CURVE SMOOTH",
"1198 1890 OFFCURVE",
"1092 1912 OFFCURVE",
"982 1912 CURVE SMOOTH",
"665 1912 OFFCURVE",
"441 1808 OFFCURVE",
"310 1600 CURVE SMOOTH",
"207 1436 OFFCURVE",
"155 1188 OFFCURVE",
"155 856 CURVE SMOOTH",
"155 593 OFFCURVE",
"207 387 OFFCURVE",
"310 238 CURVE SMOOTH",
"421 77 OFFCURVE",
"585 -3 OFFCURVE",
"802 -3 CURVE SMOOTH",
"837 -3 OFFCURVE",
"873 -1 OFFCURVE",
"910 3 CURVE SMOOTH",
"1193 36 OFFCURVE",
"1387 146 OFFCURVE",
"1494 333 CURVE",
"1505 166 OFFCURVE",
"1512 66 OFFCURVE",
"1517 34 CURVE SMOOTH",
"1524 -9 OFFCURVE",
"1544 -30 OFFCURVE",
"1578 -30 CURVE SMOOTH"
);
},
{
closed = 1;
nodes = (
"737 130 OFFCURVE",
"597 230 OFFCURVE",
"516 431 CURVE SMOOTH",
"459 572 OFFCURVE",
"430 759 OFFCURVE",
"430 990 CURVE SMOOTH",
"430 1209 OFFCURVE",
"463 1377 OFFCURVE",
"529 1494 CURVE SMOOTH",
"638 1687 OFFCURVE",
"798 1783 OFFCURVE",
"1009 1783 CURVE SMOOTH",
"1209 1783 OFFCURVE",
"1349 1683 OFFCURVE",
"1430 1482 CURVE SMOOTH",
"1487 1341 OFFCURVE",
"1516 1154 OFFCURVE",
"1516 923 CURVE SMOOTH",
"1516 704 OFFCURVE",
"1483 536 OFFCURVE",
"1417 419 CURVE SMOOTH",
"1308 226 OFFCURVE",
"1148 130 OFFCURVE",
"937 130 CURVE SMOOTH"
);
},
{
closed = 1;
nodes = (
"2125 2055 OFFCURVE",
"2149 2084 OFFCURVE",
"2178 2145 CURVE SMOOTH",
"2205 2202 OFFCURVE",
"2219 2243 OFFCURVE",
"2219 2268 CURVE SMOOTH",
"2219 2273 OFFCURVE",
"2218 2276 OFFCURVE",
"2215 2277 CURVE",
"2200 2276 OFFCURVE",
"2115 2270 OFFCURVE",
"1960 2257 CURVE SMOOTH",
"1835 2247 OFFCURVE",
"1730 2241 OFFCURVE",
"1647 2241 CURVE SMOOTH",
"1433 2241 OFFCURVE",
"1275 2256 OFFCURVE",
"1174 2284 CURVE SMOOTH",
"1156 2289 OFFCURVE",
"1132 2260 OFFCURVE",
"1103 2199 CURVE SMOOTH",
"1076 2141 OFFCURVE",
"1062 2100 OFFCURVE",
"1062 2075 CURVE SMOOTH",
"1062 2070 OFFCURVE",
"1063 2068 OFFCURVE",
"1066 2067 CURVE",
"1284 2091 OFFCURVE",
"1468 2103 OFFCURVE",
"1617 2103 CURVE SMOOTH",
"1841 2103 OFFCURVE",
"2004 2089 OFFCURVE",
"2107 2060 CURVE SMOOTH"
);
}
);
width = 2289;
}
);
leftKerningGroup = d;
note = dcroat;
unicode = 0111;
},
{
glyphname = e;
lastChange = "2021-08-11 05:19:26 +0000";
layers = (
{
anchors = (
{
name = bottom;
position = "{1015, 0}";
},
{
name = ogonek;
position = "{1553, 52}";
},
{
name = top;
position = "{950, 1912}";
}
);
layerId = "274E8830-0A80-4149-8BE8-CF3C4CCD3F6F";
paths = (
{
closed = 1;
nodes = (
"1311 -30 OFFCURVE",
"1576 25 OFFCURVE",
"1689 134 CURVE SMOOTH",
"1719 162 OFFCURVE",
"1736 189 OFFCURVE",
"1741 214 CURVE",
"1740 295 OFFCURVE",
"1737 361 OFFCURVE",
"1731 413 CURVE",
"1736 542 OFFCURVE",
"1741 632 OFFCURVE",
"1745 684 CURVE",
"1660 644 LINE",
"1661 630 OFFCURVE",
"1659 613 OFFCURVE",
"1655 592 CURVE SMOOTH",
"1591 260 OFFCURVE",
"1376 94 OFFCURVE",
"1012 94 CURVE SMOOTH",
"750 94 OFFCURVE",
"578 193 OFFCURVE",
"494 392 CURVE SMOOTH",
"447 508 OFFCURVE",
"423 701 OFFCURVE",
"423 971 CURVE SMOOTH",
"423 1035 LINE",
"566 1048 OFFCURVE",
"741 1055 OFFCURVE",
"950 1055 CURVE SMOOTH",
"979 1055 OFFCURVE",
"1078 1058 OFFCURVE",
"1249 1064 CURVE SMOOTH",
"1276 1065 OFFCURVE",
"1302 1066 OFFCURVE",
"1328 1066 CURVE SMOOTH",
"1394 1066 OFFCURVE",
"1457 1062 OFFCURVE",
"1517 1054 CURVE SMOOTH",
"1534 1052 OFFCURVE",
"1575 1096 OFFCURVE",
"1640 1186 CURVE SMOOTH",
"1694 1259 OFFCURVE",
"1732 1309 OFFCURVE",
"1754 1338 CURVE",
"1756 1521 OFFCURVE",
"1701 1664 OFFCURVE",
"1589 1767 CURVE SMOOTH",
"1468 1878 OFFCURVE",
"1291 1934 OFFCURVE",
"1057 1934 CURVE SMOOTH",
"651 1934 OFFCURVE",
"381 1802 OFFCURVE",
"247 1539 CURVE SMOOTH",
"165 1376 OFFCURVE",
"124 1166 OFFCURVE",
"124 908 CURVE SMOOTH",
"124 588 OFFCURVE",
"176 358 OFFCURVE",
"277 216 CURVE SMOOTH",
"395 50 OFFCURVE",
"601 -30 OFFCURVE",
"894 -30 CURVE SMOOTH"
);
},
{
closed = 1;
nodes = (
"859 1184 OFFCURVE",
"798 1183 OFFCURVE",
"742 1183 CURVE SMOOTH",
"596 1183 OFFCURVE",
"493 1190 OFFCURVE",
"433 1202 CURVE",
"438 1263 OFFCURVE",
"441 1302 OFFCURVE",
"444 1321 CURVE SMOOTH",
"493 1651 OFFCURVE",
"680 1815 OFFCURVE",
"1006 1815 CURVE SMOOTH",
"1251 1815 OFFCURVE",
"1408 1703 OFFCURVE",
"1476 1479 CURVE SMOOTH",
"1490 1430 OFFCURVE",
"1497 1387 OFFCURVE",
"1497 1348 CURVE SMOOTH",
"1497 1269 OFFCURVE",
"1470 1225 OFFCURVE",
"1416 1217 CURVE SMOOTH",
"1313 1202 OFFCURVE",
"1150 1191 OFFCURVE",
"927 1186 CURVE SMOOTH"
);
}
);
width = 1833;
}
);
leftKerningGroup = e;
note = e;
rightKerningGroup = e;
unicode = 0065;
},
{
glyphname = f;
lastChange = "2021-08-11 05:19:26 +0000";
layers = (
{
layerId = "274E8830-0A80-4149-8BE8-CF3C4CCD3F6F";
paths = (
{
closed = 1;
nodes = (
"431 17 OFFCURVE",
"642 32 OFFCURVE",
"689 33 CURVE",
"982 24 OFFCURVE",
"1165 10 OFFCURVE",
"1236 -10 CURVE",
"1280 75 LINE",
"1259 73 OFFCURVE",
"1237 72 OFFCURVE",
"1216 72 CURVE SMOOTH",
"1151 72 OFFCURVE",
"1085 82 OFFCURVE",
"1018 102 CURVE SMOOTH",
"909 135 OFFCURVE",
"848 186 OFFCURVE",
"835 257 CURVE",
"815 586 OFFCURVE",
"804 867 OFFCURVE",
"801 1098 CURVE SMOOTH",
"800 1156 OFFCURVE",
"799 1224 OFFCURVE",
"799 1303 CURVE SMOOTH",
"799 1424 OFFCURVE",
"801 1570 OFFCURVE",
"803 1741 CURVE",
"997 1733 OFFCURVE",
"1128 1723 OFFCURVE",
"1195 1710 CURVE SMOOTH",
"1222 1705 OFFCURVE",
"1257 1721 OFFCURVE",
"1302 1757 CURVE SMOOTH",
"1343 1791 OFFCURVE",
"1364 1816 OFFCURVE",
"1364 1832 CURVE SMOOTH",
"1364 1835 OFFCURVE",
"1362 1836 OFFCURVE",
"1357 1837 CURVE",
"804 1837 LINE",
"809 2012 OFFCURVE",
"830 2151 OFFCURVE",
"865 2254 CURVE SMOOTH",
"931 2451 OFFCURVE",
"1059 2549 OFFCURVE",
"1247 2549 CURVE SMOOTH",
"1257 2549 OFFCURVE",
"1268 2549 OFFCURVE",
"1278 2548 CURVE SMOOTH",
"1384 2542 OFFCURVE",
"1459 2515 OFFCURVE",
"1503 2467 CURVE SMOOTH",
"1562 2402 OFFCURVE",
"1597 2318 OFFCURVE",
"1608 2213 CURVE SMOOTH",
"1615 2138 OFFCURVE",
"1619 2069 OFFCURVE",
"1620 2006 CURVE",
"1697 2046 LINE",
"1686 2208 OFFCURVE",
"1680 2325 OFFCURVE",
"1680 2399 CURVE SMOOTH",
"1680 2429 OFFCURVE",
"1681 2452 OFFCURVE",
"1683 2467 CURVE SMOOTH",
"1692 2533 OFFCURVE",
"1632 2585 OFFCURVE",
"1503 2623 CURVE SMOOTH",
"1400 2652 OFFCURVE",
"1284 2667 OFFCURVE",
"1157 2667 CURVE SMOOTH",
"936 2667 OFFCURVE",
"778 2594 OFFCURVE",
"685 2447 CURVE SMOOTH",
"603 2319 OFFCURVE",
"560 2116 OFFCURVE",
"556 1838 CURVE",
"286 1840 LINE",
"218 1753 LINE",
"315 1753 OFFCURVE",
"427 1751 OFFCURVE",
"556 1748 CURVE",
"556 1759 OFFCURVE",
"556 1646 OFFCURVE",
"557 1411 CURVE SMOOTH",
"558 1238 OFFCURVE",
"558 1135 OFFCURVE",
"558 1102 CURVE SMOOTH",
"558 639 OFFCURVE",
"546 358 OFFCURVE",
"521 257 CURVE SMOOTH",
"491 131 OFFCURVE",
"349 68 OFFCURVE",
"94 68 CURVE",
"56 -10 LINE"
);
}
);
width = 1562;
}
);
note = f;
unicode = 0066;
},
{
glyphname = g;
lastChange = "2021-08-11 05:19:26 +0000";
layers = (
{
anchors = (
{
name = bottom;
position = "{705, -618}";
},
{
name = top;
position = "{985, 1912}";
}
);
layerId = "274E8830-0A80-4149-8BE8-CF3C4CCD3F6F";
paths = (
{
closed = 1;
nodes = (
"851 -670 OFFCURVE",
"1007 -648 OFFCURVE",
"1173 -601 CURVE SMOOTH",
"1354 -551 OFFCURVE",
"1508 -482 OFFCURVE",
"1635 -393 CURVE SMOOTH",
"1837 -253 OFFCURVE",
"1938 -89 OFFCURVE",
"1938 99 CURVE SMOOTH",
"1938 323 OFFCURVE",
"1780 431 OFFCURVE",
"1464 424 CURVE SMOOTH",
"1398 422 OFFCURVE",
"1332 422 OFFCURVE",
"1265 422 CURVE SMOOTH",
"1030 422 OFFCURVE",
"792 431 OFFCURVE",
"551 450 CURVE SMOOTH",
"450 458 OFFCURVE",
"400 497 OFFCURVE",
"400 567 CURVE SMOOTH",
"400 614 OFFCURVE",
"422 663 OFFCURVE",
"465 715 CURVE SMOOTH",
"508 767 OFFCURVE",
"559 805 OFFCURVE",
"616 828 CURVE",
"718 775 OFFCURVE",
"834 749 OFFCURVE",
"965 749 CURVE SMOOTH",
"1418 749 OFFCURVE",
"1656 955 OFFCURVE",
"1656 1343 CURVE SMOOTH",
"1656 1511 OFFCURVE",
"1609 1645 OFFCURVE",
"1515 1745 CURVE",
"1733 1728 OFFCURVE",
"1857 1716 OFFCURVE",
"1888 1711 CURVE SMOOTH",
"1915 1706 OFFCURVE",
"1950 1722 OFFCURVE",
"1994 1758 CURVE SMOOTH",
"2035 1792 OFFCURVE",
"2056 1817 OFFCURVE",
"2056 1833 CURVE SMOOTH",
"2056 1836 OFFCURVE",
"2054 1837 OFFCURVE",
"2050 1838 CURVE",
"1392 1838 LINE",
"1287 1895 OFFCURVE",
"1166 1924 OFFCURVE",
"1029 1924 CURVE SMOOTH",
"574 1924 OFFCURVE",
"337 1718 OFFCURVE",
"337 1330 CURVE SMOOTH",
"337 1125 OFFCURVE",
"405 972 OFFCURVE",
"541 873 CURVE",
"476 796 OFFCURVE",
"362 725 OFFCURVE",
"199 660 CURVE SMOOTH",
"165 647 OFFCURVE",
"148 612 OFFCURVE",
"148 557 CURVE SMOOTH",
"148 496 OFFCURVE",
"165 428 OFFCURVE",
"200 352 CURVE SMOOTH",
"235 277 OFFCURVE",
"269 234 OFFCURVE",
"300 224 CURVE",
"352 220 OFFCURVE",
"398 218 OFFCURVE",
"438 218 CURVE SMOOTH",
"452 218 OFFCURVE",
"465 218 OFFCURVE",
"478 219 CURVE",
"190 83 OFFCURVE",
"46 -94 OFFCURVE",
"46 -312 CURVE SMOOTH",
"46 -407 OFFCURVE",
"78 -484 OFFCURVE",
"142 -544 CURVE SMOOTH",
"225 -622 OFFCURVE",
"413 -663 OFFCURVE",
"705 -668 CURVE SMOOTH"
);
},
{
closed = 1;
nodes = (
"564 -568 OFFCURVE",
"412 -512 OFFCURVE",
"320 -401 CURVE SMOOTH",
"281 -353 OFFCURVE",
"261 -291 OFFCURVE",
"261 -215 CURVE SMOOTH",
"261 -9 OFFCURVE",
"372 134 OFFCURVE",
"595 213 CURVE",
"706 208 OFFCURVE",
"833 205 OFFCURVE",
"978 204 CURVE SMOOTH",
"1223 201 OFFCURVE",
"1411 189 OFFCURVE",
"1543 168 CURVE SMOOTH",
"1652 150 OFFCURVE",
"1706 83 OFFCURVE",
"1706 -32 CURVE SMOOTH",
"1706 -121 OFFCURVE",
"1661 -209 OFFCURVE",
"1572 -295 CURVE SMOOTH",
"1479 -384 OFFCURVE",
"1351 -454 OFFCURVE",
"1187 -504 CURVE SMOOTH",
"1048 -547 OFFCURVE",
"911 -568 OFFCURVE",
"776 -568 CURVE SMOOTH"
);
},
{
closed = 1;
nodes = (
"1078 825 OFFCURVE",
"1050 822 OFFCURVE",
"1023 822 CURVE SMOOTH",
"914 822 OFFCURVE",
"819 874 OFFCURVE",
"738 979 CURVE SMOOTH",
"645 1099 OFFCURVE",
"598 1242 OFFCURVE",
"598 1409 CURVE SMOOTH",
"598 1652 OFFCURVE",
"694 1796 OFFCURVE",
"885 1840 CURVE SMOOTH",
"914 1847 OFFCURVE",
"942 1850 OFFCURVE",
"969 1850 CURVE SMOOTH",
"1078 1850 OFFCURVE",
"1173 1798 OFFCURVE",
"1255 1693 CURVE SMOOTH",
"1348 1572 OFFCURVE",
"1395 1429 OFFCURVE",
"1395 1263 CURVE SMOOTH",
"1395 1020 OFFCURVE",
"1299 876 OFFCURVE",
"1107 832 CURVE SMOOTH"
);
}
);
width = 2099;
}
);
note = g;
unicode = 0067;
},
{
glyphname = h;
lastChange = "2021-08-11 05:19:26 +0000";
layers = (
{
anchors = (
{
name = bottom;
position = "{1305, 0}";
},
{
name = center;
position = "{1305, 1606}";
},
{
name = top;
position = "{616, 2636}";
}
);
layerId = "274E8830-0A80-4149-8BE8-CF3C4CCD3F6F";
paths = (
{
closed = 1;
nodes = (
"1582 9 OFFCURVE",
"1774 19 OFFCURVE",
"1962 19 CURVE SMOOTH",
"2139 19 OFFCURVE",
"2312 10 OFFCURVE",
"2483 -8 CURVE",
"2518 77 LINE",
"2498 73 OFFCURVE",
"2471 71 OFFCURVE",
"2437 71 CURVE SMOOTH",
"2199 71 OFFCURVE",
"2066 131 OFFCURVE",
"2037 252 CURVE",
"2018 413 OFFCURVE",
"2008 540 OFFCURVE",
"2006 632 CURVE SMOOTH",
"1998 808 OFFCURVE",
"1994 965 OFFCURVE",
"1994 1102 CURVE SMOOTH",
"1991 1298 LINE SMOOTH",
"1989 1417 OFFCURVE",
"1989 1520 OFFCURVE",
"1989 1605 CURVE SMOOTH",
"1989 1795 OFFCURVE",
"1875 1908 OFFCURVE",
"1647 1945 CURVE SMOOTH",
"1603 1952 OFFCURVE",
"1559 1956 OFFCURVE",
"1515 1956 CURVE SMOOTH",
"1348 1956 OFFCURVE",
"1198 1908 OFFCURVE",
"1066 1812 CURVE SMOOTH",
"995 1761 OFFCURVE",
"907 1706 OFFCURVE",
"802 1648 CURVE",
"806 2106 OFFCURVE",
"825 2425 OFFCURVE",
"859 2606 CURVE SMOOTH",
"860 2614 OFFCURVE",
"861 2621 OFFCURVE",
"861 2627 CURVE SMOOTH",
"861 2654 OFFCURVE",
"846 2667 OFFCURVE",
"816 2667 CURVE SMOOTH",
"803 2667 OFFCURVE",
"770 2662 OFFCURVE",
"715 2651 CURVE SMOOTH",
"660 2640 OFFCURVE",
"616 2636 OFFCURVE",
"581 2637 CURVE SMOOTH",
"380 2643 OFFCURVE",
"248 2649 OFFCURVE",
"185 2656 CURVE",
"149 2580 LINE",
"198 2591 OFFCURVE",
"243 2596 OFFCURVE",
"284 2596 CURVE SMOOTH",
"364 2596 OFFCURVE",
"428 2576 OFFCURVE",
"477 2534 CURVE",
"532 2472 OFFCURVE",
"560 2190 OFFCURVE",
"559 1687 CURVE SMOOTH",
"558 1102 LINE SMOOTH",
"557 616 OFFCURVE",
"548 334 OFFCURVE",
"529 257 CURVE SMOOTH",
"513 190 OFFCURVE",
"461 139 OFFCURVE",
"374 104 CURVE SMOOTH",
"307 77 OFFCURVE",
"233 64 OFFCURVE",
"153 64 CURVE SMOOTH",
"128 64 OFFCURVE",
"108 65 OFFCURVE",
"92 68 CURVE",
"56 -10 LINE",
"431 17 OFFCURVE",
"642 32 OFFCURVE",
"689 33 CURVE",
"893 27 OFFCURVE",
"1032 14 OFFCURVE",
"1106 -7 CURVE",
"1142 75 LINE",
"957 75 OFFCURVE",
"855 132 OFFCURVE",
"835 247 CURVE SMOOTH",
"812 373 OFFCURVE",
"801 657 OFFCURVE",
"801 1098 CURVE SMOOTH",
"801 1498 LINE",
"848 1569 OFFCURVE",
"928 1635 OFFCURVE",
"1043 1695 CURVE SMOOTH",
"1142 1747 OFFCURVE",
"1229 1778 OFFCURVE",
"1303 1787 CURVE SMOOTH",
"1332 1790 OFFCURVE",
"1358 1792 OFFCURVE",
"1382 1792 CURVE SMOOTH",
"1619 1792 OFFCURVE",
"1730 1592 OFFCURVE",
"1731 1193 CURVE SMOOTH",
"1732 616 LINE",
"1732 573 LINE SMOOTH",
"1732 411 OFFCURVE",
"1719 296 OFFCURVE",
"1693 227 CURVE SMOOTH",
"1676 181 OFFCURVE",
"1639 143 OFFCURVE",
"1583 112 CURVE SMOOTH",
"1536 86 OFFCURVE",
"1491 73 OFFCURVE",
"1447 73 CURVE SMOOTH",
"1442 73 OFFCURVE",
"1436 74 OFFCURVE",
"1430 74 CURVE",
"1387 -12 LINE"
);
}
);
width = 2609;
}
);
leftKerningGroup = h;
note = h;
rightKerningGroup = a;
unicode = 0068;
},
{
glyphname = i;
lastChange = "2021-08-11 05:19:26 +0000";
layers = (
{
anchors = (
{
name = bottom;
position = "{649, 0}";
}
);
layerId = "274E8830-0A80-4149-8BE8-CF3C4CCD3F6F";
paths = (
{
closed = 1;
nodes = (
"368 14 OFFCURVE",
"568 27 OFFCURVE",
"656 29 CURVE SMOOTH",
"694 30 OFFCURVE",
"730 30 OFFCURVE",
"765 30 CURVE SMOOTH",
"980 30 OFFCURVE",
"1135 17 OFFCURVE",
"1230 -10 CURVE",
"1270 76 LINE",
"1000 76 OFFCURVE",
"855 133 OFFCURVE",
"835 247 CURVE SMOOTH",
"812 373 OFFCURVE",
"801 593 OFFCURVE",
"801 907 CURVE SMOOTH",
"802 1073 LINE SMOOTH",
"802 1437 OFFCURVE",
"821 1702 OFFCURVE",
"859 1868 CURVE SMOOTH",
"860 1874 OFFCURVE",
"861 1880 OFFCURVE",
"861 1886 CURVE SMOOTH",
"861 1908 OFFCURVE",
"846 1919 OFFCURVE",
"816 1919 CURVE SMOOTH",
"803 1919 OFFCURVE",
"770 1914 OFFCURVE",
"715 1905 CURVE SMOOTH",
"660 1896 OFFCURVE",
"616 1893 OFFCURVE",
"581 1894 CURVE SMOOTH",
"380 1899 OFFCURVE",
"248 1904 OFFCURVE",
"185 1910 CURVE",
"149 1836 LINE",
"198 1845 OFFCURVE",
"243 1850 OFFCURVE",
"284 1850 CURVE SMOOTH",
"364 1850 OFFCURVE",
"428 1832 OFFCURVE",
"477 1798 CURVE",
"531 1747 OFFCURVE",
"558 1516 OFFCURVE",
"558 1104 CURVE SMOOTH",
"558 909 LINE SMOOTH",
"558 553 OFFCURVE",
"548 336 OFFCURVE",
"529 257 CURVE SMOOTH",
"499 131 OFFCURVE",
"353 68 OFFCURVE",
"92 68 CURVE",
"56 -10 LINE"
);
},
{
closed = 1;
nodes = (
"632 2251 OFFCURVE",
"696 2290 OFFCURVE",
"793 2368 CURVE SMOOTH",
"860 2421 OFFCURVE",
"901 2455 OFFCURVE",
"916 2470 CURVE SMOOTH",
"925 2479 OFFCURVE",
"929 2489 OFFCURVE",
"929 2500 CURVE SMOOTH",
"929 2517 OFFCURVE",
"920 2526 OFFCURVE",
"904 2526 CURVE SMOOTH",
"852 2526 OFFCURVE",
"805 2536 OFFCURVE",
"764 2556 CURVE SMOOTH",
"737 2569 OFFCURVE",
"710 2586 OFFCURVE",
"681 2609 CURVE SMOOTH",
"661 2624 OFFCURVE",
"646 2632 OFFCURVE",
"636 2632 CURVE SMOOTH",
"618 2632 OFFCURVE",
"579 2608 OFFCURVE",
"519 2559 CURVE SMOOTH",
"436 2492 OFFCURVE",
"394 2448 OFFCURVE",
"394 2429 CURVE SMOOTH",
"394 2404 OFFCURVE",
"419 2368 OFFCURVE",
"469 2323 CURVE SMOOTH",
"522 2275 OFFCURVE",
"566 2251 OFFCURVE",
"603 2251 CURVE SMOOTH"
);
}
);
width = 1298;
}
);
leftKerningGroup = i;
note = i;
unicode = 0069;
},
{
glyphname = idotless;
lastChange = "2021-08-11 05:19:26 +0000";
layers = (
{
anchors = (
{
name = bottom;
position = "{649, 0}";
},
{
name = ogonek;
position = "{1168, 10}";
},
{
name = top;
position = "{649, 1912}";
}
);
layerId = "274E8830-0A80-4149-8BE8-CF3C4CCD3F6F";
paths = (
{
closed = 1;
nodes = (
"368 14 OFFCURVE",
"568 27 OFFCURVE",
"656 29 CURVE SMOOTH",
"694 30 OFFCURVE",
"730 30 OFFCURVE",
"765 30 CURVE SMOOTH",
"980 30 OFFCURVE",
"1135 17 OFFCURVE",
"1230 -10 CURVE",
"1270 76 LINE",
"1000 76 OFFCURVE",
"855 133 OFFCURVE",
"835 247 CURVE SMOOTH",
"812 373 OFFCURVE",
"801 593 OFFCURVE",
"801 907 CURVE SMOOTH",
"802 1073 LINE SMOOTH",
"802 1437 OFFCURVE",
"821 1702 OFFCURVE",
"859 1868 CURVE SMOOTH",
"860 1874 OFFCURVE",
"861 1880 OFFCURVE",
"861 1886 CURVE SMOOTH",
"861 1908 OFFCURVE",
"846 1919 OFFCURVE",
"816 1919 CURVE SMOOTH",
"803 1919 OFFCURVE",
"770 1914 OFFCURVE",
"715 1905 CURVE SMOOTH",
"660 1896 OFFCURVE",
"616 1893 OFFCURVE",
"581 1894 CURVE SMOOTH",
"380 1899 OFFCURVE",
"248 1904 OFFCURVE",
"185 1910 CURVE",
"149 1836 LINE",
"198 1845 OFFCURVE",
"243 1850 OFFCURVE",
"284 1850 CURVE SMOOTH",
"364 1850 OFFCURVE",
"428 1832 OFFCURVE",
"477 1798 CURVE",
"531 1747 OFFCURVE",
"558 1516 OFFCURVE",
"558 1104 CURVE SMOOTH",
"558 909 LINE SMOOTH",
"558 553 OFFCURVE",
"548 336 OFFCURVE",
"529 257 CURVE SMOOTH",
"499 131 OFFCURVE",
"353 68 OFFCURVE",
"92 68 CURVE",
"56 -10 LINE"
);
}
);
width = 1298;
}
);
leftKerningGroup = i;
note = dotlessi;
unicode = 0131;
},
{
glyphname = j;
lastChange = "2021-08-11 05:19:26 +0000";
layers = (
{
layerId = "274E8830-0A80-4149-8BE8-CF3C4CCD3F6F";
paths = (
{
closed = 1;
nodes = (
"118 -674 OFFCURVE",
"169 -663 OFFCURVE",
"206 -656 CURVE SMOOTH",
"604 -580 OFFCURVE",
"799 -376 OFFCURVE",
"792 -44 CURVE SMOOTH",
"779 537 LINE",
"772 1073 LINE SMOOTH",
"771 1109 OFFCURVE",
"771 1143 OFFCURVE",
"771 1177 CURVE SMOOTH",
"771 1469 OFFCURVE",
"790 1700 OFFCURVE",
"829 1868 CURVE SMOOTH",
"830 1874 OFFCURVE",
"831 1880 OFFCURVE",
"831 1886 CURVE SMOOTH",
"831 1908 OFFCURVE",
"816 1919 OFFCURVE",
"786 1919 CURVE SMOOTH",
"773 1919 OFFCURVE",
"740 1914 OFFCURVE",
"685 1905 CURVE SMOOTH",
"630 1896 OFFCURVE",
"586 1893 OFFCURVE",
"551 1894 CURVE SMOOTH",
"350 1899 OFFCURVE",
"218 1904 OFFCURVE",
"155 1910 CURVE",
"119 1836 LINE",
"168 1845 OFFCURVE",
"213 1850 OFFCURVE",
"254 1850 CURVE SMOOTH",
"334 1850 OFFCURVE",
"398 1832 OFFCURVE",
"447 1798 CURVE",
"501 1747 OFFCURVE",
"528 1516 OFFCURVE",
"528 1104 CURVE SMOOTH",
"526 477 LINE SMOOTH",
"525 86 OFFCURVE",
"489 -191 OFFCURVE",
"418 -353 CURVE SMOOTH",
"381 -436 OFFCURVE",
"320 -501 OFFCURVE",
"235 -546 CURVE SMOOTH",
"168 -581 OFFCURVE",
"102 -599 OFFCURVE",
"36 -599 CURVE SMOOTH",
"27 -599 OFFCURVE",
"19 -599 OFFCURVE",
"11 -598 CURVE",
"53 -689 LINE"
);
},
{
closed = 1;
nodes = (
"602 2251 OFFCURVE",
"666 2290 OFFCURVE",
"763 2368 CURVE SMOOTH",
"830 2421 OFFCURVE",
"871 2455 OFFCURVE",
"886 2470 CURVE SMOOTH",
"895 2479 OFFCURVE",
"899 2489 OFFCURVE",
"899 2500 CURVE SMOOTH",
"899 2517 OFFCURVE",
"890 2526 OFFCURVE",
"874 2526 CURVE SMOOTH",
"822 2526 OFFCURVE",
"775 2536 OFFCURVE",
"734 2556 CURVE SMOOTH",
"707 2569 OFFCURVE",
"680 2586 OFFCURVE",
"651 2609 CURVE SMOOTH",
"631 2624 OFFCURVE",
"616 2632 OFFCURVE",
"606 2632 CURVE SMOOTH",
"588 2632 OFFCURVE",
"549 2608 OFFCURVE",
"489 2559 CURVE SMOOTH",
"406 2492 OFFCURVE",
"364 2448 OFFCURVE",
"364 2429 CURVE SMOOTH",
"364 2404 OFFCURVE",
"389 2368 OFFCURVE",
"439 2323 CURVE SMOOTH",
"492 2275 OFFCURVE",
"536 2251 OFFCURVE",
"573 2251 CURVE SMOOTH"
);
}
);
width = 1140;
}
);
leftKerningGroup = j;
note = j;
rightKerningGroup = bracketleft;
unicode = 006A;
},
{
glyphname = jdotless;
lastChange = "2021-08-11 05:19:26 +0000";
layers = (
{
anchors = (
{
name = bottom;
position = "{536, -1600}";
},
{
name = top;
position = "{630, 1896}";
}
);
layerId = "274E8830-0A80-4149-8BE8-CF3C4CCD3F6F";
paths = (
{
closed = 1;
nodes = (
"118 -674 OFFCURVE",
"169 -663 OFFCURVE",
"206 -656 CURVE SMOOTH",
"604 -580 OFFCURVE",
"799 -376 OFFCURVE",
"792 -44 CURVE SMOOTH",
"779 537 LINE",
"772 1073 LINE SMOOTH",
"772 1104 OFFCURVE",
"771 1134 OFFCURVE",
"771 1164 CURVE SMOOTH",
"771 1462 OFFCURVE",
"790 1697 OFFCURVE",
"829 1868 CURVE SMOOTH",
"830 1874 OFFCURVE",
"831 1880 OFFCURVE",
"831 1886 CURVE SMOOTH",
"831 1908 OFFCURVE",
"816 1919 OFFCURVE",
"786 1919 CURVE SMOOTH",
"773 1919 OFFCURVE",
"740 1914 OFFCURVE",
"685 1905 CURVE SMOOTH",
"630 1896 OFFCURVE",
"586 1893 OFFCURVE",
"551 1894 CURVE SMOOTH",
"350 1899 OFFCURVE",
"218 1904 OFFCURVE",
"155 1910 CURVE",
"119 1836 LINE",
"168 1845 OFFCURVE",
"213 1850 OFFCURVE",
"254 1850 CURVE SMOOTH",
"334 1850 OFFCURVE",
"398 1832 OFFCURVE",
"447 1798 CURVE",
"501 1747 OFFCURVE",
"529 1516 OFFCURVE",
"528 1104 CURVE SMOOTH",
"526 477 LINE SMOOTH",
"525 86 OFFCURVE",
"489 -191 OFFCURVE",
"418 -353 CURVE SMOOTH",
"381 -436 OFFCURVE",
"320 -501 OFFCURVE",
"235 -546 CURVE SMOOTH",
"168 -581 OFFCURVE",
"102 -599 OFFCURVE",
"36 -599 CURVE SMOOTH",
"27 -599 OFFCURVE",
"19 -599 OFFCURVE",
"11 -598 CURVE",
"53 -689 LINE"
);
}
);
width = 1072;
}
);
unicode = 0237;
},
{
glyphname = k;
lastChange = "2021-08-11 05:19:26 +0000";
layers = (
{
anchors = (
{
name = bottom;
position = "{1466, 0}";
},
{
name = top;
position = "{715, 2651}";
}
);
layerId = "274E8830-0A80-4149-8BE8-CF3C4CCD3F6F";
paths = (
{
closed = 1;
nodes = (
"431 17 OFFCURVE",
"642 32 OFFCURVE",
"689 33 CURVE",
"984 24 OFFCURVE",
"1168 10 OFFCURVE",
"1239 -10 CURVE",
"1280 76 LINE",
"1258 74 OFFCURVE",
"1235 72 OFFCURVE",
"1213 72 CURVE SMOOTH",
"1149 72 OFFCURVE",
"1084 82 OFFCURVE",
"1018 102 CURVE SMOOTH",
"909 135 OFFCURVE",
"848 186 OFFCURVE",
"835 257 CURVE SMOOTH",
"812 383 OFFCURVE",
"801 663 OFFCURVE",
"801 1098 CURVE SMOOTH",
"801 1370 LINE SMOOTH",
"801 1986 OFFCURVE",
"820 2398 OFFCURVE",
"859 2606 CURVE SMOOTH",
"860 2614 OFFCURVE",
"861 2621 OFFCURVE",
"861 2627 CURVE SMOOTH",
"861 2654 OFFCURVE",
"846 2667 OFFCURVE",
"816 2667 CURVE SMOOTH",
"803 2667 OFFCURVE",
"770 2662 OFFCURVE",
"715 2651 CURVE SMOOTH",
"660 2640 OFFCURVE",
"616 2636 OFFCURVE",
"581 2637 CURVE SMOOTH",
"380 2643 OFFCURVE",
"248 2649 OFFCURVE",
"185 2656 CURVE",
"149 2580 LINE",
"198 2591 OFFCURVE",
"243 2596 OFFCURVE",
"284 2596 CURVE SMOOTH",
"364 2596 OFFCURVE",
"428 2576 OFFCURVE",
"477 2534 CURVE",
"532 2472 OFFCURVE",
"560 2190 OFFCURVE",
"559 1687 CURVE SMOOTH",
"558 1102 LINE SMOOTH",
"557 625 OFFCURVE",
"547 343 OFFCURVE",
"526 257 CURVE SMOOTH",
"510 190 OFFCURVE",
"458 139 OFFCURVE",
"371 104 CURVE SMOOTH",
"304 77 OFFCURVE",
"230 64 OFFCURVE",
"150 64 CURVE SMOOTH",
"125 64 OFFCURVE",
"105 65 OFFCURVE",
"89 68 CURVE",
"56 -10 LINE"
);
},
{
closed = 1;
nodes = (
"2266 -30 OFFCURVE",
"2327 -23 OFFCURVE",
"2384 -10 CURVE",
"2426 76 LINE",
"2375 67 OFFCURVE",
"2336 63 OFFCURVE",
"2307 63 CURVE SMOOTH",
"2174 63 OFFCURVE",
"2048 117 OFFCURVE",
"1928 225 CURVE SMOOTH",
"1779 360 OFFCURVE",
"1589 562 OFFCURVE",
"1358 833 CURVE SMOOTH",
"1200 1018 OFFCURVE",
"1112 1124 OFFCURVE",
"1093 1149 CURVE",
"1280 1399 OFFCURVE",
"1522 1605 OFFCURVE",
"1818 1766 CURVE SMOOTH",
"1899 1810 OFFCURVE",
"2012 1832 OFFCURVE",
"2157 1832 CURVE",
"2193 1908 LINE",
"1998 1892 OFFCURVE",
"1829 1881 OFFCURVE",
"1685 1876 CURVE",
"1482 1890 OFFCURVE",
"1325 1900 OFFCURVE",
"1215 1907 CURVE",
"1171 1839 LINE",
"1197 1844 OFFCURVE",
"1221 1847 OFFCURVE",
"1243 1847 CURVE SMOOTH",
"1340 1847 OFFCURVE",
"1393 1800 OFFCURVE",
"1401 1705 CURVE SMOOTH",
"1407 1628 OFFCURVE",
"1234 1445 OFFCURVE",
"881 1157 CURVE SMOOTH",
"848 1129 OFFCURVE",
"831 1106 OFFCURVE",
"831 1089 CURVE SMOOTH",
"831 1074 OFFCURVE",
"843 1050 OFFCURVE",
"867 1018 CURVE SMOOTH",
"1069 751 OFFCURVE",
"1254 524 OFFCURVE",
"1423 339 CURVE SMOOTH",
"1556 192 OFFCURVE",
"1671 95 OFFCURVE",
"1768 48 CURVE SMOOTH",
"1873 -3 OFFCURVE",
"2018 -29 OFFCURVE",
"2201 -30 CURVE SMOOTH"
);
}
);
width = 2428;
}
);
leftKerningGroup = h;
note = k;
unicode = 006B;
},
{
glyphname = kgreenlandic;
lastChange = "2021-08-11 05:19:26 +0000";
layers = (
{
layerId = "274E8830-0A80-4149-8BE8-CF3C4CCD3F6F";
paths = (
{
closed = 1;
nodes = (
"2266 -30 OFFCURVE",
"2327 -23 OFFCURVE",
"2384 -10 CURVE",
"2426 76 LINE",
"2375 67 OFFCURVE",
"2336 63 OFFCURVE",
"2307 63 CURVE SMOOTH",
"2174 63 OFFCURVE",
"2048 117 OFFCURVE",
"1928 225 CURVE SMOOTH",
"1779 360 OFFCURVE",
"1589 562 OFFCURVE",
"1358 833 CURVE SMOOTH",
"1200 1018 OFFCURVE",
"1112 1124 OFFCURVE",
"1093 1149 CURVE",
"1280 1399 OFFCURVE",
"1522 1605 OFFCURVE",
"1818 1766 CURVE SMOOTH",
"1899 1810 OFFCURVE",
"2012 1832 OFFCURVE",
"2157 1832 CURVE",
"2193 1908 LINE",
"1998 1892 OFFCURVE",
"1829 1881 OFFCURVE",
"1685 1876 CURVE",
"1482 1890 OFFCURVE",
"1325 1900 OFFCURVE",
"1215 1907 CURVE",
"1171 1839 LINE",
"1197 1844 OFFCURVE",
"1221 1847 OFFCURVE",
"1243 1847 CURVE SMOOTH",
"1340 1847 OFFCURVE",
"1393 1800 OFFCURVE",
"1401 1705 CURVE SMOOTH",
"1407 1628 OFFCURVE",
"1234 1445 OFFCURVE",
"881 1157 CURVE SMOOTH",
"848 1129 OFFCURVE",
"831 1106 OFFCURVE",
"831 1089 CURVE SMOOTH",
"831 1074 OFFCURVE",
"843 1050 OFFCURVE",
"867 1018 CURVE SMOOTH",
"1069 751 OFFCURVE",
"1254 524 OFFCURVE",
"1423 339 CURVE SMOOTH",
"1556 192 OFFCURVE",
"1671 95 OFFCURVE",
"1768 48 CURVE SMOOTH",
"1873 -3 OFFCURVE",
"2018 -29 OFFCURVE",
"2201 -30 CURVE SMOOTH"
);
},
{
closed = 1;
nodes = (
"431 17 OFFCURVE",
"642 32 OFFCURVE",
"689 33 CURVE",
"984 24 OFFCURVE",
"1168 10 OFFCURVE",
"1239 -10 CURVE",
"1280 76 LINE",
"1258 74 OFFCURVE",
"1235 72 OFFCURVE",
"1213 72 CURVE SMOOTH",
"1149 72 OFFCURVE",
"1084 82 OFFCURVE",
"1018 102 CURVE SMOOTH",
"909 135 OFFCURVE",
"848 186 OFFCURVE",
"835 257 CURVE SMOOTH",
"812 383 OFFCURVE",
"801 663 OFFCURVE",
"801 1098 CURVE SMOOTH",
"801 1399 LINE SMOOTH",
"801 1659 OFFCURVE",
"820 1740 OFFCURVE",
"859 1890 CURVE SMOOTH",
"860 1896 OFFCURVE",
"861 1901 OFFCURVE",
"861 1905 CURVE SMOOTH",
"861 1925 OFFCURVE",
"846 1934 OFFCURVE",
"816 1934 CURVE SMOOTH",
"803 1934 OFFCURVE",
"770 1931 OFFCURVE",
"715 1922 CURVE SMOOTH",
"660 1914 OFFCURVE",
"616 1912 OFFCURVE",
"581 1912 CURVE SMOOTH",
"380 1917 OFFCURVE",
"248 1921 OFFCURVE",
"185 1926 CURVE",
"149 1872 LINE",
"197 1880 OFFCURVE",
"241 1883 OFFCURVE",
"281 1883 CURVE SMOOTH",
"362 1883 OFFCURVE",
"428 1868 OFFCURVE",
"477 1838 CURVE",
"532 1793 OFFCURVE",
"559 1590 OFFCURVE",
"559 1443 CURVE SMOOTH",
"558 1102 LINE SMOOTH",
"557 625 OFFCURVE",
"547 343 OFFCURVE",
"526 257 CURVE SMOOTH",
"510 190 OFFCURVE",
"458 139 OFFCURVE",
"371 104 CURVE SMOOTH",
"304 77 OFFCURVE",
"230 64 OFFCURVE",
"150 64 CURVE SMOOTH",
"125 64 OFFCURVE",
"105 65 OFFCURVE",
"89 68 CURVE",
"56 -10 LINE"
);
}
);
width = 2428;
}
);
unicode = 0138;
},
{
glyphname = l;
lastChange = "2021-08-11 05:19:26 +0000";
layers = (
{
anchors = (
{
name = bottom;
position = "{689, 0}";
},
{
name = center;
position = "{1010, 1606}";
},
{
name = top;
position = "{660, 2640}";
},
{
name = topright;
position = "{1202, 2681}";
}
);
layerId = "274E8830-0A80-4149-8BE8-CF3C4CCD3F6F";
paths = (
{
closed = 1;
nodes = (
"431 17 OFFCURVE",
"642 32 OFFCURVE",
"689 33 CURVE",
"975 24 OFFCURVE",
"1154 10 OFFCURVE",
"1226 -10 CURVE",
"1268 80 LINE",
"1242 77 OFFCURVE",
"1215 76 OFFCURVE",
"1190 76 CURVE SMOOTH",
"1129 76 OFFCURVE",
"1070 83 OFFCURVE",
"1013 98 CURVE SMOOTH",
"907 127 OFFCURVE",
"848 176 OFFCURVE",
"835 247 CURVE SMOOTH",
"812 373 OFFCURVE",
"801 657 OFFCURVE",
"801 1098 CURVE SMOOTH",
"801 1370 LINE SMOOTH",
"801 1986 OFFCURVE",
"820 2398 OFFCURVE",
"859 2606 CURVE SMOOTH",
"860 2614 OFFCURVE",
"861 2621 OFFCURVE",
"861 2627 CURVE SMOOTH",
"861 2654 OFFCURVE",
"846 2667 OFFCURVE",
"816 2667 CURVE SMOOTH",
"803 2667 OFFCURVE",
"770 2662 OFFCURVE",
"715 2651 CURVE SMOOTH",
"660 2640 OFFCURVE",
"616 2636 OFFCURVE",
"581 2637 CURVE SMOOTH",
"380 2643 OFFCURVE",
"248 2649 OFFCURVE",
"185 2656 CURVE",
"149 2580 LINE",
"198 2591 OFFCURVE",
"243 2596 OFFCURVE",
"284 2596 CURVE SMOOTH",
"364 2596 OFFCURVE",
"428 2576 OFFCURVE",
"477 2534 CURVE",
"532 2472 OFFCURVE",
"560 2190 OFFCURVE",
"559 1687 CURVE SMOOTH",
"558 1102 LINE SMOOTH",
"557 618 OFFCURVE",
"542 333 OFFCURVE",
"521 247 CURVE SMOOTH",
"492 124 OFFCURVE",
"373 63 OFFCURVE",
"165 63 CURVE SMOOTH",
"136 63 OFFCURVE",
"113 65 OFFCURVE",
"94 68 CURVE",
"56 -10 LINE"
);
}
);
width = 1222;
}
);
leftKerningGroup = h;
note = l;
unicode = 006C;
},
{
glyphname = m;
lastChange = "2021-08-11 05:19:26 +0000";
layers = (
{
layerId = "274E8830-0A80-4149-8BE8-CF3C4CCD3F6F";
paths = (
{
closed = 1;
nodes = (
"1242 82 LINE",
"1058 82 OFFCURVE",
"956 137 OFFCURVE",
"937 247 CURVE SMOOTH",
"914 377 OFFCURVE",
"902 661 OFFCURVE",
"902 1098 CURVE SMOOTH",
"902 1362 LINE SMOOTH",
"903 1429 OFFCURVE",
"903 1475 OFFCURVE",
"903 1498 CURVE",
"950 1570 OFFCURVE",
"1023 1636 OFFCURVE",
"1122 1695 CURVE SMOOTH",
"1210 1747 OFFCURVE",
"1286 1778 OFFCURVE",
"1349 1787 CURVE SMOOTH",
"1374 1790 OFFCURVE",
"1398 1792 OFFCURVE",
"1420 1792 CURVE SMOOTH",
"1631 1792 OFFCURVE",
"1734 1592 OFFCURVE",
"1730 1193 CURVE SMOOTH",
"1731 616 LINE",
"1731 573 LINE SMOOTH",
"1731 411 OFFCURVE",
"1720 296 OFFCURVE",
"1697 227 CURVE SMOOTH",
"1682 185 OFFCURVE",
"1654 149 OFFCURVE",
"1612 118 CURVE SMOOTH",
"1570 87 OFFCURVE",
"1529 72 OFFCURVE",
"1488 72 CURVE SMOOTH",
"1479 72 OFFCURVE",
"1471 73 OFFCURVE",
"1462 74 CURVE",
"1429 -2 LINE",
"1551 13 OFFCURVE",
"1677 20 OFFCURVE",
"1807 20 CURVE SMOOTH",
"1955 20 OFFCURVE",
"2108 11 OFFCURVE",
"2267 -8 CURVE",
"2298 76 LINE",
"2287 74 OFFCURVE",
"2275 73 OFFCURVE",
"2262 73 CURVE SMOOTH",
"2213 73 OFFCURVE",
"2167 85 OFFCURVE",
"2122 110 CURVE SMOOTH",
"2071 139 OFFCURVE",
"2041 176 OFFCURVE",
"2031 222 CURVE",
"2014 393 OFFCURVE",
"2005 530 OFFCURVE",
"2003 632 CURVE SMOOTH",
"1996 808 OFFCURVE",
"1992 965 OFFCURVE",
"1992 1102 CURVE SMOOTH",
"1990 1253 LINE SMOOTH",
"1988 1358 OFFCURVE",
"1987 1438 OFFCURVE",
"1987 1493 CURVE",
"2049 1562 OFFCURVE",
"2128 1628 OFFCURVE",
"2225 1689 CURVE SMOOTH",
"2316 1747 OFFCURVE",
"2387 1780 OFFCURVE",
"2437 1787 CURVE SMOOTH",
"2462 1790 OFFCURVE",
"2486 1792 OFFCURVE",
"2508 1792 CURVE SMOOTH",
"2719 1792 OFFCURVE",
"2822 1592 OFFCURVE",
"2818 1193 CURVE SMOOTH",
"2817 616 LINE SMOOTH",
"2816 425 OFFCURVE",
"2803 295 OFFCURVE",
"2778 227 CURVE SMOOTH",
"2762 184 OFFCURVE",
"2730 147 OFFCURVE",
"2682 116 CURVE SMOOTH",
"2634 85 OFFCURVE",
"2587 70 OFFCURVE",
"2541 70 CURVE SMOOTH",
"2531 70 OFFCURVE",
"2522 71 OFFCURVE",
"2513 72 CURVE",
"2471 -12 LINE",
"2666 9 OFFCURVE",
"2858 19 OFFCURVE",
"3047 19 CURVE SMOOTH",
"3223 19 OFFCURVE",
"3397 10 OFFCURVE",
"3568 -8 CURVE",
"3605 77 LINE",
"3586 72 OFFCURVE",
"3554 69 OFFCURVE",
"3507 69 CURVE SMOOTH",
"3274 69 OFFCURVE",
"3146 120 OFFCURVE",
"3121 222 CURVE SMOOTH",
"3100 308 OFFCURVE",
"3090 445 OFFCURVE",
"3090 632 CURVE SMOOTH",
"3088 1125 LINE SMOOTH",
"3088 1119 OFFCURVE",
"3088 1181 OFFCURVE",
"3087 1310 CURVE SMOOTH",
"3086 1421 OFFCURVE",
"3086 1521 OFFCURVE",
"3086 1608 CURVE SMOOTH",
"3086 1795 OFFCURVE",
"2978 1907 OFFCURVE",
"2763 1945 CURVE SMOOTH",
"2723 1952 OFFCURVE",
"2683 1956 OFFCURVE",
"2643 1956 CURVE SMOOTH",
"2490 1956 OFFCURVE",
"2354 1908 OFFCURVE",
"2233 1812 CURVE SMOOTH",
"2166 1759 OFFCURVE",
"2084 1703 OFFCURVE",
"1986 1643 CURVE",
"1976 1810 OFFCURVE",
"1872 1910 OFFCURVE",
"1675 1945 CURVE SMOOTH",
"1635 1952 OFFCURVE",
"1595 1956 OFFCURVE",
"1555 1956 CURVE SMOOTH",
"1402 1956 OFFCURVE",
"1266 1908 OFFCURVE",
"1145 1812 CURVE SMOOTH",
"1059 1744 OFFCURVE",
"979 1689 OFFCURVE",
"904 1648 CURVE",
"913 1728 OFFCURVE",
"922 1794 OFFCURVE",
"932 1847 CURVE SMOOTH",
"934 1857 OFFCURVE",
"935 1866 OFFCURVE",
"935 1873 CURVE SMOOTH",
"935 1902 OFFCURVE",
"918 1917 OFFCURVE",
"884 1917 CURVE SMOOTH",
"873 1917 OFFCURVE",
"843 1914 OFFCURVE",
"796 1907 CURVE SMOOTH",
"751 1901 OFFCURVE",
"713 1898 OFFCURVE",
"682 1899 CURVE SMOOTH",
"413 1907 OFFCURVE",
"257 1914 OFFCURVE",
"212 1919 CURVE",
"176 1842 LINE",
"210 1850 OFFCURVE",
"251 1854 OFFCURVE",
"298 1854 CURVE SMOOTH",
"324 1854 OFFCURVE",
"353 1852 OFFCURVE",
"383 1850 CURVE SMOOTH",
"479 1843 OFFCURVE",
"544 1825 OFFCURVE",
"578 1796 CURVE",
"633 1734 OFFCURVE",
"660 1509 OFFCURVE",
"660 1123 CURVE SMOOTH",
"660 636 OFFCURVE",
"646 348 OFFCURVE",
"624 257 CURVE SMOOTH",
"608 190 OFFCURVE",
"556 139 OFFCURVE",
"469 104 CURVE SMOOTH",
"402 77 OFFCURVE",
"328 64 OFFCURVE",
"248 64 CURVE SMOOTH",
"223 64 OFFCURVE",
"203 65 OFFCURVE",
"187 68 CURVE",
"148 -10 LINE",
"484 16 OFFCURVE",
"683 30 OFFCURVE",
"744 31 CURVE SMOOTH",
"762 31 OFFCURVE",
"781 32 OFFCURVE",
"798 32 CURVE SMOOTH",
"950 32 OFFCURVE",
"1080 16 OFFCURVE",
"1188 -14 CURVE"
);
}
);
width = 3628;
}
);
leftKerningGroup = i;
note = m;
rightKerningGroup = a;
unicode = 006D;
},
{
glyphname = n;
lastChange = "2021-08-11 05:19:26 +0000";
layers = (
{
anchors = (
{
name = bottom;
position = "{1281, 0}";
},
{
name = top;
position = "{1467, 1912}";
}
);
layerId = "274E8830-0A80-4149-8BE8-CF3C4CCD3F6F";
paths = (
{
closed = 1;
nodes = (
"1603 11 OFFCURVE",
"1787 22 OFFCURVE",
"1938 22 CURVE SMOOTH",
"2110 22 OFFCURVE",
"2292 12 OFFCURVE",
"2483 -8 CURVE",
"2527 76 LINE",
"2506 72 OFFCURVE",
"2474 70 OFFCURVE",
"2429 70 CURVE SMOOTH",
"2192 70 OFFCURVE",
"2061 121 OFFCURVE",
"2037 222 CURVE",
"2018 393 OFFCURVE",
"2008 530 OFFCURVE",
"2006 632 CURVE SMOOTH",
"1998 808 OFFCURVE",
"1994 965 OFFCURVE",
"1994 1102 CURVE SMOOTH",
"1991 1298 LINE SMOOTH",
"1989 1417 OFFCURVE",
"1989 1520 OFFCURVE",
"1989 1605 CURVE SMOOTH",
"1989 1795 OFFCURVE",
"1875 1908 OFFCURVE",
"1647 1945 CURVE SMOOTH",
"1603 1952 OFFCURVE",
"1559 1956 OFFCURVE",
"1515 1956 CURVE SMOOTH",
"1348 1956 OFFCURVE",
"1198 1908 OFFCURVE",
"1066 1812 CURVE SMOOTH",
"995 1761 OFFCURVE",
"907 1706 OFFCURVE",
"802 1648 CURVE",
"811 1728 OFFCURVE",
"820 1794 OFFCURVE",
"830 1847 CURVE SMOOTH",
"832 1857 OFFCURVE",
"833 1866 OFFCURVE",
"833 1873 CURVE SMOOTH",
"833 1902 OFFCURVE",
"816 1917 OFFCURVE",
"782 1917 CURVE SMOOTH",
"771 1917 OFFCURVE",
"741 1914 OFFCURVE",
"694 1907 CURVE SMOOTH",
"649 1901 OFFCURVE",
"611 1898 OFFCURVE",
"580 1899 CURVE SMOOTH",
"311 1907 OFFCURVE",
"155 1914 OFFCURVE",
"110 1919 CURVE",
"74 1842 LINE",
"108 1850 OFFCURVE",
"149 1854 OFFCURVE",
"196 1854 CURVE SMOOTH",
"222 1854 OFFCURVE",
"251 1852 OFFCURVE",
"281 1850 CURVE SMOOTH",
"377 1843 OFFCURVE",
"442 1825 OFFCURVE",
"476 1796 CURVE",
"531 1734 OFFCURVE",
"558 1509 OFFCURVE",
"558 1123 CURVE SMOOTH",
"558 632 OFFCURVE",
"544 341 OFFCURVE",
"521 247 CURVE SMOOTH",
"492 128 OFFCURVE",
"349 68 OFFCURVE",
"90 68 CURVE",
"56 -10 LINE",
"431 17 OFFCURVE",
"642 32 OFFCURVE",
"689 33 CURVE",
"893 27 OFFCURVE",
"1031 14 OFFCURVE",
"1102 -6 CURVE",
"1142 75 LINE",
"957 75 OFFCURVE",
"855 132 OFFCURVE",
"835 247 CURVE SMOOTH",
"812 373 OFFCURVE",
"801 657 OFFCURVE",
"801 1098 CURVE SMOOTH",
"801 1498 LINE",
"848 1569 OFFCURVE",
"928 1635 OFFCURVE",
"1043 1695 CURVE SMOOTH",
"1142 1747 OFFCURVE",
"1229 1778 OFFCURVE",
"1303 1787 CURVE SMOOTH",
"1332 1790 OFFCURVE",
"1358 1792 OFFCURVE",
"1382 1792 CURVE SMOOTH",
"1619 1792 OFFCURVE",
"1730 1592 OFFCURVE",
"1731 1193 CURVE SMOOTH",
"1732 616 LINE",
"1732 573 LINE SMOOTH",
"1732 411 OFFCURVE",
"1719 296 OFFCURVE",
"1693 227 CURVE SMOOTH",
"1677 185 OFFCURVE",
"1645 149 OFFCURVE",
"1598 118 CURVE SMOOTH",
"1551 87 OFFCURVE",
"1504 72 OFFCURVE",
"1459 72 CURVE SMOOTH",
"1448 72 OFFCURVE",
"1439 73 OFFCURVE",
"1430 74 CURVE",
"1386 -12 LINE"
);
}
);
width = 2561;
}
);
leftKerningGroup = i;
note = n;
rightKerningGroup = n;
unicode = 006E;
},
{
color = 3;
glyphname = eng;
lastChange = "2021-08-11 05:19:26 +0000";
layers = (
{
layerId = "274E8830-0A80-4149-8BE8-CF3C4CCD3F6F";
paths = (
{
closed = 1;
nodes = (
"1833 -1398 OFFCURVE",
"1999 -1098 OFFCURVE",
"1999 -599 CURVE SMOOTH",
"1999 -791 OFFCURVE",
"1994 1102 OFFCURVE",
"1994 1102 CURVE",
"1991 1298 LINE SMOOTH",
"1989 1417 OFFCURVE",
"1989 1520 OFFCURVE",
"1989 1605 CURVE SMOOTH",
"1989 1795 OFFCURVE",
"1875 1908 OFFCURVE",
"1647 1945 CURVE SMOOTH",
"1603 1952 OFFCURVE",
"1559 1956 OFFCURVE",
"1515 1956 CURVE SMOOTH",
"1348 1956 OFFCURVE",
"1198 1908 OFFCURVE",
"1066 1812 CURVE SMOOTH",
"995 1761 OFFCURVE",
"907 1706 OFFCURVE",
"802 1648 CURVE",
"811 1728 OFFCURVE",
"820 1794 OFFCURVE",
"830 1847 CURVE SMOOTH",
"832 1857 OFFCURVE",
"833 1866 OFFCURVE",
"833 1873 CURVE SMOOTH",
"833 1902 OFFCURVE",
"816 1917 OFFCURVE",
"782 1917 CURVE SMOOTH",
"771 1917 OFFCURVE",
"741 1914 OFFCURVE",
"694 1907 CURVE SMOOTH",
"649 1901 OFFCURVE",
"611 1898 OFFCURVE",
"580 1899 CURVE SMOOTH",
"311 1907 OFFCURVE",
"155 1914 OFFCURVE",
"110 1919 CURVE",
"74 1842 LINE",
"108 1850 OFFCURVE",
"149 1854 OFFCURVE",
"196 1854 CURVE SMOOTH",
"222 1854 OFFCURVE",
"251 1852 OFFCURVE",
"281 1850 CURVE SMOOTH",
"377 1843 OFFCURVE",
"442 1825 OFFCURVE",
"476 1796 CURVE",
"531 1734 OFFCURVE",
"558 1509 OFFCURVE",
"558 1123 CURVE SMOOTH",
"558 632 OFFCURVE",
"544 341 OFFCURVE",
"521 247 CURVE SMOOTH",
"492 128 OFFCURVE",
"349 68 OFFCURVE",
"90 68 CURVE",
"56 -10 LINE",
"431 17 OFFCURVE",
"642 32 OFFCURVE",
"689 33 CURVE",
"893 27 OFFCURVE",
"1031 14 OFFCURVE",
"1102 -6 CURVE",
"1142 75 LINE",
"957 75 OFFCURVE",
"855 132 OFFCURVE",
"835 247 CURVE SMOOTH",
"812 373 OFFCURVE",
"801 657 OFFCURVE",
"801 1098 CURVE SMOOTH",
"801 1498 LINE",
"848 1569 OFFCURVE",
"928 1635 OFFCURVE",
"1043 1695 CURVE SMOOTH",
"1142 1747 OFFCURVE",
"1229 1778 OFFCURVE",
"1303 1787 CURVE SMOOTH",
"1332 1790 OFFCURVE",
"1358 1792 OFFCURVE",
"1382 1792 CURVE SMOOTH",
"1619 1792 OFFCURVE",
"1735 1592 OFFCURVE",
"1731 1193 CURVE SMOOTH",
"1732 558 OFFCURVE",
"1752 46 OFFCURVE",
"1752 -380 CURVE SMOOTH",
"1752 -513 OFFCURVE",
"1750 -637 OFFCURVE",
"1745 -754 CURVE SMOOTH",
"1729 -1125 OFFCURVE",
"1558 -1294 OFFCURVE",
"1305 -1294 CURVE SMOOTH",
"1166 -1294 OFFCURVE",
"1082 -1219 OFFCURVE",
"1051 -1071 CURVE SMOOTH",
"1043 -1033 OFFCURVE",
"1040 -982 OFFCURVE",
"1040 -928 CURVE SMOOTH",
"1040 -833 OFFCURVE",
"1050 -727 OFFCURVE",
"1063 -655 CURVE",
"975 -641 LINE",
"947 -1003 OFFCURVE",
"889 -1269 OFFCURVE",
"835 -1269 CURVE",
"838 -1284 LINE",
"1088 -1388 OFFCURVE",
"1298 -1398 OFFCURVE",
"1522 -1398 CURVE SMOOTH"
);
}
);
width = 2352;
}
);
unicode = 014B;
},
{
glyphname = ntilde;
lastChange = "2021-08-11 05:19:26 +0000";
layers = (
{
layerId = "274E8830-0A80-4149-8BE8-CF3C4CCD3F6F";
paths = (
{
closed = 1;
nodes = (
"1603 11 OFFCURVE",
"1787 22 OFFCURVE",
"1938 22 CURVE SMOOTH",
"2110 22 OFFCURVE",
"2292 12 OFFCURVE",
"2483 -8 CURVE",
"2527 76 LINE",
"2506 72 OFFCURVE",
"2474 70 OFFCURVE",
"2429 70 CURVE SMOOTH",
"2192 70 OFFCURVE",
"2061 121 OFFCURVE",
"2037 222 CURVE",
"2018 393 OFFCURVE",
"2008 530 OFFCURVE",
"2006 632 CURVE SMOOTH",
"1998 808 OFFCURVE",
"1994 965 OFFCURVE",
"1994 1102 CURVE SMOOTH",
"1991 1298 LINE SMOOTH",
"1989 1417 OFFCURVE",
"1989 1520 OFFCURVE",
"1989 1605 CURVE SMOOTH",
"1989 1795 OFFCURVE",
"1875 1908 OFFCURVE",
"1647 1945 CURVE SMOOTH",
"1603 1952 OFFCURVE",
"1559 1956 OFFCURVE",
"1515 1956 CURVE SMOOTH",
"1348 1956 OFFCURVE",
"1198 1908 OFFCURVE",
"1066 1812 CURVE SMOOTH",
"995 1761 OFFCURVE",
"907 1706 OFFCURVE",
"802 1648 CURVE",
"811 1728 OFFCURVE",
"820 1794 OFFCURVE",
"830 1847 CURVE SMOOTH",
"832 1857 OFFCURVE",
"833 1866 OFFCURVE",
"833 1873 CURVE SMOOTH",
"833 1902 OFFCURVE",
"816 1917 OFFCURVE",
"782 1917 CURVE SMOOTH",
"771 1917 OFFCURVE",
"741 1914 OFFCURVE",
"694 1907 CURVE SMOOTH",
"649 1901 OFFCURVE",
"611 1898 OFFCURVE",
"580 1899 CURVE SMOOTH",
"311 1907 OFFCURVE",
"155 1914 OFFCURVE",
"110 1919 CURVE",
"74 1842 LINE",
"108 1850 OFFCURVE",
"149 1854 OFFCURVE",
"196 1854 CURVE SMOOTH",
"222 1854 OFFCURVE",
"251 1852 OFFCURVE",
"281 1850 CURVE SMOOTH",
"377 1843 OFFCURVE",
"442 1825 OFFCURVE",
"476 1796 CURVE",
"531 1734 OFFCURVE",
"558 1509 OFFCURVE",
"558 1123 CURVE SMOOTH",
"558 632 OFFCURVE",
"544 341 OFFCURVE",
"521 247 CURVE SMOOTH",
"492 128 OFFCURVE",
"349 68 OFFCURVE",
"90 68 CURVE",
"56 -10 LINE",
"431 17 OFFCURVE",
"642 32 OFFCURVE",
"689 33 CURVE",
"893 27 OFFCURVE",
"1031 14 OFFCURVE",
"1102 -6 CURVE",
"1142 75 LINE",
"957 75 OFFCURVE",
"855 132 OFFCURVE",
"835 247 CURVE SMOOTH",
"812 373 OFFCURVE",
"801 657 OFFCURVE",
"801 1098 CURVE SMOOTH",
"801 1498 LINE",
"848 1569 OFFCURVE",
"928 1635 OFFCURVE",
"1043 1695 CURVE SMOOTH",
"1142 1747 OFFCURVE",
"1229 1778 OFFCURVE",
"1303 1787 CURVE SMOOTH",
"1332 1790 OFFCURVE",
"1358 1792 OFFCURVE",
"1382 1792 CURVE SMOOTH",
"1619 1792 OFFCURVE",
"1735 1592 OFFCURVE",
"1731 1193 CURVE SMOOTH",
"1732 616 LINE",
"1732 573 LINE SMOOTH",
"1732 411 OFFCURVE",
"1719 296 OFFCURVE",
"1693 227 CURVE SMOOTH",
"1677 185 OFFCURVE",
"1645 149 OFFCURVE",
"1598 118 CURVE SMOOTH",
"1551 87 OFFCURVE",
"1504 72 OFFCURVE",
"1459 72 CURVE SMOOTH",
"1448 72 OFFCURVE",
"1439 73 OFFCURVE",
"1430 74 CURVE",
"1386 -12 LINE"
);
},
{
closed = 1;
nodes = (
"1435 2270 OFFCURVE",
"1451 2268 OFFCURVE",
"1466 2268 CURVE SMOOTH",
"1510 2268 OFFCURVE",
"1553 2284 OFFCURVE",
"1597 2316 CURVE SMOOTH",
"1672 2370 OFFCURVE",
"1731 2461 OFFCURVE",
"1774 2590 CURVE",
"1790 2648 LINE",
"1731 2648 LINE",
"1715 2597 OFFCURVE",
"1687 2550 OFFCURVE",
"1648 2508 CURVE SMOOTH",
"1617 2475 OFFCURVE",
"1582 2459 OFFCURVE",
"1542 2459 CURVE SMOOTH",
"1524 2459 OFFCURVE",
"1505 2462 OFFCURVE",
"1485 2469 CURVE",
"1379 2529 OFFCURVE",
"1298 2581 OFFCURVE",
"1241 2624 CURVE",
"1205 2646 OFFCURVE",
"1166 2657 OFFCURVE",
"1125 2657 CURVE SMOOTH",
"1064 2657 OFFCURVE",
"1006 2635 OFFCURVE",
"949 2591 CURVE SMOOTH",
"886 2542 OFFCURVE",
"839 2487 OFFCURVE",
"808 2424 CURVE SMOOTH",
"784 2377 OFFCURVE",
"766 2330 OFFCURVE",
"755 2284 CURVE",
"817 2284 LINE",
"850 2367 OFFCURVE",
"888 2423 OFFCURVE",
"929 2452 CURVE SMOOTH",
"956 2471 OFFCURVE",
"986 2481 OFFCURVE",
"1018 2481 CURVE SMOOTH",
"1049 2481 OFFCURVE",
"1081 2472 OFFCURVE",
"1116 2455 CURVE SMOOTH",
"1139 2443 OFFCURVE",
"1188 2410 OFFCURVE",
"1263 2355 CURVE SMOOTH",
"1322 2312 OFFCURVE",
"1375 2285 OFFCURVE",
"1420 2274 CURVE SMOOTH"
);
}
);
width = 2561;
}
);
leftKerningGroup = i;
note = ntilde;
rightKerningGroup = n;
unicode = 00F1;
},
{
glyphname = o;
lastChange = "2021-08-11 05:19:26 +0000";
layers = (
{
anchors = (
{
name = bottom;
position = "{897, 0}";
},
{
name = center;
position = "{934, 956}";
},
{
name = ogonek;
position = "{1122, 10}";
},
{
name = top;
position = "{934, 1912}";
},
{
name = topright;
position = "{1279, 1872}";
}
);
layerId = "274E8830-0A80-4149-8BE8-CF3C4CCD3F6F";
paths = (
{
closed = 1;
nodes = (
"1045 -44 OFFCURVE",
"1181 -3 OFFCURVE",
"1270 79 CURVE SMOOTH",
"1396 189 OFFCURVE",
"1491 271 OFFCURVE",
"1556 325 CURVE",
"1702 473 OFFCURVE",
"1775 689 OFFCURVE",
"1775 973 CURVE SMOOTH",
"1775 1256 OFFCURVE",
"1706 1487 OFFCURVE",
"1568 1665 CURVE SMOOTH",
"1417 1860 OFFCURVE",
"1206 1957 OFFCURVE",
"935 1957 CURVE SMOOTH",
"796 1957 OFFCURVE",
"687 1924 OFFCURVE",
"610 1859 CURVE SMOOTH",
"427 1705 OFFCURVE",
"325 1617 OFFCURVE",
"303 1595 CURVE SMOOTH",
"146 1435 OFFCURVE",
"68 1201 OFFCURVE",
"68 893 CURVE SMOOTH",
"68 630 OFFCURVE",
"133 412 OFFCURVE",
"263 241 CURVE SMOOTH",
"406 51 OFFCURVE",
"606 -44 OFFCURVE",
"861 -44 CURVE SMOOTH"
);
},
{
closed = 1;
nodes = (
"771 137 OFFCURVE",
"606 238 OFFCURVE",
"485 439 CURVE SMOOTH",
"384 610 OFFCURVE",
"333 808 OFFCURVE",
"333 1033 CURVE SMOOTH",
"333 1218 OFFCURVE",
"371 1378 OFFCURVE",
"446 1513 CURVE SMOOTH",
"539 1678 OFFCURVE",
"670 1760 OFFCURVE",
"841 1760 CURVE SMOOTH",
"958 1760 OFFCURVE",
"1074 1716 OFFCURVE",
"1187 1629 CURVE SMOOTH",
"1291 1548 OFFCURVE",
"1369 1450 OFFCURVE",
"1422 1335 CURVE SMOOTH",
"1495 1174 OFFCURVE",
"1532 1011 OFFCURVE",
"1532 845 CURVE SMOOTH",
"1532 658 OFFCURVE",
"1488 499 OFFCURVE",
"1399 366 CURVE SMOOTH",
"1298 213 OFFCURVE",
"1158 137 OFFCURVE",
"981 137 CURVE SMOOTH"
);
}
);
width = 1867;
}
);
leftKerningGroup = o;
note = o;
rightKerningGroup = o;
unicode = 006F;
},
{
glyphname = oslash;
lastChange = "2021-08-11 05:19:26 +0000";
layers = (
{
anchors = (
{
name = top;
position = "{934, 1912}";
}
);
layerId = "274E8830-0A80-4149-8BE8-CF3C4CCD3F6F";
paths = (
{
closed = 1;
nodes = (
"1053 -44 OFFCURVE",
"1189 -3 OFFCURVE",
"1270 79 CURVE",
"1397 194 OFFCURVE",
"1493 276 OFFCURVE",
"1556 325 CURVE",
"1702 472 OFFCURVE",
"1775 688 OFFCURVE",
"1775 973 CURVE SMOOTH",
"1775 1321 OFFCURVE",
"1672 1589 OFFCURVE",
"1465 1777 CURVE",
"1540 1905 LINE",
"1356 1905 LINE",
"1335 1869 LINE",
"1234 1925 OFFCURVE",
"1121 1953 OFFCURVE",
"997 1953 CURVE SMOOTH",
"808 1953 OFFCURVE",
"679 1922 OFFCURVE",
"610 1859 CURVE SMOOTH",
"477 1743 OFFCURVE",
"375 1655 OFFCURVE",
"303 1595 CURVE",
"146 1437 OFFCURVE",
"68 1203 OFFCURVE",
"68 893 CURVE SMOOTH",
"68 570 OFFCURVE",
"161 321 OFFCURVE",
"347 147 CURVE",
"260 -6 LINE",
"420 -5 LINE",
"459 62 LINE",
"574 -9 OFFCURVE",
"708 -44 OFFCURVE",
"861 -44 CURVE SMOOTH"
);
},
{
closed = 1;
nodes = (
"391 576 OFFCURVE",
"335 777 OFFCURVE",
"335 1020 CURVE SMOOTH",
"335 1091 OFFCURVE",
"340 1162 OFFCURVE",
"351 1233 CURVE SMOOTH",
"401 1578 OFFCURVE",
"554 1750 OFFCURVE",
"811 1750 CURVE SMOOTH",
"866 1750 OFFCURVE",
"925 1741 OFFCURVE",
"988 1723 CURVE SMOOTH",
"1064 1702 OFFCURVE",
"1133 1669 OFFCURVE",
"1194 1624 CURVE",
"503 419 LINE"
);
},
{
closed = 1;
nodes = (
"968 140 OFFCURVE",
"902 151 OFFCURVE",
"833 174 CURVE SMOOTH",
"746 203 OFFCURVE",
"669 247 OFFCURVE",
"602 307 CURVE",
"1311 1515 LINE",
"1446 1354 OFFCURVE",
"1513 1140 OFFCURVE",
"1513 873 CURVE SMOOTH",
"1513 800 OFFCURVE",
"1507 726 OFFCURVE",
"1496 652 CURVE SMOOTH",
"1443 311 OFFCURVE",
"1287 140 OFFCURVE",
"1029 140 CURVE SMOOTH"
);
}
);
width = 1867;
}
);
note = oslash;
unicode = 00F8;
},
{
glyphname = oe;
lastChange = "2021-08-11 05:19:26 +0000";
layers = (
{
layerId = "274E8830-0A80-4149-8BE8-CF3C4CCD3F6F";
paths = (
{
closed = 1;
nodes = (
"1053 -44 OFFCURVE",
"1189 -3 OFFCURVE",
"1270 79 CURVE SMOOTH",
"1298 107 OFFCURVE",
"1352 153 OFFCURVE",
"1431 216 CURVE SMOOTH",
"1502 271 OFFCURVE",
"1553 319 OFFCURVE",
"1586 358 CURVE",
"1691 119 OFFCURVE",
"1912 -1 OFFCURVE",
"2250 -1 CURVE SMOOTH",
"2665 -1 OFFCURVE",
"2927 53 OFFCURVE",
"3038 160 CURVE SMOOTH",
"3067 188 OFFCURVE",
"3083 214 OFFCURVE",
"3088 238 CURVE SMOOTH",
"3089 244 OFFCURVE",
"3090 253 OFFCURVE",
"3090 264 CURVE SMOOTH",
"3090 281 OFFCURVE",
"3088 305 OFFCURVE",
"3085 336 CURVE SMOOTH",
"3079 393 OFFCURVE",
"3076 426 OFFCURVE",
"3076 434 CURVE SMOOTH",
"3076 478 OFFCURVE",
"3080 567 OFFCURVE",
"3087 700 CURVE",
"3004 660 LINE",
"3005 647 OFFCURVE",
"3003 630 OFFCURVE",
"2999 609 CURVE SMOOTH",
"2939 284 OFFCURVE",
"2732 121 OFFCURVE",
"2375 121 CURVE SMOOTH",
"2118 121 OFFCURVE",
"1948 217 OFFCURVE",
"1864 413 CURVE SMOOTH",
"1812 534 OFFCURVE",
"1786 744 OFFCURVE",
"1786 1043 CURVE",
"1926 1056 OFFCURVE",
"2098 1063 OFFCURVE",
"2302 1063 CURVE SMOOTH",
"2330 1063 OFFCURVE",
"2428 1066 OFFCURVE",
"2595 1072 CURVE SMOOTH",
"2618 1073 OFFCURVE",
"2641 1073 OFFCURVE",
"2663 1073 CURVE SMOOTH",
"2732 1073 OFFCURVE",
"2797 1070 OFFCURVE",
"2858 1062 CURVE SMOOTH",
"2875 1060 OFFCURVE",
"2914 1103 OFFCURVE",
"2977 1191 CURVE SMOOTH",
"3050 1293 OFFCURVE",
"3086 1343 OFFCURVE",
"3086 1340 CURVE SMOOTH",
"3086 1519 OFFCURVE",
"3030 1660 OFFCURVE",
"2919 1761 CURVE SMOOTH",
"2800 1870 OFFCURVE",
"2625 1925 OFFCURVE",
"2396 1925 CURVE SMOOTH",
"2018 1925 OFFCURVE",
"1761 1807 OFFCURVE",
"1626 1572 CURVE",
"1481 1826 OFFCURVE",
"1272 1953 OFFCURVE",
"997 1953 CURVE SMOOTH",
"808 1953 OFFCURVE",
"679 1922 OFFCURVE",
"610 1859 CURVE SMOOTH",
"477 1743 OFFCURVE",
"375 1655 OFFCURVE",
"303 1595 CURVE",
"146 1437 OFFCURVE",
"68 1203 OFFCURVE",
"68 893 CURVE SMOOTH",
"68 638 OFFCURVE",
"130 424 OFFCURVE",
"254 253 CURVE SMOOTH",
"397 55 OFFCURVE",
"599 -44 OFFCURVE",
"861 -44 CURVE SMOOTH"
);
},
{
closed = 1;
nodes = (
"968 140 OFFCURVE",
"902 151 OFFCURVE",
"833 174 CURVE SMOOTH",
"666 229 OFFCURVE",
"540 338 OFFCURVE",
"453 501 CURVE SMOOTH",
"374 646 OFFCURVE",
"335 819 OFFCURVE",
"335 1020 CURVE SMOOTH",
"335 1091 OFFCURVE",
"340 1162 OFFCURVE",
"351 1233 CURVE SMOOTH",
"401 1578 OFFCURVE",
"554 1750 OFFCURVE",
"811 1750 CURVE SMOOTH",
"866 1750 OFFCURVE",
"925 1741 OFFCURVE",
"988 1723 CURVE SMOOTH",
"1162 1674 OFFCURVE",
"1295 1567 OFFCURVE",
"1388 1403 CURVE SMOOTH",
"1471 1254 OFFCURVE",
"1513 1078 OFFCURVE",
"1513 873 CURVE SMOOTH",
"1513 800 OFFCURVE",
"1507 726 OFFCURVE",
"1496 652 CURVE SMOOTH",
"1443 311 OFFCURVE",
"1287 140 OFFCURVE",
"1029 140 CURVE SMOOTH"
);
},
{
closed = 1;
nodes = (
"2212 1189 OFFCURVE",
"2151 1188 OFFCURVE",
"2097 1188 CURVE SMOOTH",
"1954 1188 OFFCURVE",
"1853 1195 OFFCURVE",
"1794 1207 CURVE",
"1797 1267 OFFCURVE",
"1800 1306 OFFCURVE",
"1802 1323 CURVE SMOOTH",
"1846 1647 OFFCURVE",
"2028 1808 OFFCURVE",
"2348 1808 CURVE SMOOTH",
"2588 1808 OFFCURVE",
"2742 1699 OFFCURVE",
"2812 1479 CURVE SMOOTH",
"2827 1430 OFFCURVE",
"2835 1386 OFFCURVE",
"2835 1347 CURVE SMOOTH",
"2835 1272 OFFCURVE",
"2809 1230 OFFCURVE",
"2757 1222 CURVE SMOOTH",
"2656 1207 OFFCURVE",
"2497 1197 OFFCURVE",
"2278 1191 CURVE SMOOTH"
);
}
);
width = 3197;
}
);
leftKerningGroup = o;
note = oe;
unicode = 0153;
},
{
glyphname = p;
lastChange = "2021-08-11 05:19:26 +0000";
layers = (
{
layerId = "274E8830-0A80-4149-8BE8-CF3C4CCD3F6F";
paths = (
{
closed = 1;
nodes = (
"1284 -682 LINE",
"1263 -684 OFFCURVE",
"1241 -685 OFFCURVE",
"1220 -685 CURVE SMOOTH",
"1155 -685 OFFCURVE",
"1088 -675 OFFCURVE",
"1020 -655 CURVE SMOOTH",
"909 -622 OFFCURVE",
"848 -570 OFFCURVE",
"835 -500 CURVE SMOOTH",
"818 -405 OFFCURVE",
"808 -290 OFFCURVE",
"804 -154 CURVE SMOOTH",
"802 195 LINE",
"903 43 OFFCURVE",
"1074 -33 OFFCURVE",
"1317 -33 CURVE SMOOTH",
"1869 -33 OFFCURVE",
"2145 319 OFFCURVE",
"2145 1023 CURVE SMOOTH",
"2145 1302 OFFCURVE",
"2106 1507 OFFCURVE",
"2028 1640 CURVE SMOOTH",
"1932 1803 OFFCURVE",
"1767 1885 OFFCURVE",
"1533 1885 CURVE SMOOTH",
"1488 1885 OFFCURVE",
"1440 1882 OFFCURVE",
"1390 1876 CURVE SMOOTH",
"1123 1845 OFFCURVE",
"934 1746 OFFCURVE",
"825 1578 CURVE",
"834 1693 OFFCURVE",
"845 1786 OFFCURVE",
"859 1859 CURVE SMOOTH",
"860 1867 OFFCURVE",
"861 1874 OFFCURVE",
"861 1881 CURVE SMOOTH",
"861 1907 OFFCURVE",
"846 1920 OFFCURVE",
"816 1920 CURVE SMOOTH",
"803 1920 OFFCURVE",
"770 1915 OFFCURVE",
"715 1904 CURVE SMOOTH",
"660 1893 OFFCURVE",
"616 1889 OFFCURVE",
"581 1890 CURVE SMOOTH",
"380 1896 OFFCURVE",
"248 1902 OFFCURVE",
"185 1909 CURVE",
"149 1833 LINE",
"198 1844 OFFCURVE",
"243 1849 OFFCURVE",
"284 1849 CURVE SMOOTH",
"364 1849 OFFCURVE",
"428 1829 OFFCURVE",
"477 1787 CURVE",
"532 1725 OFFCURVE",
"559 1443 OFFCURVE",
"559 940 CURVE SMOOTH",
"558 355 LINE SMOOTH",
"557 -115 OFFCURVE",
"545 -400 OFFCURVE",
"521 -500 CURVE SMOOTH",
"505 -567 OFFCURVE",
"453 -618 OFFCURVE",
"366 -653 CURVE SMOOTH",
"299 -680 OFFCURVE",
"225 -693 OFFCURVE",
"145 -693 CURVE SMOOTH",
"120 -693 OFFCURVE",
"100 -691 OFFCURVE",
"84 -688 CURVE",
"44 -766 LINE",
"401 -738 OFFCURVE",
"615 -724 OFFCURVE",
"686 -723 CURVE SMOOTH",
"713 -723 OFFCURVE",
"738 -722 OFFCURVE",
"763 -722 CURVE SMOOTH",
"976 -722 OFFCURVE",
"1137 -738 OFFCURVE",
"1244 -768 CURVE"
);
},
{
closed = 1;
nodes = (
"1085 84 OFFCURVE",
"945 184 OFFCURVE",
"864 384 CURVE SMOOTH",
"807 526 OFFCURVE",
"778 712 OFFCURVE",
"778 943 CURVE SMOOTH",
"778 1162 OFFCURVE",
"811 1331 OFFCURVE",
"877 1448 CURVE SMOOTH",
"986 1640 OFFCURVE",
"1146 1736 OFFCURVE",
"1357 1736 CURVE SMOOTH",
"1557 1736 OFFCURVE",
"1697 1636 OFFCURVE",
"1778 1436 CURVE SMOOTH",
"1835 1294 OFFCURVE",
"1864 1108 OFFCURVE",
"1864 877 CURVE SMOOTH",
"1864 658 OFFCURVE",
"1831 489 OFFCURVE",
"1765 372 CURVE SMOOTH",
"1656 180 OFFCURVE",
"1496 84 OFFCURVE",
"1285 84 CURVE SMOOTH"
);
}
);
width = 2356;
}
);
leftKerningGroup = j;
note = p;
rightKerningGroup = b;
unicode = 0070;
},
{
glyphname = thorn;
lastChange = "2021-08-11 05:19:26 +0000";
layers = (
{
layerId = "274E8830-0A80-4149-8BE8-CF3C4CCD3F6F";
paths = (
{
closed = 1;
nodes = (
"431 -730 OFFCURVE",
"642 -715 OFFCURVE",
"689 -714 CURVE",
"975 -723 OFFCURVE",
"1154 -737 OFFCURVE",
"1226 -757 CURVE",
"1270 -691 LINE",
"1251 -693 OFFCURVE",
"1233 -694 OFFCURVE",
"1214 -694 CURVE SMOOTH",
"1149 -694 OFFCURVE",
"1082 -682 OFFCURVE",
"1013 -659 CURVE SMOOTH",
"907 -623 OFFCURVE",
"848 -570 OFFCURVE",
"835 -499 CURVE SMOOTH",
"822 -428 OFFCURVE",
"813 -290 OFFCURVE",
"807 -85 CURVE SMOOTH",
"804 0 OFFCURVE",
"803 94 OFFCURVE",
"802 195 CURVE",
"903 43 OFFCURVE",
"1074 -33 OFFCURVE",
"1317 -33 CURVE SMOOTH",
"1869 -33 OFFCURVE",
"2145 319 OFFCURVE",
"2145 1023 CURVE SMOOTH",
"2145 1302 OFFCURVE",
"2106 1507 OFFCURVE",
"2028 1640 CURVE SMOOTH",
"1932 1803 OFFCURVE",
"1767 1885 OFFCURVE",
"1533 1885 CURVE SMOOTH",
"1488 1885 OFFCURVE",
"1440 1882 OFFCURVE",
"1390 1876 CURVE SMOOTH",
"1123 1845 OFFCURVE",
"934 1746 OFFCURVE",
"825 1578 CURVE",
"828 1783 OFFCURVE",
"829 1975 OFFCURVE",
"830 2155 CURVE SMOOTH",
"833 2348 OFFCURVE",
"836 2466 OFFCURVE",
"841 2507 CURVE SMOOTH",
"846 2548 OFFCURVE",
"852 2585 OFFCURVE",
"859 2618 CURVE SMOOTH",
"860 2626 OFFCURVE",
"861 2633 OFFCURVE",
"861 2640 CURVE SMOOTH",
"861 2666 OFFCURVE",
"846 2679 OFFCURVE",
"816 2679 CURVE SMOOTH",
"803 2679 OFFCURVE",
"770 2674 OFFCURVE",
"715 2663 CURVE SMOOTH",
"660 2652 OFFCURVE",
"616 2648 OFFCURVE",
"581 2649 CURVE SMOOTH",
"380 2655 OFFCURVE",
"248 2662 OFFCURVE",
"185 2669 CURVE",
"149 2592 LINE",
"198 2603 OFFCURVE",
"243 2608 OFFCURVE",
"284 2608 CURVE SMOOTH",
"364 2608 OFFCURVE",
"428 2588 OFFCURVE",
"477 2546 CURVE",
"504 2206 OFFCURVE",
"522 1875 OFFCURVE",
"533 1553 CURVE",
"550 1394 OFFCURVE",
"559 1190 OFFCURVE",
"559 940 CURVE SMOOTH",
"558 355 LINE SMOOTH",
"557 -115 OFFCURVE",
"545 -400 OFFCURVE",
"521 -500 CURVE SMOOTH",
"505 -567 OFFCURVE",
"453 -618 OFFCURVE",
"366 -653 CURVE SMOOTH",
"299 -680 OFFCURVE",
"225 -693 OFFCURVE",
"145 -693 CURVE SMOOTH",
"120 -693 OFFCURVE",
"100 -691 OFFCURVE",
"84 -688 CURVE",
"56 -757 LINE"
);
},
{
closed = 1;
nodes = (
"1085 84 OFFCURVE",
"945 184 OFFCURVE",
"864 384 CURVE SMOOTH",
"807 526 OFFCURVE",
"778 712 OFFCURVE",
"778 943 CURVE SMOOTH",
"778 1162 OFFCURVE",
"811 1331 OFFCURVE",
"877 1448 CURVE SMOOTH",
"986 1640 OFFCURVE",
"1146 1736 OFFCURVE",
"1357 1736 CURVE SMOOTH",
"1557 1736 OFFCURVE",
"1697 1636 OFFCURVE",
"1778 1436 CURVE SMOOTH",
"1835 1294 OFFCURVE",
"1864 1108 OFFCURVE",
"1864 877 CURVE SMOOTH",
"1864 658 OFFCURVE",
"1831 489 OFFCURVE",
"1765 372 CURVE SMOOTH",
"1656 180 OFFCURVE",
"1496 84 OFFCURVE",
"1285 84 CURVE SMOOTH"
);
}
);
width = 2513;
}
);
leftKerningGroup = bracketleft;
note = thorn;
rightKerningGroup = b;
unicode = 00FE;
},
{
glyphname = q;
lastChange = "2021-08-11 05:19:26 +0000";
layers = (
{
layerId = "274E8830-0A80-4149-8BE8-CF3C4CCD3F6F";
paths = (
{
closed = 1;
nodes = (
"1348 -740 OFFCURVE",
"1561 -725 OFFCURVE",
"1638 -724 CURVE SMOOTH",
"1670 -723 OFFCURVE",
"1701 -723 OFFCURVE",
"1730 -723 CURVE SMOOTH",
"1937 -723 OFFCURVE",
"2093 -738 OFFCURVE",
"2197 -767 CURVE",
"2240 -682 LINE",
"2219 -684 OFFCURVE",
"2197 -685 OFFCURVE",
"2176 -685 CURVE SMOOTH",
"2111 -685 OFFCURVE",
"2045 -675 OFFCURVE",
"1978 -655 CURVE SMOOTH",
"1867 -622 OFFCURVE",
"1806 -570 OFFCURVE",
"1793 -500 CURVE SMOOTH",
"1771 -374 OFFCURVE",
"1760 -89 OFFCURVE",
"1760 355 CURVE SMOOTH",
"1758 940 LINE SMOOTH",
"1758 1443 OFFCURVE",
"1785 1725 OFFCURVE",
"1840 1787 CURVE",
"1885 1825 OFFCURVE",
"1946 1844 OFFCURVE",
"2024 1844 CURVE SMOOTH",
"2066 1844 OFFCURVE",
"2113 1839 OFFCURVE",
"2165 1827 CURVE",
"2204 1905 LINE",
"2103 1902 OFFCURVE",
"2013 1900 OFFCURVE",
"1935 1900 CURVE SMOOTH",
"1889 1900 OFFCURVE",
"1846 1901 OFFCURVE",
"1808 1902 CURVE SMOOTH",
"1777 1901 OFFCURVE",
"1730 1905 OFFCURVE",
"1668 1912 CURVE SMOOTH",
"1603 1921 OFFCURVE",
"1560 1925 OFFCURVE",
"1539 1925 CURVE SMOOTH",
"1484 1925 OFFCURVE",
"1457 1908 OFFCURVE",
"1457 1875 CURVE SMOOTH",
"1457 1870 OFFCURVE",
"1458 1864 OFFCURVE",
"1459 1859 CURVE SMOOTH",
"1466 1824 OFFCURVE",
"1472 1784 OFFCURVE",
"1477 1739 CURVE",
"1346 1854 OFFCURVE",
"1181 1912 OFFCURVE",
"982 1912 CURVE SMOOTH",
"664 1912 OFFCURVE",
"440 1808 OFFCURVE",
"310 1600 CURVE SMOOTH",
"207 1436 OFFCURVE",
"155 1188 OFFCURVE",
"155 856 CURVE SMOOTH",
"155 593 OFFCURVE",
"207 387 OFFCURVE",
"310 238 CURVE SMOOTH",
"421 77 OFFCURVE",
"585 -3 OFFCURVE",
"802 -3 CURVE SMOOTH",
"837 -3 OFFCURVE",
"873 -1 OFFCURVE",
"910 3 CURVE SMOOTH",
"1193 36 OFFCURVE",
"1387 146 OFFCURVE",
"1494 333 CURVE",
"1516 389 LINE",
"1516 355 LINE SMOOTH",
"1516 -115 OFFCURVE",
"1504 -400 OFFCURVE",
"1480 -500 CURVE SMOOTH",
"1463 -567 OFFCURVE",
"1411 -618 OFFCURVE",
"1323 -653 CURVE SMOOTH",
"1254 -680 OFFCURVE",
"1180 -693 OFFCURVE",
"1099 -693 CURVE SMOOTH",
"1074 -693 OFFCURVE",
"1054 -691 OFFCURVE",
"1037 -688 CURVE",
"999 -767 LINE"
);
},
{
closed = 1;
nodes = (
"737 130 OFFCURVE",
"597 230 OFFCURVE",
"516 431 CURVE SMOOTH",
"459 572 OFFCURVE",
"430 759 OFFCURVE",
"430 990 CURVE SMOOTH",
"430 1209 OFFCURVE",
"463 1377 OFFCURVE",
"529 1494 CURVE SMOOTH",
"638 1687 OFFCURVE",
"798 1783 OFFCURVE",
"1009 1783 CURVE SMOOTH",
"1209 1783 OFFCURVE",
"1349 1683 OFFCURVE",
"1430 1482 CURVE SMOOTH",
"1485 1348 OFFCURVE",
"1513 1187 OFFCURVE",
"1515 998 CURVE SMOOTH",
"1516 893 LINE SMOOTH",
"1518 698 OFFCURVE",
"1485 540 OFFCURVE",
"1417 419 CURVE SMOOTH",
"1308 226 OFFCURVE",
"1148 130 OFFCURVE",
"937 130 CURVE SMOOTH"
);
}
);
width = 2289;
}
);
leftKerningGroup = d;
note = q;
unicode = 0071;
},
{
glyphname = r;
lastChange = "2021-08-11 05:19:26 +0000";
layers = (
{
anchors = (
{
name = bottom;
position = "{683, 12}";
},
{
name = top;
position = "{949, 1934}";
}
);
layerId = "274E8830-0A80-4149-8BE8-CF3C4CCD3F6F";
paths = (
{
closed = 1;
nodes = (
"219 3 OFFCURVE",
"420 11 OFFCURVE",
"683 12 CURVE SMOOTH",
"739 12 LINE SMOOTH",
"978 12 OFFCURVE",
"1162 6 OFFCURVE",
"1287 -8 CURVE",
"1331 77 LINE",
"1302 71 OFFCURVE",
"1263 68 OFFCURVE",
"1215 68 CURVE SMOOTH",
"992 68 OFFCURVE",
"867 123 OFFCURVE",
"841 232 CURVE",
"822 400 OFFCURVE",
"812 533 OFFCURVE",
"810 632 CURVE SMOOTH",
"802 902 OFFCURVE",
"798 1066 OFFCURVE",
"798 1125 CURVE SMOOTH",
"798 1204 LINE SMOOTH",
"798 1258 OFFCURVE",
"798 1289 OFFCURVE",
"799 1297 CURVE",
"800 1291 OFFCURVE",
"801 1305 OFFCURVE",
"801 1340 CURVE SMOOTH",
"801 1423 OFFCURVE",
"859 1512 OFFCURVE",
"976 1609 CURVE SMOOTH",
"1079 1695 OFFCURVE",
"1165 1743 OFFCURVE",
"1232 1753 CURVE SMOOTH",
"1257 1756 OFFCURVE",
"1279 1758 OFFCURVE",
"1300 1758 CURVE SMOOTH",
"1451 1758 OFFCURVE",
"1545 1653 OFFCURVE",
"1580 1442 CURVE SMOOTH",
"1592 1372 OFFCURVE",
"1604 1337 OFFCURVE",
"1615 1337 CURVE SMOOTH",
"1618 1337 OFFCURVE",
"1621 1338 OFFCURVE",
"1624 1340 CURVE SMOOTH",
"1754 1427 OFFCURVE",
"1819 1503 OFFCURVE",
"1819 1569 CURVE SMOOTH",
"1821 1760 OFFCURVE",
"1724 1874 OFFCURVE",
"1527 1911 CURVE SMOOTH",
"1489 1918 OFFCURVE",
"1451 1921 OFFCURVE",
"1414 1921 CURVE SMOOTH",
"1271 1921 OFFCURVE",
"1142 1873 OFFCURVE",
"1029 1778 CURVE SMOOTH",
"897 1666 OFFCURVE",
"821 1597 OFFCURVE",
"800 1572 CURVE",
"813 1685 OFFCURVE",
"823 1777 OFFCURVE",
"830 1847 CURVE",
"832 1857 OFFCURVE",
"833 1866 OFFCURVE",
"833 1873 CURVE SMOOTH",
"833 1902 OFFCURVE",
"816 1917 OFFCURVE",
"782 1917 CURVE SMOOTH",
"771 1917 OFFCURVE",
"741 1914 OFFCURVE",
"694 1907 CURVE SMOOTH",
"649 1901 OFFCURVE",
"611 1898 OFFCURVE",
"580 1899 CURVE SMOOTH",
"311 1907 OFFCURVE",
"155 1914 OFFCURVE",
"110 1919 CURVE",
"74 1842 LINE",
"108 1850 OFFCURVE",
"149 1854 OFFCURVE",
"196 1854 CURVE SMOOTH",
"222 1854 OFFCURVE",
"251 1852 OFFCURVE",
"281 1850 CURVE SMOOTH",
"377 1843 OFFCURVE",
"442 1825 OFFCURVE",
"476 1796 CURVE",
"528 1738 OFFCURVE",
"557 1551 OFFCURVE",
"557 1238 CURVE SMOOTH",
"557 1192 LINE",
"552 616 LINE SMOOTH",
"550 438 OFFCURVE",
"536 312 OFFCURVE",
"507 237 CURVE SMOOTH",
"487 184 OFFCURVE",
"439 142 OFFCURVE",
"364 110 CURVE SMOOTH",
"300 83 OFFCURVE",
"235 70 OFFCURVE",
"169 70 CURVE SMOOTH",
"150 70 OFFCURVE",
"134 71 OFFCURVE",
"121 74 CURVE",
"80 -12 LINE"
);
}
);
width = 1898;
}
);
leftKerningGroup = i;
note = r;
rightKerningGroup = r;
unicode = 0072;
},
{
glyphname = s;
lastChange = "2021-08-11 05:19:26 +0000";
layers = (
{
anchors = (
{
name = bottom;
position = "{697, 0}";
},
{
name = top;
position = "{873, 1912}";
}
);
layerId = "274E8830-0A80-4149-8BE8-CF3C4CCD3F6F";
paths = (
{
closed = 1;
nodes = (
"792 -44 OFFCURVE",
"949 -16 OFFCURVE",
"1076 40 CURVE SMOOTH",
"1181 86 OFFCURVE",
"1266 154 OFFCURVE",
"1329 244 CURVE SMOOTH",
"1392 334 OFFCURVE",
"1424 429 OFFCURVE",
"1424 528 CURVE SMOOTH",
"1424 615 OFFCURVE",
"1399 695 OFFCURVE",
"1348 768 CURVE SMOOTH",
"1296 843 OFFCURVE",
"1191 922 OFFCURVE",
"1033 1005 CURVE SMOOTH",
"806 1124 OFFCURVE",
"681 1192 OFFCURVE",
"657 1208 CURVE SMOOTH",
"536 1291 OFFCURVE",
"475 1380 OFFCURVE",
"475 1475 CURVE SMOOTH",
"475 1575 OFFCURVE",
"521 1659 OFFCURVE",
"614 1727 CURVE SMOOTH",
"701 1790 OFFCURVE",
"799 1822 OFFCURVE",
"910 1822 CURVE SMOOTH",
"996 1822 OFFCURVE",
"1068 1801 OFFCURVE",
"1127 1758 CURVE SMOOTH",
"1208 1699 OFFCURVE",
"1250 1619 OFFCURVE",
"1253 1517 CURVE SMOOTH",
"1254 1481 OFFCURVE",
"1255 1449 OFFCURVE",
"1255 1423 CURVE SMOOTH",
"1255 1371 OFFCURVE",
"1252 1339 OFFCURVE",
"1247 1328 CURVE",
"1335 1373 LINE",
"1330 1448 OFFCURVE",
"1327 1515 OFFCURVE",
"1327 1573 CURVE SMOOTH",
"1327 1655 OFFCURVE",
"1332 1720 OFFCURVE",
"1342 1770 CURVE SMOOTH",
"1343 1773 OFFCURVE",
"1344 1778 OFFCURVE",
"1344 1783 CURVE SMOOTH",
"1344 1816 OFFCURVE",
"1321 1842 OFFCURVE",
"1275 1863 CURVE SMOOTH",
"1194 1899 OFFCURVE",
"1078 1917 OFFCURVE",
"928 1917 CURVE SMOOTH",
"925 1917 LINE SMOOTH",
"736 1917 OFFCURVE",
"573 1865 OFFCURVE",
"437 1762 CURVE SMOOTH",
"298 1657 OFFCURVE",
"229 1528 OFFCURVE",
"229 1377 CURVE SMOOTH",
"229 1235 OFFCURVE",
"290 1121 OFFCURVE",
"412 1034 CURVE SMOOTH",
"433 1019 OFFCURVE",
"559 957 OFFCURVE",
"788 846 CURVE SMOOTH",
"944 771 OFFCURVE",
"1046 686 OFFCURVE",
"1095 589 CURVE SMOOTH",
"1119 542 OFFCURVE",
"1131 490 OFFCURVE",
"1131 433 CURVE SMOOTH",
"1131 275 OFFCURVE",
"1060 162 OFFCURVE",
"919 93 CURVE SMOOTH",
"868 68 OFFCURVE",
"809 56 OFFCURVE",
"744 56 CURVE SMOOTH",
"639 56 OFFCURVE",
"541 84 OFFCURVE",
"450 139 CURVE SMOOTH",
"355 197 OFFCURVE",
"298 268 OFFCURVE",
"278 351 CURVE SMOOTH",
"271 376 OFFCURVE",
"268 476 OFFCURVE",
"268 652 CURVE",
"197 628 LINE",
"198 605 OFFCURVE",
"198 582 OFFCURVE",
"198 558 CURVE SMOOTH",
"198 402 OFFCURVE",
"178 243 OFFCURVE",
"138 79 CURVE SMOOTH",
"137 76 OFFCURVE",
"137 73 OFFCURVE",
"137 71 CURVE SMOOTH",
"137 57 OFFCURVE",
"148 46 OFFCURVE",
"170 38 CURVE SMOOTH",
"333 -17 OFFCURVE",
"478 -44 OFFCURVE",
"603 -44 CURVE SMOOTH"
);
}
);
width = 1558;
}
);
leftKerningGroup = s;
note = s;
rightKerningGroup = s;
unicode = 0073;
},
{
glyphname = germandbls;
lastChange = "2021-08-11 05:19:26 +0000";
layers = (
{
layerId = "274E8830-0A80-4149-8BE8-CF3C4CCD3F6F";
paths = (
{
closed = 1;
nodes = (
"301 -936 LINE SMOOTH",
"379 -904 OFFCURVE",
"434 -876 OFFCURVE",
"474 -843 CURVE SMOOTH",
"529 -798 OFFCURVE",
"558 -731 OFFCURVE",
"559 -642 CURVE SMOOTH",
"568 942 LINE SMOOTH",
"571 1459 OFFCURVE",
"587 1886 OFFCURVE",
"610 2221 CURVE SMOOTH",
"618 2339 OFFCURVE",
"659 2431 OFFCURVE",
"734 2497 CURVE SMOOTH",
"800 2556 OFFCURVE",
"881 2586 OFFCURVE",
"976 2586 CURVE SMOOTH",
"1079 2586 OFFCURVE",
"1168 2553 OFFCURVE",
"1242 2487 CURVE SMOOTH",
"1325 2412 OFFCURVE",
"1361 2317 OFFCURVE",
"1361 2215 CURVE SMOOTH",
"1361 1983 OFFCURVE",
"1171 1719 OFFCURVE",
"921 1604 CURVE SMOOTH",
"853 1573 OFFCURVE",
"818 1497 OFFCURVE",
"818 1410 CURVE SMOOTH",
"818 1287 OFFCURVE",
"887 1142 OFFCURVE",
"1027 1069 CURVE SMOOTH",
"1049 1057 OFFCURVE",
"1229 963 OFFCURVE",
"1377 889 CURVE SMOOTH",
"1521 817 OFFCURVE",
"1658 686 OFFCURVE",
"1707 589 CURVE SMOOTH",
"1731 542 OFFCURVE",
"1743 490 OFFCURVE",
"1743 433 CURVE SMOOTH",
"1743 275 OFFCURVE",
"1672 162 OFFCURVE",
"1531 93 CURVE SMOOTH",
"1480 68 OFFCURVE",
"1421 56 OFFCURVE",
"1356 56 CURVE SMOOTH",
"1251 56 OFFCURVE",
"1153 84 OFFCURVE",
"1062 139 CURVE SMOOTH",
"967 197 OFFCURVE",
"910 268 OFFCURVE",
"890 351 CURVE SMOOTH",
"883 376 OFFCURVE",
"880 476 OFFCURVE",
"880 652 CURVE",
"809 628 LINE",
"810 605 OFFCURVE",
"810 582 OFFCURVE",
"810 558 CURVE SMOOTH",
"810 402 OFFCURVE",
"790 243 OFFCURVE",
"750 79 CURVE SMOOTH",
"749 76 OFFCURVE",
"749 73 OFFCURVE",
"749 71 CURVE SMOOTH",
"749 57 OFFCURVE",
"760 46 OFFCURVE",
"782 38 CURVE SMOOTH",
"945 -17 OFFCURVE",
"1090 -44 OFFCURVE",
"1215 -44 CURVE SMOOTH",
"1404 -44 OFFCURVE",
"1561 -16 OFFCURVE",
"1688 40 CURVE SMOOTH",
"1793 86 OFFCURVE",
"1878 154 OFFCURVE",
"1941 244 CURVE SMOOTH",
"2004 334 OFFCURVE",
"2036 429 OFFCURVE",
"2036 528 CURVE SMOOTH",
"2036 615 OFFCURVE",
"2011 695 OFFCURVE",
"1960 768 CURVE SMOOTH",
"1908 843 OFFCURVE",
"1803 922 OFFCURVE",
"1606 1041 CURVE",
"1394 1155 OFFCURVE",
"1278 1221 OFFCURVE",
"1255 1235 CURVE SMOOTH",
"1127 1318 OFFCURVE",
"1060 1406 OFFCURVE",
"1060 1492 CURVE SMOOTH",
"1060 1563 OFFCURVE",
"1106 1632 OFFCURVE",
"1203 1694 CURVE SMOOTH",
"1444 1849 OFFCURVE",
"1606 2006 OFFCURVE",
"1606 2221 CURVE SMOOTH",
"1606 2492 OFFCURVE",
"1439 2660 OFFCURVE",
"1017 2660 CURVE SMOOTH",
"963 2660 OFFCURVE",
"905 2658 OFFCURVE",
"842 2653 CURVE SMOOTH",
"582 2635 OFFCURVE",
"421 2567 OFFCURVE",
"367 2449 CURVE SMOOTH",
"334 2376 OFFCURVE",
"317 2225 OFFCURVE",
"317 1996 CURVE SMOOTH",
"317 1938 LINE",
"19 1942 LINE",
"0 1848 LINE",
"81 1857 OFFCURVE",
"130 1861 OFFCURVE",
"148 1861 CURVE SMOOTH",
"251 1861 OFFCURVE",
"309 1792 OFFCURVE",
"323 1653 CURVE",
"324 1562 OFFCURVE",
"325 1459 OFFCURVE",
"325 1343 CURVE SMOOTH",
"325 108 OFFCURVE",
"274 -850 OFFCURVE",
"174 -938 CURVE SMOOTH",
"159 -951 OFFCURVE",
"152 -962 OFFCURVE",
"152 -971 CURVE SMOOTH",
"152 -981 OFFCURVE",
"157 -986 OFFCURVE",
"167 -986 CURVE SMOOTH",
"174 -986 OFFCURVE",
"182 -984 OFFCURVE",
"193 -980 CURVE SMOOTH"
);
}
);
width = 2144;
}
);
note = germandbls;
unicode = 00DF;
},
{
glyphname = t;
lastChange = "2021-08-11 05:19:26 +0000";
layers = (
{
anchors = (
{
name = bottom;
position = "{717, 0}";
},
{
name = center;
position = "{704, 956}";
},
{
name = top;
position = "{465, 2497}";
},
{
name = topright;
position = "{928, 2819}";
}
);
layerId = "274E8830-0A80-4149-8BE8-CF3C4CCD3F6F";
paths = (
{
closed = 1;
nodes = (
"886 -25 OFFCURVE",
"988 -6 OFFCURVE",
"1090 33 CURVE SMOOTH",
"1209 78 OFFCURVE",
"1268 133 OFFCURVE",
"1268 199 CURVE SMOOTH",
"1268 224 OFFCURVE",
"1272 309 OFFCURVE",
"1282 452 CURVE SMOOTH",
"1293 587 OFFCURVE",
"1300 664 OFFCURVE",
"1304 684 CURVE",
"1209 642 LINE",
"1201 551 OFFCURVE",
"1193 479 OFFCURVE",
"1184 425 CURVE SMOOTH",
"1164 303 OFFCURVE",
"1118 217 OFFCURVE",
"1045 168 CURVE SMOOTH",
"992 131 OFFCURVE",
"925 113 OFFCURVE",
"844 113 CURVE SMOOTH",
"686 113 OFFCURVE",
"593 209 OFFCURVE",
"565 401 CURVE SMOOTH",
"545 532 OFFCURVE",
"535 717 OFFCURVE",
"535 956 CURVE SMOOTH",
"535 1144 OFFCURVE",
"541 1365 OFFCURVE",
"555 1619 CURVE SMOOTH",
"562 1750 LINE",
"759 1745 OFFCURVE",
"915 1731 OFFCURVE",
"1030 1710 CURVE SMOOTH",
"1057 1705 OFFCURVE",
"1092 1721 OFFCURVE",
"1137 1757 CURVE SMOOTH",
"1178 1791 OFFCURVE",
"1199 1816 OFFCURVE",
"1199 1832 CURVE SMOOTH",
"1199 1835 OFFCURVE",
"1197 1836 OFFCURVE",
"1192 1837 CURVE",
"567 1839 LINE",
"583 2079 OFFCURVE",
"611 2290 OFFCURVE",
"652 2471 CURVE SMOOTH",
"653 2474 OFFCURVE",
"653 2478 OFFCURVE",
"653 2481 CURVE SMOOTH",
"653 2492 OFFCURVE",
"648 2497 OFFCURVE",
"637 2497 CURVE SMOOTH",
"604 2497 OFFCURVE",
"541 2461 OFFCURVE",
"448 2388 CURVE SMOOTH",
"355 2316 OFFCURVE",
"308 2270 OFFCURVE",
"308 2250 CURVE SMOOTH",
"309 1840 LINE",
"121 1840 LINE",
"53 1753 LINE",
"309 1753 LINE",
"310 1580 LINE SMOOTH",
"311 1463 OFFCURVE",
"311 1358 OFFCURVE",
"311 1267 CURVE SMOOTH",
"311 1012 OFFCURVE",
"309 858 OFFCURVE",
"308 804 CURVE SMOOTH",
"306 709 OFFCURVE",
"305 631 OFFCURVE",
"305 570 CURVE SMOOTH",
"305 509 OFFCURVE",
"306 465 OFFCURVE",
"308 437 CURVE SMOOTH",
"318 276 OFFCURVE",
"349 162 OFFCURVE",
"402 95 CURVE SMOOTH",
"465 15 OFFCURVE",
"593 -25 OFFCURVE",
"784 -25 CURVE SMOOTH"
);
}
);
width = 1407;
}
);
leftKerningGroup = t;
note = t;
rightKerningGroup = t;
unicode = 0074;
},
{
glyphname = tbar;
lastChange = "2021-08-11 05:19:26 +0000";
layers = (
{
anchors = (
{
name = top;
position = "{499, 1403}";
}
);
components = (
{
name = t;
}
);
layerId = "274E8830-0A80-4149-8BE8-CF3C4CCD3F6F";
paths = (
{
closed = 1;
nodes = (
"829 1203 OFFCURVE",
"825 1230 OFFCURVE",
"861 1254 CURVE SMOOTH",
"886 1271 OFFCURVE",
"892 1285 OFFCURVE",
"892 1297 CURVE SMOOTH",
"892 1308 OFFCURVE",
"886 1318 OFFCURVE",
"886 1325 CURVE SMOOTH",
"886 1327 OFFCURVE",
"885 1330 OFFCURVE",
"883 1330 CURVE SMOOTH",
"874 1330 OFFCURVE",
"823 1326 OFFCURVE",
"730 1318 CURVE SMOOTH",
"658 1312 OFFCURVE",
"570 1309 OFFCURVE",
"514 1309 CURVE SMOOTH",
"384 1309 OFFCURVE",
"243 1317 OFFCURVE",
"181 1334 CURVE SMOOTH",
"170 1336 OFFCURVE",
"156 1320 OFFCURVE",
"139 1285 CURVE SMOOTH",
"122 1252 OFFCURVE",
"114 1228 OFFCURVE",
"114 1214 CURVE SMOOTH",
"114 1211 OFFCURVE",
"114 1210 OFFCURVE",
"116 1209 CURVE",
"253 1224 OFFCURVE",
"405 1230 OFFCURVE",
"497 1230 CURVE SMOOTH",
"625 1230 OFFCURVE",
"758 1221 OFFCURVE",
"819 1205 CURVE SMOOTH"
);
}
);
width = 1407;
}
);
unicode = 0167;
},
{
glyphname = u;
lastChange = "2021-08-11 05:19:26 +0000";
layers = (
{
anchors = (
{
name = bottom;
position = "{1196, 0}";
},
{
name = ogonek;
position = "{2153, 29}";
},
{
name = top;
position = "{1196, 1912}";
},
{
name = topright;
position = "{1724, 1813}";
}
);
layerId = "274E8830-0A80-4149-8BE8-CF3C4CCD3F6F";
paths = (
{
closed = 1;
nodes = (
"1107 -53 OFFCURVE",
"1257 -5 OFFCURVE",
"1389 90 CURVE SMOOTH",
"1460 142 OFFCURVE",
"1548 197 OFFCURVE",
"1653 254 CURVE",
"1644 174 OFFCURVE",
"1635 108 OFFCURVE",
"1625 55 CURVE SMOOTH",
"1623 46 OFFCURVE",
"1622 37 OFFCURVE",
"1622 29 CURVE SMOOTH",
"1622 0 OFFCURVE",
"1639 -14 OFFCURVE",
"1673 -14 CURVE SMOOTH",
"1684 -14 OFFCURVE",
"1714 -11 OFFCURVE",
"1761 -5 CURVE SMOOTH",
"1806 2 OFFCURVE",
"1844 4 OFFCURVE",
"1875 3 CURVE SMOOTH",
"2107 -2 OFFCURVE",
"2264 -6 OFFCURVE",
"2345 -7 CURVE",
"2404 90 LINE",
"2370 82 OFFCURVE",
"2329 78 OFFCURVE",
"2282 78 CURVE SMOOTH",
"2256 78 OFFCURVE",
"2227 80 OFFCURVE",
"2197 82 CURVE SMOOTH",
"2101 89 OFFCURVE",
"2036 107 OFFCURVE",
"2002 136 CURVE",
"1967 175 OFFCURVE",
"1940 282 OFFCURVE",
"1919 456 CURVE SMOOTH",
"1904 587 OFFCURVE",
"1897 702 OFFCURVE",
"1897 801 CURVE SMOOTH",
"1899 1278 OFFCURVE",
"1911 1563 OFFCURVE",
"1934 1656 CURVE SMOOTH",
"1963 1777 OFFCURVE",
"2042 1838 OFFCURVE",
"2170 1838 CURVE SMOOTH",
"2191 1838 OFFCURVE",
"2211 1836 OFFCURVE",
"2230 1832 CURVE",
"2258 1901 LINE",
"1991 1881 OFFCURVE",
"1827 1870 OFFCURVE",
"1766 1869 CURVE",
"1533 1876 OFFCURVE",
"1397 1885 OFFCURVE",
"1357 1896 CURVE",
"1314 1830 LINE",
"1497 1830 OFFCURVE",
"1599 1772 OFFCURVE",
"1620 1656 CURVE SMOOTH",
"1643 1529 OFFCURVE",
"1654 1245 OFFCURVE",
"1654 804 CURVE SMOOTH",
"1654 404 LINE",
"1607 333 OFFCURVE",
"1527 268 OFFCURVE",
"1412 207 CURVE SMOOTH",
"1313 155 OFFCURVE",
"1226 124 OFFCURVE",
"1152 115 CURVE SMOOTH",
"1123 112 OFFCURVE",
"1097 110 OFFCURVE",
"1073 110 CURVE SMOOTH",
"836 110 OFFCURVE",
"725 310 OFFCURVE",
"724 709 CURVE SMOOTH",
"723 1286 LINE",
"723 1329 LINE SMOOTH",
"723 1491 OFFCURVE",
"736 1606 OFFCURVE",
"762 1675 CURVE SMOOTH",
"778 1718 OFFCURVE",
"810 1754 OFFCURVE",
"857 1784 CURVE SMOOTH",
"904 1815 OFFCURVE",
"951 1830 OFFCURVE",
"996 1830 CURVE SMOOTH",
"1007 1830 OFFCURVE",
"1016 1829 OFFCURVE",
"1025 1828 CURVE",
"1063 1904 LINE",
"918 1888 OFFCURVE",
"768 1881 OFFCURVE",
"615 1881 CURVE SMOOTH",
"442 1881 OFFCURVE",
"265 1890 OFFCURVE",
"82 1910 CURVE",
"38 1826 LINE",
"73 1833 OFFCURVE",
"110 1836 OFFCURVE",
"149 1836 CURVE SMOOTH",
"304 1836 OFFCURVE",
"393 1784 OFFCURVE",
"418 1681 CURVE",
"438 1512 OFFCURVE",
"449 1379 OFFCURVE",
"452 1280 CURVE SMOOTH",
"458 1151 OFFCURVE",
"461 991 OFFCURVE",
"461 801 CURVE SMOOTH",
"464 604 LINE SMOOTH",
"466 485 OFFCURVE",
"466 382 OFFCURVE",
"466 297 CURVE SMOOTH",
"466 107 OFFCURVE",
"580 -6 OFFCURVE",
"808 -43 CURVE SMOOTH",
"852 -50 OFFCURVE",
"896 -53 OFFCURVE",
"940 -53 CURVE SMOOTH"
);
}
);
width = 2392;
}
);
leftKerningGroup = j;
note = u;
unicode = 0075;
},
{
glyphname = v;
lastChange = "2021-08-11 05:19:26 +0000";
layers = (
{
layerId = "274E8830-0A80-4149-8BE8-CF3C4CCD3F6F";
paths = (
{
closed = 1;
nodes = (
"1230 -48 LINE",
"1285 224 OFFCURVE",
"1389 555 OFFCURVE",
"1542 945 CURVE SMOOTH",
"1725 1412 OFFCURVE",
"1882 1684 OFFCURVE",
"2013 1762 CURVE SMOOTH",
"2098 1813 OFFCURVE",
"2183 1838 OFFCURVE",
"2268 1838 CURVE",
"2310 1910 LINE",
"2161 1896 OFFCURVE",
"2049 1889 OFFCURVE",
"1972 1889 CURVE SMOOTH",
"1919 1887 OFFCURVE",
"1866 1886 OFFCURVE",
"1813 1886 CURVE SMOOTH",
"1749 1886 OFFCURVE",
"1685 1887 OFFCURVE",
"1622 1890 CURVE SMOOTH",
"1469 1897 OFFCURVE",
"1376 1903 OFFCURVE",
"1343 1909 CURVE",
"1286 1825 LINE",
"1316 1830 OFFCURVE",
"1349 1833 OFFCURVE",
"1385 1833 CURVE SMOOTH",
"1548 1833 OFFCURVE",
"1629 1786 OFFCURVE",
"1629 1691 CURVE SMOOTH",
"1629 1585 OFFCURVE",
"1581 1385 OFFCURVE",
"1485 1092 CURVE SMOOTH",
"1397 824 OFFCURVE",
"1316 615 OFFCURVE",
"1242 464 CURVE SMOOTH",
"1230 440 OFFCURVE",
"1219 428 OFFCURVE",
"1210 428 CURVE SMOOTH",
"1201 428 OFFCURVE",
"1190 443 OFFCURVE",
"1177 472 CURVE SMOOTH",
"903 1127 OFFCURVE",
"766 1535 OFFCURVE",
"766 1694 CURVE SMOOTH",
"766 1741 OFFCURVE",
"800 1777 OFFCURVE",
"869 1802 CURVE SMOOTH",
"919 1819 OFFCURVE",
"973 1828 OFFCURVE",
"1031 1828 CURVE SMOOTH",
"1046 1828 OFFCURVE",
"1059 1827 OFFCURVE",
"1070 1826 CURVE",
"1124 1912 LINE",
"911 1888 OFFCURVE",
"726 1876 OFFCURVE",
"570 1876 CURVE SMOOTH",
"571 1876 OFFCURVE",
"499 1880 OFFCURVE",
"354 1887 CURVE SMOOTH",
"195 1894 OFFCURVE",
"93 1901 OFFCURVE",
"48 1906 CURVE",
"12 1829 LINE",
"35 1834 OFFCURVE",
"65 1836 OFFCURVE",
"100 1836 CURVE SMOOTH",
"213 1836 OFFCURVE",
"295 1815 OFFCURVE",
"346 1773 CURVE SMOOTH",
"435 1700 OFFCURVE",
"606 1284 OFFCURVE",
"860 526 CURVE SMOOTH",
"898 408 OFFCURVE",
"926 319 OFFCURVE",
"944 260 CURVE SMOOTH",
"960 217 OFFCURVE",
"1000 161 OFFCURVE",
"1064 91 CURVE SMOOTH",
"1135 14 OFFCURVE",
"1178 -39 OFFCURVE",
"1193 -68 CURVE"
);
}
);
width = 2325;
}
);
note = v;
rightKerningGroup = v;
unicode = 0076;
},
{
glyphname = w;
lastChange = "2021-08-11 05:19:26 +0000";
layers = (
{
anchors = (
{
name = bottom;
position = "{1770, 0}";
},
{
name = top;
position = "{1770, 1912}";
}
);
layerId = "274E8830-0A80-4149-8BE8-CF3C4CCD3F6F";
paths = (
{
closed = 1;
nodes = (
"1230 -48 LINE",
"1263 110 OFFCURVE",
"1326 326 OFFCURVE",
"1420 601 CURVE SMOOTH",
"1527 909 OFFCURVE",
"1633 1171 OFFCURVE",
"1740 1386 CURVE",
"1827 1172 OFFCURVE",
"1931 885 OFFCURVE",
"2052 526 CURVE SMOOTH",
"2090 408 OFFCURVE",
"2118 319 OFFCURVE",
"2136 260 CURVE SMOOTH",
"2151 217 OFFCURVE",
"2191 161 OFFCURVE",
"2255 91 CURVE SMOOTH",
"2326 14 OFFCURVE",
"2370 -39 OFFCURVE",
"2385 -68 CURVE",
"2422 -48 LINE",
"2477 224 OFFCURVE",
"2581 555 OFFCURVE",
"2734 945 CURVE SMOOTH",
"2917 1412 OFFCURVE",
"3074 1684 OFFCURVE",
"3205 1762 CURVE SMOOTH",
"3289 1813 OFFCURVE",
"3374 1838 OFFCURVE",
"3460 1838 CURVE",
"3502 1910 LINE",
"3353 1896 OFFCURVE",
"3240 1889 OFFCURVE",
"3163 1889 CURVE SMOOTH",
"3110 1887 OFFCURVE",
"3058 1886 OFFCURVE",
"3005 1886 CURVE SMOOTH",
"2941 1886 OFFCURVE",
"2877 1887 OFFCURVE",
"2814 1890 CURVE SMOOTH",
"2661 1897 OFFCURVE",
"2568 1903 OFFCURVE",
"2534 1909 CURVE",
"2478 1825 LINE",
"2508 1830 OFFCURVE",
"2541 1833 OFFCURVE",
"2576 1833 CURVE SMOOTH",
"2739 1833 OFFCURVE",
"2820 1786 OFFCURVE",
"2820 1691 CURVE SMOOTH",
"2820 1585 OFFCURVE",
"2772 1385 OFFCURVE",
"2676 1092 CURVE SMOOTH",
"2588 824 OFFCURVE",
"2507 615 OFFCURVE",
"2434 464 CURVE SMOOTH",
"2422 440 OFFCURVE",
"2411 428 OFFCURVE",
"2402 428 CURVE SMOOTH",
"2392 428 OFFCURVE",
"2381 443 OFFCURVE",
"2369 472 CURVE SMOOTH",
"2094 1127 OFFCURVE",
"1957 1535 OFFCURVE",
"1957 1694 CURVE SMOOTH",
"1957 1741 OFFCURVE",
"1992 1777 OFFCURVE",
"2061 1802 CURVE SMOOTH",
"2111 1819 OFFCURVE",
"2165 1828 OFFCURVE",
"2222 1828 CURVE SMOOTH",
"2238 1828 OFFCURVE",
"2251 1827 OFFCURVE",
"2262 1826 CURVE",
"2315 1912 LINE",
"2102 1888 OFFCURVE",
"1918 1876 OFFCURVE",
"1761 1876 CURVE SMOOTH",
"1763 1876 OFFCURVE",
"1691 1880 OFFCURVE",
"1546 1887 CURVE SMOOTH",
"1437 1895 OFFCURVE",
"1363 1901 OFFCURVE",
"1323 1906 CURVE",
"1287 1829 LINE",
"1310 1834 OFFCURVE",
"1332 1836 OFFCURVE",
"1354 1836 CURVE SMOOTH",
"1422 1836 OFFCURVE",
"1482 1815 OFFCURVE",
"1534 1773 CURVE SMOOTH",
"1580 1736 OFFCURVE",
"1611 1692 OFFCURVE",
"1626 1640 CURVE",
"1612 1513 OFFCURVE",
"1560 1315 OFFCURVE",
"1469 1044 CURVE SMOOTH",
"1385 795 OFFCURVE",
"1309 602 OFFCURVE",
"1242 464 CURVE SMOOTH",
"1230 440 OFFCURVE",
"1219 428 OFFCURVE",
"1210 428 CURVE SMOOTH",
"1201 428 OFFCURVE",
"1190 443 OFFCURVE",
"1177 472 CURVE SMOOTH",
"903 1127 OFFCURVE",
"766 1535 OFFCURVE",
"766 1694 CURVE SMOOTH",
"766 1741 OFFCURVE",
"800 1777 OFFCURVE",
"869 1802 CURVE SMOOTH",
"919 1819 OFFCURVE",
"973 1828 OFFCURVE",
"1031 1828 CURVE SMOOTH",
"1046 1828 OFFCURVE",
"1059 1827 OFFCURVE",
"1070 1826 CURVE",
"1124 1912 LINE",
"911 1888 OFFCURVE",
"726 1876 OFFCURVE",
"570 1876 CURVE SMOOTH",
"571 1876 OFFCURVE",
"499 1880 OFFCURVE",
"354 1887 CURVE SMOOTH",
"195 1894 OFFCURVE",
"93 1901 OFFCURVE",
"48 1906 CURVE",
"12 1829 LINE",
"35 1834 OFFCURVE",
"65 1836 OFFCURVE",
"100 1836 CURVE SMOOTH",
"213 1836 OFFCURVE",
"295 1815 OFFCURVE",
"346 1773 CURVE SMOOTH",
"435 1700 OFFCURVE",
"606 1284 OFFCURVE",
"860 526 CURVE SMOOTH",
"898 408 OFFCURVE",
"926 319 OFFCURVE",
"944 260 CURVE SMOOTH",
"960 217 OFFCURVE",
"1000 161 OFFCURVE",
"1064 91 CURVE SMOOTH",
"1135 14 OFFCURVE",
"1178 -39 OFFCURVE",
"1193 -68 CURVE"
);
}
);
width = 3540;
}
);
note = w;
rightKerningGroup = v;
unicode = 0077;
},
{
glyphname = x;
lastChange = "2021-08-11 05:19:26 +0000";
layers = (
{
layerId = "274E8830-0A80-4149-8BE8-CF3C4CCD3F6F";
paths = (
{
closed = 1;
nodes = (
"1292 2 OFFCURVE",
"1455 13 OFFCURVE",
"1628 13 CURVE SMOOTH",
"1703 13 OFFCURVE",
"1779 11 OFFCURVE",
"1857 7 CURVE SMOOTH",
"2019 -1 OFFCURVE",
"2121 -7 OFFCURVE",
"2164 -12 CURVE",
"2210 80 LINE",
"2186 75 OFFCURVE",
"2156 73 OFFCURVE",
"2121 73 CURVE SMOOTH",
"1960 73 OFFCURVE",
"1839 113 OFFCURVE",
"1760 192 CURVE SMOOTH",
"1666 285 OFFCURVE",
"1482 560 OFFCURVE",
"1208 1017 CURVE",
"1276 1123 OFFCURVE",
"1338 1216 OFFCURVE",
"1394 1296 CURVE SMOOTH",
"1462 1393 OFFCURVE",
"1530 1491 OFFCURVE",
"1599 1588 CURVE SMOOTH",
"1662 1672 OFFCURVE",
"1718 1727 OFFCURVE",
"1768 1752 CURVE SMOOTH",
"1878 1809 OFFCURVE",
"1981 1837 OFFCURVE",
"2076 1838 CURVE",
"2106 1910 LINE",
"1960 1896 OFFCURVE",
"1848 1889 OFFCURVE",
"1771 1889 CURVE SMOOTH",
"1723 1887 OFFCURVE",
"1676 1886 OFFCURVE",
"1630 1886 CURVE SMOOTH",
"1579 1886 OFFCURVE",
"1529 1887 OFFCURVE",
"1481 1890 CURVE SMOOTH",
"1390 1898 OFFCURVE",
"1327 1904 OFFCURVE",
"1290 1909 CURVE",
"1252 1825 LINE",
"1261 1828 OFFCURVE",
"1272 1829 OFFCURVE",
"1285 1829 CURVE SMOOTH",
"1312 1829 OFFCURVE",
"1347 1823 OFFCURVE",
"1389 1810 CURVE SMOOTH",
"1451 1791 OFFCURVE",
"1482 1769 OFFCURVE",
"1482 1742 CURVE SMOOTH",
"1482 1731 OFFCURVE",
"1479 1717 OFFCURVE",
"1472 1700 CURVE SMOOTH",
"1428 1591 OFFCURVE",
"1321 1395 OFFCURVE",
"1152 1112 CURVE",
"1015 1345 OFFCURVE",
"926 1509 OFFCURVE",
"885 1604 CURVE SMOOTH",
"859 1663 OFFCURVE",
"846 1707 OFFCURVE",
"846 1736 CURVE SMOOTH",
"846 1774 OFFCURVE",
"883 1802 OFFCURVE",
"956 1820 CURVE",
"1005 1825 OFFCURVE",
"1044 1827 OFFCURVE",
"1073 1827 CURVE",
"1122 1911 LINE",
"968 1894 OFFCURVE",
"841 1886 OFFCURVE",
"742 1886 CURVE SMOOTH",
"410 1886 LINE",
"253 1893 OFFCURVE",
"152 1900 OFFCURVE",
"107 1905 CURVE",
"59 1828 LINE",
"83 1833 OFFCURVE",
"113 1835 OFFCURVE",
"148 1835 CURVE SMOOTH",
"292 1835 OFFCURVE",
"391 1810 OFFCURVE",
"444 1760 CURVE SMOOTH",
"589 1623 OFFCURVE",
"785 1341 OFFCURVE",
"1032 915 CURVE",
"955 792 OFFCURVE",
"886 687 OFFCURVE",
"826 602 CURVE SMOOTH",
"617 303 LINE SMOOTH",
"551 214 OFFCURVE",
"493 157 OFFCURVE",
"444 132 CURVE SMOOTH",
"364 91 OFFCURVE",
"267 70 OFFCURVE",
"154 69 CURVE",
"113 -13 LINE",
"260 2 OFFCURVE",
"371 9 OFFCURVE",
"448 9 CURVE SMOOTH",
"493 11 OFFCURVE",
"537 11 OFFCURVE",
"580 11 CURVE SMOOTH",
"639 11 OFFCURVE",
"695 10 OFFCURVE",
"749 7 CURVE SMOOTH",
"880 0 OFFCURVE",
"960 -6 OFFCURVE",
"989 -12 CURVE",
"1035 82 LINE",
"1010 77 OFFCURVE",
"983 74 OFFCURVE",
"953 74 CURVE SMOOTH",
"822 74 OFFCURVE",
"757 111 OFFCURVE",
"757 184 CURVE SMOOTH",
"757 195 OFFCURVE",
"759 206 OFFCURVE",
"763 217 CURVE SMOOTH",
"798 324 OFFCURVE",
"906 525 OFFCURVE",
"1086 821 CURVE",
"1372 316 LINE SMOOTH",
"1399 269 OFFCURVE",
"1413 227 OFFCURVE",
"1413 192 CURVE SMOOTH",
"1413 115 OFFCURVE",
"1348 76 OFFCURVE",
"1217 76 CURVE SMOOTH",
"1204 76 OFFCURVE",
"1194 77 OFFCURVE",
"1185 78 CURVE",
"1140 -18 LINE"
);
}
);
width = 2193;
}
);
note = x;
unicode = 0078;
},
{
glyphname = y;
lastChange = "2021-08-11 05:19:26 +0000";
layers = (
{
anchors = (
{
name = bottom;
position = "{1665, 0}";
},
{
name = top;
position = "{1254, 1912}";
}
);
layerId = "274E8830-0A80-4149-8BE8-CF3C4CCD3F6F";
paths = (
{
closed = 1;
nodes = (
"883 -716 OFFCURVE",
"1055 -569 OFFCURVE",
"1160 -268 CURVE SMOOTH",
"1474 628 LINE SMOOTH",
"1598 982 OFFCURVE",
"1713 1251 OFFCURVE",
"1810 1436 CURVE SMOOTH",
"1900 1606 OFFCURVE",
"1986 1715 OFFCURVE",
"2067 1762 CURVE SMOOTH",
"2154 1813 OFFCURVE",
"2241 1838 OFFCURVE",
"2329 1838 CURVE",
"2372 1910 LINE",
"2219 1896 OFFCURVE",
"2103 1889 OFFCURVE",
"2024 1889 CURVE SMOOTH",
"1969 1887 OFFCURVE",
"1915 1886 OFFCURVE",
"1862 1886 CURVE SMOOTH",
"1796 1886 OFFCURVE",
"1730 1887 OFFCURVE",
"1665 1890 CURVE SMOOTH",
"1508 1897 OFFCURVE",
"1413 1903 OFFCURVE",
"1378 1909 CURVE",
"1320 1825 LINE",
"1351 1830 OFFCURVE",
"1384 1833 OFFCURVE",
"1421 1833 CURVE SMOOTH",
"1588 1833 OFFCURVE",
"1672 1786 OFFCURVE",
"1672 1691 CURVE SMOOTH",
"1672 1585 OFFCURVE",
"1623 1385 OFFCURVE",
"1524 1092 CURVE SMOOTH",
"1433 824 OFFCURVE",
"1350 615 OFFCURVE",
"1275 464 CURVE SMOOTH",
"1262 440 OFFCURVE",
"1251 428 OFFCURVE",
"1242 428 CURVE SMOOTH",
"1232 428 OFFCURVE",
"1221 443 OFFCURVE",
"1208 472 CURVE SMOOTH",
"926 1127 OFFCURVE",
"785 1535 OFFCURVE",
"785 1694 CURVE SMOOTH",
"785 1741 OFFCURVE",
"821 1777 OFFCURVE",
"892 1802 CURVE SMOOTH",
"943 1819 OFFCURVE",
"998 1828 OFFCURVE",
"1057 1828 CURVE SMOOTH",
"1073 1828 OFFCURVE",
"1086 1827 OFFCURVE",
"1097 1826 CURVE",
"1153 1912 LINE",
"934 1888 OFFCURVE",
"744 1876 OFFCURVE",
"583 1876 CURVE SMOOTH",
"585 1876 OFFCURVE",
"511 1880 OFFCURVE",
"362 1887 CURVE SMOOTH",
"199 1894 OFFCURVE",
"94 1901 OFFCURVE",
"47 1906 CURVE",
"10 1829 LINE",
"34 1834 OFFCURVE",
"64 1836 OFFCURVE",
"101 1836 CURVE SMOOTH",
"216 1836 OFFCURVE",
"301 1815 OFFCURVE",
"354 1772 CURVE SMOOTH",
"408 1729 OFFCURVE",
"532 1461 OFFCURVE",
"726 967 CURVE SMOOTH",
"803 773 OFFCURVE",
"927 444 OFFCURVE",
"1100 -20 CURVE",
"1071 -155 OFFCURVE",
"1025 -276 OFFCURVE",
"960 -383 CURVE SMOOTH",
"873 -526 OFFCURVE",
"774 -597 OFFCURVE",
"662 -597 CURVE SMOOTH",
"557 -597 OFFCURVE",
"477 -556 OFFCURVE",
"424 -474 CURVE SMOOTH",
"388 -419 OFFCURVE",
"360 -348 OFFCURVE",
"340 -262 CURVE SMOOTH",
"331 -223 OFFCURVE",
"323 -175 OFFCURVE",
"316 -120 CURVE",
"192 -150 LINE",
"209 -239 OFFCURVE",
"223 -369 OFFCURVE",
"234 -542 CURVE SMOOTH",
"237 -583 OFFCURVE",
"275 -619 OFFCURVE",
"346 -652 CURVE SMOOTH",
"438 -695 OFFCURVE",
"542 -716 OFFCURVE",
"658 -716 CURVE SMOOTH"
);
}
);
width = 2376;
}
);
note = y;
unicode = 0079;
},
{
glyphname = z;
lastChange = "2021-08-11 05:19:26 +0000";
layers = (
{
anchors = (
{
name = bottom;
position = "{862, 0}";
},
{
name = center;
position = "{862, 956}";
},
{
name = top;
position = "{934, 1912}";
}
);
layerId = "274E8830-0A80-4149-8BE8-CF3C4CCD3F6F";
paths = (
{
closed = 1;
nodes = (
"173 5 OFFCURVE",
"246 9 OFFCURVE",
"316 10 CURVE SMOOTH",
"796 9 OFFCURVE",
"1162 5 OFFCURVE",
"1413 0 CURVE",
"1446 3 OFFCURVE",
"1477 45 OFFCURVE",
"1502 126 CURVE SMOOTH",
"1592 423 LINE",
"1672 652 LINE",
"1574 634 LINE",
"1545 537 OFFCURVE",
"1523 469 OFFCURVE",
"1506 428 CURVE",
"1477 339 OFFCURVE",
"1387 285 OFFCURVE",
"1236 266 CURVE SMOOTH",
"1181 259 OFFCURVE",
"1073 255 OFFCURVE",
"912 255 CURVE SMOOTH",
"856 255 LINE SMOOTH",
"659 256 OFFCURVE",
"532 262 OFFCURVE",
"475 273 CURVE",
"474 278 OFFCURVE",
"474 283 OFFCURVE",
"474 288 CURVE SMOOTH",
"474 357 OFFCURVE",
"593 547 OFFCURVE",
"830 856 CURVE SMOOTH",
"1289 1454 OFFCURVE",
"1543 1799 OFFCURVE",
"1590 1890 CURVE SMOOTH",
"1595 1900 OFFCURVE",
"1598 1908 OFFCURVE",
"1598 1915 CURVE SMOOTH",
"1598 1926 OFFCURVE",
"1589 1932 OFFCURVE",
"1571 1932 CURVE SMOOTH",
"1558 1932 OFFCURVE",
"1532 1927 OFFCURVE",
"1493 1918 CURVE SMOOTH",
"1454 1909 OFFCURVE",
"1427 1905 OFFCURVE",
"1410 1905 CURVE SMOOTH",
"1285 1905 OFFCURVE",
"1072 1907 OFFCURVE",
"771 1910 CURVE SMOOTH",
"581 1912 OFFCURVE",
"458 1913 OFFCURVE",
"402 1913 CURVE SMOOTH",
"369 1913 LINE SMOOTH",
"335 1911 OFFCURVE",
"308 1863 OFFCURVE",
"289 1768 CURVE",
"253 1543 LINE",
"225 1422 OFFCURVE",
"206 1331 OFFCURVE",
"195 1272 CURVE",
"288 1290 LINE",
"288 1351 OFFCURVE",
"302 1433 OFFCURVE",
"329 1538 CURVE",
"347 1647 OFFCURVE",
"428 1701 OFFCURVE",
"573 1701 CURVE SMOOTH",
"819 1701 OFFCURVE",
"981 1698 OFFCURVE",
"1059 1691 CURVE SMOOTH",
"1120 1686 OFFCURVE",
"1155 1659 OFFCURVE",
"1164 1612 CURVE SMOOTH",
"1174 1559 OFFCURVE",
"1024 1327 OFFCURVE",
"714 917 CURVE SMOOTH",
"461 587 OFFCURVE",
"270 340 OFFCURVE",
"142 176 CURVE",
"55 91 OFFCURVE",
"11 38 OFFCURVE",
"11 17 CURVE SMOOTH",
"11 5 OFFCURVE",
"29 -1 OFFCURVE",
"66 -1 CURVE SMOOTH",
"75 -1 OFFCURVE",
"85 -1 OFFCURVE",
"97 0 CURVE SMOOTH"
);
}
);
width = 1724;
}
);
leftKerningGroup = z;
note = z;
unicode = 007A;
},
